<?xml version="1.0" encoding="iso-8859-1"?>
<!-- Generator: Adobe Illustrator 19.0.0, SVG Export Plug-In . SVG Version: 6.00 Build 0)  -->
<svg version="1.1" id="Capa_1" xmlns="http://www.w3.org/2000/svg" xmlns:xlink="http://www.w3.org/1999/xlink" x="0px" y="0px"
	 viewBox="0 0 512 512" style="enable-background:new 0 0 512 512;" xml:space="preserve">
<circle style="fill:#4482C3;" cx="256" cy="251.585" r="247.172"/>
<circle style="fill:#FFFFFF;" cx="256" cy="251.585" r="211.862"/>
<g>
	<path style="fill:#BDC3C7;" d="M256,110.344c-4.873,0-8.828-3.946-8.828-8.828V75.033c0-4.882,3.955-8.828,8.828-8.828
		s8.828,3.946,8.828,8.828v26.483C264.828,106.398,260.873,110.344,256,110.344z"/>
	<path style="fill:#BDC3C7;" d="M256,436.964c-4.873,0-8.828-3.946-8.828-8.828v-26.483c0-4.882,3.955-8.828,8.828-8.828
		s8.828,3.946,8.828,8.828v26.483C264.828,433.018,260.873,436.964,256,436.964z"/>
	<path style="fill:#BDC3C7;" d="M432.552,260.413h-26.483c-4.873,0-8.828-3.946-8.828-8.828s3.955-8.828,8.828-8.828h26.483
		c4.873,0,8.828,3.946,8.828,8.828S437.425,260.413,432.552,260.413z"/>
	<path style="fill:#BDC3C7;" d="M105.931,260.413H79.448c-4.873,0-8.828-3.946-8.828-8.828s3.955-8.828,8.828-8.828h26.483
		c4.873,0,8.828,3.946,8.828,8.828S110.804,260.413,105.931,260.413z"/>
</g>
<g>
	<path style="fill:#ECF0F1;" d="M256,233.93c-4.873,0-8.828-3.946-8.828-8.828v-79.448c0-4.882,3.955-8.828,8.828-8.828
		s8.828,3.946,8.828,8.828v79.448C264.828,229.984,260.873,233.93,256,233.93z"/>
	<path style="fill:#ECF0F1;" d="M326.621,260.413h-44.138c-4.873,0-8.828-3.946-8.828-8.828s3.955-8.828,8.828-8.828h44.138
		c4.873,0,8.828,3.946,8.828,8.828S331.493,260.413,326.621,260.413z"/>
</g>
<g>
	<path style="fill:#BDC3C7;" d="M149.884,154.296c-2.26,0-4.52-0.865-6.241-2.586l-17.47-17.47c-3.443-3.452-3.443-9.031,0-12.482
		s9.039-3.452,12.482,0l17.47,17.47c3.452,3.452,3.452,9.031,0,12.482C154.403,153.44,152.143,154.296,149.884,154.296z"/>
	<path style="fill:#BDC3C7;" d="M379.586,383.999c-2.26,0-4.52-0.865-6.241-2.586l-17.47-17.47c-3.452-3.452-3.452-9.031,0-12.482
		s9.039-3.452,12.482,0l17.47,17.47c3.443,3.452,3.443,9.031,0,12.482C384.106,383.134,381.846,383.999,379.586,383.999z"/>
	<path style="fill:#BDC3C7;" d="M362.116,154.296c-2.26,0-4.52-0.865-6.241-2.586c-3.452-3.452-3.452-9.031,0-12.482l17.47-17.47
		c3.443-3.452,9.031-3.452,12.482,0c3.452,3.452,3.452,9.031,0,12.482l-17.47,17.47C366.636,153.44,364.376,154.296,362.116,154.296
		z"/>
	<path style="fill:#BDC3C7;" d="M132.414,383.999c-2.26,0-4.52-0.865-6.241-2.586c-3.452-3.452-3.452-9.031,0-12.482l17.47-17.47
		c3.443-3.452,9.031-3.452,12.482,0s3.452,9.031,0,12.482l-17.47,17.47C136.934,383.134,134.674,383.999,132.414,383.999z"/>
</g>
<g>
	<path style="fill:#F0C419;" d="M483.116,153.97C500.754,139.404,512,117.353,512,92.689c0-43.882-35.566-79.448-79.448-79.448
		c-21.681,0-41.304,8.704-55.64,22.784C424.024,62.507,461.594,103.961,483.116,153.97z"/>
	<path style="fill:#F0C419;" d="M28.884,153.97c21.522-50.008,59.092-91.463,106.205-117.945
		c-14.336-14.08-33.96-22.784-55.64-22.784C35.575,13.24,0,48.807,0,92.689C0,117.353,11.246,139.395,28.884,153.97z"/>
</g>
<g>
	<path style="fill:#285680;" d="M80.94,426.062l-48.852,48.852c-7.477,7.477-7.477,19.588,0,27.065
		c7.468,7.477,19.588,7.477,27.065,0l50.926-50.926C99.734,443.47,89.98,435.128,80.94,426.062z"/>
	<path style="fill:#285680;" d="M431.06,426.062c-9.031,9.066-18.794,17.399-29.14,24.982l50.926,50.926
		c7.477,7.477,19.588,7.477,27.065,0c7.477-7.477,7.477-19.588,0-27.065L431.06,426.062z"/>
</g>
<circle style="fill:#E64C3C;" cx="256" cy="251.585" r="26.483"/>
<g>
</g>
<g>
</g>
<g>
</g>
<g>
</g>
<g>
</g>
<g>
</g>
<g>
</g>
<g>
</g>
<g>
</g>
<g>
</g>
<g>
</g>
<g>
</g>
<g>
</g>
<g>
</g>
<g>
</g>
</svg>
