<?xml version="1.0" encoding="iso-8859-1"?>
<!-- Generator: Adobe Illustrator 19.0.0, SVG Export Plug-In . SVG Version: 6.00 Build 0)  -->
<svg version="1.1" id="Capa_1" xmlns="http://www.w3.org/2000/svg" xmlns:xlink="http://www.w3.org/1999/xlink" x="0px" y="0px"
	 viewBox="0 0 512 512" style="enable-background:new 0 0 512 512;" xml:space="preserve">
<path style="fill:#D7AB1C;" d="M256,54.857c12.608,0,24.814,1.691,36.571,4.553V36.571C292.571,16.375,276.197,0,256,0
	c-20.197,0-36.571,16.375-36.571,36.571V59.41C231.186,56.549,243.392,54.857,256,54.857z"/>
<path style="fill:#ECF0F1;" d="M256,457.143c-30.555,0-57.81-1.079-82.075-2.789c-0.073,0.933-0.21,1.847-0.21,2.789
	C173.714,487.442,210.56,512,256,512c45.449,0,82.286-24.558,82.286-54.857c0-0.942-0.137-1.856-0.21-2.789
	C313.81,456.064,286.555,457.143,256,457.143z"/>
<path style="fill:#F0C419;" d="M453.861,403.429c-28.818-43.904-42.432-96.064-42.432-148.59v-53.696
	c0-85.486-69.943-155.429-155.429-155.429s-155.429,69.943-155.429,155.429v53.696c0,52.517-13.614,104.677-42.432,148.59
	c-8.997,13.714-19.282,26.286-30.711,35.429c0,0,73.143,27.429,228.571,27.429s228.571-27.429,228.571-27.429
	C473.143,429.714,462.857,417.143,453.861,403.429z"/>
<g>
	<path style="fill:#FFDC79;" d="M155.419,146.286c-1.509,0-3.026-0.366-4.434-1.152c-4.416-2.459-6.007-8.018-3.547-12.425
		c21.349-38.418,59.886-59.566,108.535-59.566c0.009,0,0.018,0,0.027,0c5.047,0,9.143,4.096,9.143,9.143
		c0,5.056-4.096,9.143-9.143,9.143l0,0c-0.009,0-0.018,0-0.027,0c-29.513,0-69.513,8.704-92.553,50.149
		C161.746,144.585,158.638,146.286,155.419,146.286z"/>
	<path style="fill:#FFDC79;" d="M92.818,426.185c-1.637,0-3.291-0.439-4.782-1.353c-4.297-2.651-5.641-8.283-2.99-12.581
		C122.798,350.994,128,283.374,128,219.429c0-5.056,4.096-9.143,9.143-9.143s9.143,4.087,9.143,9.143
		c0,66.633-5.531,137.28-45.678,202.414C98.88,424.64,95.881,426.185,92.818,426.185z"/>
</g>
<g>
</g>
<g>
</g>
<g>
</g>
<g>
</g>
<g>
</g>
<g>
</g>
<g>
</g>
<g>
</g>
<g>
</g>
<g>
</g>
<g>
</g>
<g>
</g>
<g>
</g>
<g>
</g>
<g>
</g>
</svg>
