<svg height="512pt" viewBox="0 -18 512 512" width="512pt" xmlns="http://www.w3.org/2000/svg"><path d="m441.378906 0h-414.886718c-14.628907 0-26.492188 11.863281-26.492188 26.492188v291.300781h512v-291.300781c0-14.628907-11.863281-26.492188-26.492188-26.492188zm0 0" fill="#e7eced"/><path d="m35.308594 35.308594h441.382812v264.828125h-441.382812zm0 0" fill="#28384c"/><path d="m300.136719 370.757812v-8.828124h-88.273438v8.828124c0 39.035157-13.929687 70.621094-52.964843 70.621094v8.828125h185.378906v-8.828125h8.824218c-39.035156 0-52.964843-31.585937-52.964843-70.621094zm0 0" fill="#e7eced"/><path d="m485.507812 370.757812h-459.015624c-14.628907 0-26.492188-11.863281-26.492188-26.492187v-44.128906h512v44.128906c0 14.628906-11.863281 26.492187-26.492188 26.492187zm0 0" fill="#c2c5c6"/><path d="m282.484375 344.277344h-52.96875c-4.871094 0-8.824219-3.949219-8.824219-8.828125 0-4.882813 3.953125-8.828125 8.824219-8.828125h52.96875c4.871094 0 8.824219 3.945312 8.824219 8.828125 0 4.878906-3.953125 8.828125-8.824219 8.828125zm0 0" fill="#fff"/><path d="m370.757812 476.691406h-229.515624c-9.753907 0-17.65625-7.902344-17.65625-17.65625s7.902343-17.65625 17.65625-17.65625h229.515624c9.753907 0 17.65625 7.902344 17.65625 17.65625s-7.902343 17.65625-17.65625 17.65625zm0 0" fill="#c2c5c6"/><path d="m397.242188 194.207031h-52.964844c-7.3125-.511719-13.886719.609375-19.617188 2.984375 1.273438 4.554688-15.695312 9.472656-15.695312 14.671875v88.273438h132.414062v-61.792969c0-26.464844-17.273437-46.007812-44.136718-44.136719zm0 0" fill="#366db6"/><path d="m167.722656 194.207031h-52.964844c-26.863281-1.871093-44.136718 17.671875-44.136718 44.136719v61.792969h132.414062v-88.273438c0-5.199219-16.96875-10.117187-15.695312-14.671875-5.730469-2.375-12.304688-3.496094-19.617188-2.984375zm0 0" fill="#ebba16"/><path d="m141.242188 264.828125h-26.484376c-4.871093 0-8.828124-3.957031-8.828124-8.828125s3.957031-8.828125 8.828124-8.828125h26.484376c4.871093 0 8.828124 3.957031 8.828124 8.828125s-3.957031 8.828125-8.828124 8.828125zm0 0" fill="#fff"/><path d="m397.242188 264.828125h-26.484376c-4.871093 0-8.828124-3.957031-8.828124-8.828125s3.957031-8.828125 8.828124-8.828125h26.484376c4.871093 0 8.828124 3.957031 8.828124 8.828125s-3.957031 8.828125-8.828124 8.828125zm0 0" fill="#fff"/><g fill="#fbce9d"><path d="m283.199219 88.277344c-16.535157-11.769532-37.84375-11.769532-54.386719 0-10.445312 7.835937-16.949219 20.292968-16.949219 35.308594 0 16.96875 4.042969 36.0625 17.652344 44.136718h52.96875c13.609375-8.074218 17.652344-27.167968 17.652344-44.136718 0-15.015626-6.503907-27.472657-16.9375-35.308594zm0 0"/><path d="m168.4375 114.757812c-16.542969-11.765624-37.851562-11.765624-54.386719 0-10.441406 7.839844-16.949219 20.296876-16.949219 35.3125 0 16.964844 4.042969 36.058594 17.65625 44.136719h52.964844c13.613282-8.078125 17.65625-27.171875 17.65625-44.136719 0-15.015624-6.503906-27.472656-16.941406-35.3125zm0 0"/><path d="m397.957031 114.757812c-16.535156-11.765624-37.84375-11.765624-54.386719 0-10.445312 7.839844-16.949218 20.296876-16.949218 35.3125 0 16.964844 4.042968 36.058594 17.65625 44.136719h52.964844c13.613281-8.078125 17.65625-27.171875 17.65625-44.136719 0-15.015624-6.507813-27.472656-16.941407-35.3125zm0 0"/></g><path d="m282.484375 167.722656h-52.96875c-26.859375-1.871094-44.136719 17.675782-44.136719 44.140625v88.273438h141.242188v-88.273438c0-26.464843-17.277344-46.011719-44.136719-44.140625zm0 0" fill="#dd352e"/><path d="m273.65625 238.34375h-35.3125c-4.871094 0-8.828125-3.953125-8.828125-8.828125 0-4.871094 3.957031-8.824219 8.828125-8.824219h35.3125c4.871094 0 8.828125 3.953125 8.828125 8.824219 0 4.875-3.957031 8.828125-8.828125 8.828125zm0 0" fill="#fff"/><path d="m273.65625 273.65625h-35.3125c-4.871094 0-8.828125-3.957031-8.828125-8.828125 0-4.875 3.957031-8.828125 8.828125-8.828125h35.3125c4.871094 0 8.828125 3.953125 8.828125 8.828125 0 4.871094-3.957031 8.828125-8.828125 8.828125zm0 0" fill="#fff"/></svg>