<?xml version="1.0" encoding="iso-8859-1"?>
<!-- Generator: Adobe Illustrator 19.0.0, SVG Export Plug-In . SVG Version: 6.00 Build 0)  -->
<svg version="1.1" id="Capa_1" xmlns="http://www.w3.org/2000/svg" xmlns:xlink="http://www.w3.org/1999/xlink" x="0px" y="0px"
	 viewBox="0 0 512 512" style="enable-background:new 0 0 512 512;" xml:space="preserve">
<g>
	<path style="fill:#927BAA;" d="M256,0C148.745,0,61.793,31.62,61.793,70.621v132.414v123.586v123.586
		C61.793,476.69,148.745,512,256,512s194.207-35.31,194.207-61.793V326.621V203.034V70.621C450.207,31.62,363.255,0,256,0z"/>
	<ellipse style="fill:#927BAA;" cx="256" cy="70.621" rx="194.207" ry="70.621"/>
</g>
<path style="fill:#B49ACA;" d="M256,388.414c-107.255,0-194.207-35.31-194.207-61.793v123.586C61.793,476.69,148.745,512,256,512
	s194.207-35.31,194.207-61.793V326.621C450.207,353.103,363.255,388.414,256,388.414z"/>
<path style="fill:#927BAA;" d="M256,264.828c-107.255,0-194.207-35.31-194.207-61.793v123.586
	c0,26.483,86.952,61.793,194.207,61.793s194.207-35.31,194.207-61.793V203.034C450.207,229.517,363.255,264.828,256,264.828z"/>
<path style="fill:#B49ACA;" d="M256,141.241c-107.255,0-194.207-31.62-194.207-70.621v132.414
	c0,26.483,86.952,61.793,194.207,61.793s194.207-35.31,194.207-61.793V70.621C450.207,109.621,363.255,141.241,256,141.241z"/>
<g>
</g>
<g>
</g>
<g>
</g>
<g>
</g>
<g>
</g>
<g>
</g>
<g>
</g>
<g>
</g>
<g>
</g>
<g>
</g>
<g>
</g>
<g>
</g>
<g>
</g>
<g>
</g>
<g>
</g>
</svg>
