<?xml version="1.0" encoding="iso-8859-1"?>
<!-- Generator: Adobe Illustrator 19.0.0, SVG Export Plug-In . SVG Version: 6.00 Build 0)  -->
<svg version="1.1" id="Capa_1" xmlns="http://www.w3.org/2000/svg" xmlns:xlink="http://www.w3.org/1999/xlink" x="0px" y="0px"
	 viewBox="0 0 512 512" style="enable-background:new 0 0 512 512;" xml:space="preserve">
<polygon style="fill:#2C353F;" points="441.379,0 0,0 0,512 512,512 512,70.621 "/>
<rect x="97.103" style="fill:#3E4F60;" width="317.793" height="158.897"/>
<rect x="167.724" style="fill:#E3E9EA;" width="247.172" height="158.897"/>
<rect x="97.103" y="264.828" style="fill:#F7E6A1;" width="317.793" height="247.172"/>
<rect x="335.448" y="35.31" style="fill:#3E4F60;" width="35.31" height="88.276"/>
<g>
	<path style="fill:#BCAA61;" d="M317.793,308.966H141.241c-4.873,0-8.828-3.955-8.828-8.828c0-4.873,3.955-8.828,8.828-8.828
		h176.552c4.873,0,8.828,3.955,8.828,8.828C326.621,305.011,322.666,308.966,317.793,308.966z"/>
	<path style="fill:#BCAA61;" d="M370.759,308.966h-17.655c-4.873,0-8.828-3.955-8.828-8.828c0-4.873,3.955-8.828,8.828-8.828h17.655
		c4.873,0,8.828,3.955,8.828,8.828C379.586,305.011,375.631,308.966,370.759,308.966z"/>
	<path style="fill:#BCAA61;" d="M167.724,353.103h-26.483c-4.873,0-8.828-3.955-8.828-8.828c0-4.873,3.955-8.828,8.828-8.828h26.483
		c4.873,0,8.828,3.955,8.828,8.828C176.552,349.149,172.597,353.103,167.724,353.103z"/>
	<path style="fill:#BCAA61;" d="M370.759,353.103H203.034c-4.873,0-8.828-3.955-8.828-8.828c0-4.873,3.955-8.828,8.828-8.828
		h167.724c4.873,0,8.828,3.955,8.828,8.828C379.586,349.149,375.631,353.103,370.759,353.103z"/>
	<path style="fill:#BCAA61;" d="M317.793,397.241H141.241c-4.873,0-8.828-3.955-8.828-8.828s3.955-8.828,8.828-8.828h176.552
		c4.873,0,8.828,3.955,8.828,8.828S322.666,397.241,317.793,397.241z"/>
	<path style="fill:#BCAA61;" d="M370.759,397.241h-17.655c-4.873,0-8.828-3.955-8.828-8.828s3.955-8.828,8.828-8.828h17.655
		c4.873,0,8.828,3.955,8.828,8.828S375.631,397.241,370.759,397.241z"/>
	<path style="fill:#BCAA61;" d="M317.793,485.517H141.241c-4.873,0-8.828-3.955-8.828-8.828c0-4.873,3.955-8.828,8.828-8.828
		h176.552c4.873,0,8.828,3.955,8.828,8.828C326.621,481.562,322.666,485.517,317.793,485.517z"/>
	<path style="fill:#BCAA61;" d="M370.759,485.517h-17.655c-4.873,0-8.828-3.955-8.828-8.828c0-4.873,3.955-8.828,8.828-8.828h17.655
		c4.873,0,8.828,3.955,8.828,8.828C379.586,481.562,375.631,485.517,370.759,485.517z"/>
	<path style="fill:#BCAA61;" d="M167.724,441.379h-26.483c-4.873,0-8.828-3.955-8.828-8.828s3.955-8.828,8.828-8.828h26.483
		c4.873,0,8.828,3.955,8.828,8.828S172.597,441.379,167.724,441.379z"/>
	<path style="fill:#BCAA61;" d="M370.759,441.379H203.034c-4.873,0-8.828-3.955-8.828-8.828s3.955-8.828,8.828-8.828h167.724
		c4.873,0,8.828,3.955,8.828,8.828S375.631,441.379,370.759,441.379z"/>
</g>
<g>
</g>
<g>
</g>
<g>
</g>
<g>
</g>
<g>
</g>
<g>
</g>
<g>
</g>
<g>
</g>
<g>
</g>
<g>
</g>
<g>
</g>
<g>
</g>
<g>
</g>
<g>
</g>
<g>
</g>
</svg>
