<?xml version="1.0" encoding="UTF-8" standalone="no"?>
<!-- Generator: Adobe Illustrator 19.0.0, SVG Export Plug-In . SVG Version: 6.00 Build 0)  -->

<svg
   xmlns:dc="http://purl.org/dc/elements/1.1/"
   xmlns:cc="http://creativecommons.org/ns#"
   xmlns:rdf="http://www.w3.org/1999/02/22-rdf-syntax-ns#"
   xmlns:svg="http://www.w3.org/2000/svg"
   xmlns="http://www.w3.org/2000/svg"
   xmlns:sodipodi="http://sodipodi.sourceforge.net/DTD/sodipodi-0.dtd"
   xmlns:inkscape="http://www.inkscape.org/namespaces/inkscape"
   version="1.1"
   id="Capa_1"
   x="0px"
   y="0px"
   viewBox="0 0 512 512"
   style="enable-background:new 0 0 512 512;"
   xml:space="preserve"
   sodipodi:docname="drag.svg"
   inkscape:version="0.92.4 (5da689c313, 2019-01-14)"><metadata
   id="metadata47"><rdf:RDF><cc:Work
       rdf:about=""><dc:format>image/svg+xml</dc:format><dc:type
         rdf:resource="http://purl.org/dc/dcmitype/StillImage" /></cc:Work></rdf:RDF></metadata><defs
   id="defs45" /><sodipodi:namedview
   pagecolor="#ffffff"
   bordercolor="#666666"
   borderopacity="1"
   objecttolerance="10"
   gridtolerance="10"
   guidetolerance="10"
   inkscape:pageopacity="0"
   inkscape:pageshadow="2"
   inkscape:window-width="1920"
   inkscape:window-height="1017"
   id="namedview43"
   showgrid="false"
   inkscape:zoom="1.84375"
   inkscape:cx="293.37603"
   inkscape:cy="285.95777"
   inkscape:window-x="1912"
   inkscape:window-y="-8"
   inkscape:window-maximized="1"
   inkscape:current-layer="Capa_1" />
<path
   style="fill:#000000"
   d="M374.255,512h-17.067c-4.71,0-8.533-3.814-8.533-8.533c0-4.719,3.823-8.533,8.533-8.533h17.067  c4.71,0,8.533,3.814,8.533,8.533C382.788,508.186,378.965,512,374.255,512z M323.055,512h-17.067c-4.71,0-8.533-3.814-8.533-8.533  c0-4.719,3.823-8.533,8.533-8.533h17.067c4.71,0,8.533,3.814,8.533,8.533C331.588,508.186,327.765,512,323.055,512z M271.855,512  h-17.067c-4.71,0-8.533-3.814-8.533-8.533c0-4.719,3.823-8.533,8.533-8.533h17.067c4.71,0,8.533,3.814,8.533,8.533  C280.388,508.186,276.565,512,271.855,512z M220.655,512h-17.067c-4.71,0-8.533-3.814-8.533-8.533c0-4.719,3.823-8.533,8.533-8.533  h17.067c4.71,0,8.533,3.814,8.533,8.533C229.188,508.186,225.365,512,220.655,512z M169.455,512h-17.067  c-4.71,0-8.533-3.814-8.533-8.533c0-4.719,3.823-8.533,8.533-8.533h17.067c4.71,0,8.533,3.814,8.533,8.533  C177.988,508.186,174.165,512,169.455,512z M118.255,512h-17.067c-4.71,0-8.533-3.814-8.533-8.533c0-4.719,3.823-8.533,8.533-8.533  h17.067c4.71,0,8.533,3.814,8.533,8.533C126.788,508.186,122.965,512,118.255,512z M67.055,512l-17.246-0.017  c-4.71-0.102-8.457-4.002-8.354-8.713c0.094-4.719,4.267-8.141,8.704-8.354l16.896,0.017c4.71,0,8.533,3.814,8.533,8.533  C75.588,508.186,71.765,512,67.055,512z M19.772,498.185c-2.304,0-4.599-0.922-6.289-2.756c-4.676-5.094-8.218-10.957-10.522-17.434  c-1.579-4.446,0.742-9.318,5.18-10.897c4.446-1.562,9.318,0.742,10.897,5.18c1.527,4.309,3.891,8.209,7.006,11.597  c3.191,3.473,2.961,8.866-0.512,12.058C23.902,497.442,21.828,498.185,19.772,498.185z M8.533,449.835  c-4.71,0-8.533-3.814-8.533-8.533v-17.067c0-4.719,3.823-8.533,8.533-8.533s8.533,3.814,8.533,8.533v17.067  C17.067,446.02,13.244,449.835,8.533,449.835z M8.533,398.635c-4.71,0-8.533-3.814-8.533-8.533v-17.067  c0-4.719,3.823-8.533,8.533-8.533s8.533,3.814,8.533,8.533v17.067C17.067,394.82,13.244,398.635,8.533,398.635z M8.533,347.435  c-4.71,0-8.533-3.814-8.533-8.533v-17.067c0-4.719,3.823-8.533,8.533-8.533s8.533,3.814,8.533,8.533v17.067  C17.067,343.62,13.244,347.435,8.533,347.435z M8.533,296.235c-4.71,0-8.533-3.814-8.533-8.533v-17.067  c0-4.719,3.823-8.533,8.533-8.533s8.533,3.814,8.533,8.533v17.067C17.067,292.42,13.244,296.235,8.533,296.235z M8.533,245.035  c-4.71,0-8.533-3.814-8.533-8.533v-17.067c0-4.719,3.823-8.533,8.533-8.533s8.533,3.814,8.533,8.533v17.067  C17.067,241.22,13.244,245.035,8.533,245.035z M8.533,193.835c-4.71,0-8.533-3.814-8.533-8.533v-17.067  c0-4.719,3.823-8.533,8.533-8.533s8.533,3.814,8.533,8.533v17.067C17.067,190.02,13.244,193.835,8.533,193.835z M8.533,142.635  c-4.71,0-8.533-3.814-8.533-8.533v-17.067c0-4.719,3.823-8.533,8.533-8.533s8.533,3.814,8.533,8.533v17.067  C17.067,138.82,13.244,142.635,8.533,142.635z M8.533,91.435C3.823,91.435,0,87.62,0,82.901V65.835c0-4.719,3.823-8.533,8.533-8.533  s8.533,3.814,8.533,8.533v17.067C17.067,87.62,13.244,91.435,8.533,91.435z M12.894,40.9c-1.263,0-2.551-0.282-3.763-0.879  c-4.233-2.082-5.965-7.202-3.883-11.435c3.038-6.161,7.211-11.571,12.425-16.085c3.558-3.089,8.951-2.688,12.041,0.862  c3.089,3.567,2.705,8.951-0.862,12.041c-3.482,3.004-6.272,6.622-8.294,10.735C19.072,39.151,16.043,40.9,12.894,40.9z   M379.119,17.067h-17.067c-4.71,0-8.533-3.814-8.533-8.533S357.342,0,362.052,0h17.067c4.71,0,8.533,3.814,8.533,8.533  S383.838,17.067,379.119,17.067z M327.919,17.067h-17.067c-4.71,0-8.533-3.814-8.533-8.533S306.142,0,310.852,0h17.067  c4.71,0,8.533,3.814,8.533,8.533S332.638,17.067,327.919,17.067z M276.719,17.067h-17.067c-4.71,0-8.533-3.814-8.533-8.533  S254.942,0,259.652,0h17.067c4.71,0,8.533,3.814,8.533,8.533S281.438,17.067,276.719,17.067z M225.519,17.067h-17.067  c-4.71,0-8.533-3.814-8.533-8.533S203.742,0,208.452,0h17.067c4.71,0,8.533,3.814,8.533,8.533S230.238,17.067,225.519,17.067z   M174.319,17.067h-17.067c-4.71,0-8.533-3.814-8.533-8.533S152.542,0,157.252,0h17.067c4.71,0,8.533,3.814,8.533,8.533  S179.038,17.067,174.319,17.067z M123.119,17.067h-17.067c-4.71,0-8.533-3.814-8.533-8.533S101.342,0,106.052,0h17.067  c4.71,0,8.533,3.814,8.533,8.533S127.838,17.067,123.119,17.067z M71.919,17.067H54.852c-4.71,0-8.533-3.814-8.533-8.533  S50.142,0,54.852,0h17.067c4.71,0,8.533,3.814,8.533,8.533S76.638,17.067,71.919,17.067z"
   id="path2" />
<path
   style="fill:#44aa00"
   d="M512,469.333V42.667C512,19.106,492.894,0,469.333,0H384v512h85.333  C492.894,512,512,492.894,512,469.333z"
   id="path4" />
<g
   id="g10"
   style="fill:#000000">
	<path
   style="fill:#000000"
   d="M 315.733,268.533 H 76.8 c -4.71,0 -8.533,-7.814 -8.533,-12.533 0,-4.719 3.823,-12.533 8.533,-12.533 h 238.933 c 4.71,0 8.533,7.814 8.533,12.533 10e-4,4.719 -3.822,12.533 -8.533,12.533 z"
   id="path6"
   inkscape:connector-curvature="0"
   sodipodi:nodetypes="ssssscs" />
	<path
   style="fill:#000000"
   d="m 251.467,332.8 c -2.185,0 -8.369,-0.836 -10.033,-2.5 -3.337,-3.337 -7.337,-8.73 -4,-12.066 L 299.667,256 237.433,193.766 c -3.337,-3.337 0.663,-8.73 4,-12.066 3.328,-3.337 12.738,-3.337 16.066,0 l 68.267,68.267 c 3.337,3.337 3.337,8.73 0,12.066 L 257.5,330.3 c -1.664,1.664 -3.849,2.5 -6.033,2.5 z"
   id="path8"
   inkscape:connector-curvature="0"
   sodipodi:nodetypes="ssccsccsccs" />
</g>
<g
   id="g12">
</g>
<g
   id="g14">
</g>
<g
   id="g16">
</g>
<g
   id="g18">
</g>
<g
   id="g20">
</g>
<g
   id="g22">
</g>
<g
   id="g24">
</g>
<g
   id="g26">
</g>
<g
   id="g28">
</g>
<g
   id="g30">
</g>
<g
   id="g32">
</g>
<g
   id="g34">
</g>
<g
   id="g36">
</g>
<g
   id="g38">
</g>
<g
   id="g40">
</g>
</svg>