<svg height="511pt" viewBox="0 -29 511.99349 511" width="511pt" xmlns="http://www.w3.org/2000/svg"><g fill="#7383bf"><path d="m338.441406 453.957031h-130.171875c-4.789062 0-8.675781-3.886719-8.675781-8.675781 0-4.792969 3.886719-8.679688 8.675781-8.679688h130.171875c4.789063 0 8.675782 3.886719 8.675782 8.679688 0 4.789062-3.886719 8.675781-8.675782 8.675781zm0 0"/><path d="m121.492188 453.957031h-112.8125c-4.792969 0-8.679688-3.886719-8.679688-8.675781 0-4.792969 3.886719-8.679688 8.679688-8.679688h112.8125c4.789062 0 8.675781 3.886719 8.675781 8.679688 0 4.789062-3.886719 8.675781-8.675781 8.675781zm0 0"/><path d="m173.558594 453.957031h-17.355469c-4.789063 0-8.675781-3.886719-8.675781-8.675781 0-4.792969 3.886718-8.679688 8.675781-8.679688h17.355469c4.789062 0 8.679687 3.886719 8.679687 8.679688 0 4.789062-3.890625 8.675781-8.679687 8.675781zm0 0"/></g><path d="m400.113281 149.308594-141.1875-141.191406c-10.164062-10.160157-26.652343-10.160157-36.8125 0l-147.28125 147.273437c-10.164062 10.164063-10.164062 26.652344 0 36.8125l141.1875 141.191406zm0 0" fill="#366db6"/><path d="m278.625 27.816406-19.699219-19.699218c-10.164062-10.160157-26.652343-10.160157-36.8125 0l-147.28125 147.273437c-10.164062 10.164063-10.164062 26.652344 0 36.8125l19.695313 19.699219zm0 0" fill="#1f436d"/><path d="m357.097656 437.660156 147.273438-147.273437c10.164062-10.164063 10.164062-26.648438 0-36.8125l-122.722656-122.730469-184.085938 184.082031 122.722656 122.726563c10.171875 10.167968 26.652344 10.167968 36.8125.007812zm0 0" fill="#cb465f"/><path d="m463.402344 212.597656-26.960938 26.960938c-3.394531 3.394531-3.394531 8.878906 0 12.273437 1.691406 1.691407 3.914063 2.539063 6.136719 2.539063 2.21875 0 4.441406-.847656 6.132813-2.539063l26.964843-26.964843zm0 0" fill="#6b1e31"/><path d="m131.046875 248.410156 92.039063-92.046875c3.390624-3.390625 3.390624-8.878906 0-12.269531-3.394532-3.394531-8.878907-3.394531-12.273438 0l-92.039062 92.046875zm0 0" fill="#1f436d"/></svg>