<?xml version="1.0" encoding="iso-8859-1"?>
<!-- Generator: Adobe Illustrator 19.0.0, SVG Export Plug-In . SVG Version: 6.00 Build 0)  -->
<svg version="1.1" id="Capa_1" xmlns="http://www.w3.org/2000/svg" xmlns:xlink="http://www.w3.org/1999/xlink" x="0px" y="0px"
	 viewBox="0 0 511.986 511.986" style="enable-background:new 0 0 511.986 511.986;" xml:space="preserve">
<rect x="37.25" y="397.332" transform="matrix(-0.7071 -0.7071 0.7071 -0.7071 -229.8922 819.2823)" style="fill:#E7ECED;" width="34.966" height="119.842"/>
<path style="fill:#929BA0;" d="M101.916,440.845l-30.782-30.782c-5.155-5.155-5.155-13.515,0-18.67l36.537-36.537l49.452,49.452
	l-36.537,36.537C115.431,446.001,107.072,446.001,101.916,440.845z"/>
<path style="fill:#E7ECED;" d="M506.855,141.087L370.893,5.124c-6.833-6.833-17.92-6.833-24.753,0L224.178,127.086l61.811,61.82
	l37.094,37.094l61.811,61.82l121.962-121.962C513.697,159.007,513.697,147.928,506.855,141.087z"/>
<g>
	<path style="fill:#AFB6BB;" d="M333.79,215.283l-43.273,43.273c-10.24,10.24-26.845,10.24-37.094,0
		c-10.24-10.24-10.24-26.845,0-37.094l43.273-43.273l-74.178-74.178L117.435,209.103l-43.273,129.81l98.904,98.904l129.81-43.273
		L407.96,289.461L333.79,215.283z"/>
	
		<rect x="359.577" y="25.761" transform="matrix(-0.7071 -0.7071 0.7071 -0.7071 600.7406 370.2881)" style="fill:#AFB6BB;" width="34.966" height="69.931"/>
</g>
<rect x="384.32" y="50.497" transform="matrix(-0.7071 -0.7071 0.7071 -0.7071 625.4895 430.0123)" style="fill:#6C797A;" width="34.966" height="69.931"/>
<rect x="409.047" y="75.244" transform="matrix(-0.7071 -0.7071 0.7071 -0.7071 650.2031 489.7416)" style="fill:#AFB6BB;" width="34.966" height="69.931"/>
<g>
	
		<rect x="433.767" y="99.965" transform="matrix(-0.7071 -0.7071 0.7071 -0.7071 674.9218 549.4232)" style="fill:#6C797A;" width="34.966" height="69.931"/>
	<path style="fill:#6C797A;" d="M253.424,258.556L253.424,258.556c-10.24-10.24-10.24-26.845,0-37.094l80.358-80.358l37.094,37.094
		l-80.358,80.357C280.278,268.796,263.673,268.796,253.424,258.556z"/>
</g>
<g>
	<path style="fill:#929BA0;" d="M228.698,391.014c-2.26,0-4.52-0.865-6.241-2.586l-98.904-98.904c-3.452-3.452-3.452-9.031,0-12.482
		c3.443-3.452,9.039-3.452,12.482,0l98.904,98.904c3.452,3.452,3.452,9.031,0,12.482
		C233.218,390.148,230.958,391.014,228.698,391.014z"/>
	<path style="fill:#929BA0;" d="M179.246,391.014c-2.26,0-4.52-0.865-6.241-2.586l-49.452-49.452c-3.452-3.452-3.452-9.031,0-12.482
		c3.443-3.452,9.039-3.452,12.482,0l49.452,49.452c3.452,3.452,3.452,9.031,0,12.482
		C183.766,390.148,181.506,391.014,179.246,391.014z"/>
	<path style="fill:#929BA0;" d="M284.391,363.577c-3.452-3.452-9.031-3.452-12.482,0s-3.452,9.031,0,12.482l21.61,21.61l9.366-3.125
		l6.241-6.241L284.391,363.577z"/>
	<path style="fill:#929BA0;" d="M247.183,351.334c1.721,1.721,3.981,2.586,6.241,2.586c2.26,0,4.52-0.865,6.241-2.586
		c3.452-3.452,3.452-9.031,0-12.482L123.676,202.862l-6.241,6.241l-3.125,9.366L247.183,351.334z"/>
</g>
<g>
</g>
<g>
</g>
<g>
</g>
<g>
</g>
<g>
</g>
<g>
</g>
<g>
</g>
<g>
</g>
<g>
</g>
<g>
</g>
<g>
</g>
<g>
</g>
<g>
</g>
<g>
</g>
<g>
</g>
</svg>
