<svg height="512pt" viewBox="-79 0 512 512" width="512pt" xmlns="http://www.w3.org/2000/svg"><path d="m353.101562 485.515625h-353.101562v-485.515625h273.65625l79.445312 79.449219zm0 0" fill="#e3e4d8"/><path d="m273.65625 0v79.449219h79.445312zm0 0" fill="#d0cebd"/><path d="m0 353.101562h353.101562v158.898438h-353.101562zm0 0" fill="#baafa9"/><g fill="#fff"><path d="m105.929688 432.550781c0 14.628907-11.855469 26.484375-26.480469 26.484375-14.628907 0-26.484375-11.855468-26.484375-26.484375 0-14.625 11.855468-26.480469 26.484375-26.480469 14.625 0 26.480469 11.855469 26.480469 26.480469zm0 0"/><path d="m300.136719 432.550781c0 14.628907-11.855469 26.484375-26.480469 26.484375-14.628906 0-26.484375-11.855468-26.484375-26.484375 0-14.625 11.855469-26.480469 26.484375-26.480469 14.625 0 26.480469 11.855469 26.480469 26.480469zm0 0"/><path d="m203.035156 432.550781c0 14.628907-11.855468 26.484375-26.484375 26.484375-14.625 0-26.480469-11.855468-26.480469-26.484375 0-14.625 11.855469-26.480469 26.480469-26.480469 14.628907 0 26.484375 11.855469 26.484375 26.480469zm0 0"/></g></svg>