<svg height="512pt" viewBox="-79 0 512 512" width="512pt" xmlns="http://www.w3.org/2000/svg"><path d="m353.101562 485.515625h-353.101562v-485.515625h273.65625l79.445312 79.449219zm0 0" fill="#e3e4d8"/><path d="m273.65625 0v79.449219h79.445312zm0 0" fill="#d0cebd"/><path d="m0 353.101562h353.101562v158.898438h-353.101562zm0 0" fill="#83629a"/><g fill="#fff"><path d="m52.957031 485.515625c-1.546875 0-3.117187-.40625-4.527343-1.261719-4.1875-2.507812-5.535157-7.925781-3.03125-12.109375l52.96875-88.277343c2.503906-4.175782 7.925781-5.527344 12.109374-3.027344 4.183594 2.507812 5.535157 7.925781 3.027344 12.113281l-52.964844 88.273437c-1.660156 2.761719-4.582031 4.289063-7.582031 4.289063zm0 0"/><path d="m105.941406 485.515625c-3.003906 0-5.925781-1.527344-7.574218-4.28125l-52.96875-88.273437c-2.503907-4.183594-1.15625-9.605469 3.03125-12.113282 4.175781-2.507812 9.601562-1.148437 12.109374 3.027344l52.964844 88.277344c2.507813 4.183594 1.15625 9.605468-3.027344 12.113281-1.421874.84375-2.992187 1.25-4.535156 1.25zm0 0"/><path d="m300.136719 485.515625h-52.964844c-4.871094 0-8.828125-3.953125-8.828125-8.824219 0-4.875 3.957031-8.828125 8.828125-8.828125h52.964844c4.875 0 8.828125 3.953125 8.828125 8.828125 0 4.871094-3.953125 8.824219-8.828125 8.824219zm0 0"/><path d="m247.171875 485.515625c-4.871094 0-8.828125-3.953125-8.828125-8.824219v-88.277344c0-4.875 3.957031-8.828124 8.828125-8.828124 4.875 0 8.828125 3.953124 8.828125 8.828124v88.277344c0 4.871094-3.953125 8.824219-8.828125 8.824219zm0 0"/><path d="m211.863281 485.515625c-4.875 0-8.828125-3.953125-8.828125-8.824219v-55.03125l-18.820312 32.925782c-3.144532 5.5-12.183594 5.5-15.324219 0l-18.820313-32.925782v55.03125c0 4.871094-3.957031 8.824219-8.828124 8.824219-4.875 0-8.828126-3.953125-8.828126-8.824219v-88.277344c0-4.007812 2.691407-7.503906 6.558594-8.527343 3.859375-1.050781 7.945313.679687 9.929688 4.148437l27.648437 48.375 27.648438-48.375c1.988281-3.476562 6.066406-5.199218 9.929687-4.148437 3.867188 1.023437 6.5625 4.519531 6.5625 8.527343v88.277344c0 4.871094-3.957031 8.824219-8.828125 8.824219zm0 0"/></g><path d="m105.929688 273.65625c-2.523438 0-5.039063-1.085938-6.785157-3.179688l-44.140625-52.964843c-2.726562-3.273438-2.726562-8.03125 0-11.300781l44.140625-52.964844c3.125-3.742188 8.683594-4.246094 12.425781-1.128906 3.746094 3.125 4.257813 8.6875 1.132813 12.429687l-39.417969 47.316406 39.433594 47.316407c3.125 3.742187 2.613281 9.3125-1.128906 12.425781-1.660156 1.378906-3.664063 2.050781-5.660156 2.050781zm0 0" fill="#83629a"/><path d="m247.171875 273.65625c-1.996094 0-4-.671875-5.648437-2.050781-3.742188-3.125-4.253907-8.683594-1.128907-12.425781l39.421875-47.316407-39.433594-47.316406c-3.125-3.742187-2.613281-9.3125 1.132813-12.429687 3.742187-3.117188 9.3125-2.613282 12.425781 1.128906l44.140625 52.964844c2.726563 3.277343 2.726563 8.035156 0 11.300781l-44.140625 52.964843c-1.726562 2.09375-4.246094 3.179688-6.769531 3.179688zm0 0" fill="#83629a"/><path d="m150.058594 273.65625c-1.324219 0-2.671875-.300781-3.945313-.929688-4.359375-2.179687-6.125-7.484374-3.945312-11.84375l52.964843-105.933593c2.179688-4.367188 7.488282-6.125 11.847657-3.945313 4.359375 2.179688 6.125 7.488282 3.945312 11.847656l-52.964843 105.929688c-1.546876 3.089844-4.660157 4.875-7.902344 4.875zm0 0" fill="#83629a"/></svg>