<svg enable-background="new 0 0 58 58" height="512" viewBox="0 0 58 58" width="512" xmlns="http://www.w3.org/2000/svg"><path d="m33 23h-27.97v-22c0-.552.448-1 1-1h20l6.97 7z" fill="#e7eced"/><path d="m26 0v7h7z" fill="#afb6bb"/><path d="m29 13h-13c-.552 0-1-.447-1-1s.448-1 1-1h13c.552 0 1 .447 1 1s-.448 1-1 1z" fill="#61b872"/><path d="m11 13h-2c-.552 0-1-.447-1-1s.448-1 1-1h2c.552 0 1 .447 1 1s-.448 1-1 1z" fill="#dd352e"/><path d="m22 18h-13c-.552 0-1-.447-1-1s.448-1 1-1h13c.552 0 1 .447 1 1s-.448 1-1 1z" fill="#366db6"/><path d="m29 18h-2c-.552 0-1-.447-1-1s.448-1 1-1h2c.552 0 1 .447 1 1s-.448 1-1 1z" fill="#75348b"/><path d="m2.702 58h52.596c1.492 0 2.702-1.21 2.702-2.702v-27.298h-58v27.298c0 1.492 1.21 2.702 2.702 2.702z" fill="#ebba16"/><path d="m0 30h58v-11c0-.552-.448-1-1-1h-14.697c-.197 0-.39.058-.555.168l-5.496 3.664c-.164.11-.357.168-.555.168h-34.697c-.552 0-1 .448-1 1z" fill="#cc9e1b"/><g fill="#b2871b"><path d="m54 27h-24c-.552 0-1-.447-1-1s.448-1 1-1h24c.552 0 1 .447 1 1s-.448 1-1 1z"/><path d="m26 27h-13c-.552 0-1-.447-1-1s.448-1 1-1h13c.552 0 1 .447 1 1s-.448 1-1 1z"/><path d="m9 27h-5c-.552 0-1-.447-1-1s.448-1 1-1h5c.552 0 1 .447 1 1s-.448 1-1 1z"/></g><path d="m49 53h-4c-.552 0-1-.447-1-1v-6h-2v6c0 .553-.448 1-1 1h-4c-.552 0-1-.447-1-1v-10c0-.266.105-.52.293-.707l6-6c.39-.391 1.024-.391 1.414 0l6 6c.188.187.293.441.293.707v10c0 .553-.448 1-1 1zm-3-2h2v-8.586l-5-5-5 5v8.586h2v-6c0-.553.448-1 1-1h4c.552 0 1 .447 1 1z" fill="#fff"/><path d="m34 46c-.256 0-.512-.098-.707-.293-.391-.391-.391-1.023 0-1.414l3-3c.39-.391 1.024-.391 1.414 0 .391.391.391 1.023 0 1.414l-3 3c-.195.195-.451.293-.707.293z" fill="#fff"/><path d="m52 46c-.256 0-.512-.098-.707-.293l-3-3c-.391-.391-.391-1.023 0-1.414.39-.391 1.024-.391 1.414 0l3 3c.391.391.391 1.023 0 1.414-.195.195-.451.293-.707.293z" fill="#fff"/></svg>