<svg height="512pt" viewBox="-79 0 512 512" width="512pt" xmlns="http://www.w3.org/2000/svg"><path d="m353.101562 485.515625h-353.101562v-485.515625h273.65625l79.445312 79.449219zm0 0" fill="#e3e4d8"/><path d="m273.65625 0v79.449219h79.445312zm0 0" fill="#d0cebd"/><path d="m0 353.101562h353.101562v158.898438h-353.101562zm0 0" fill="#2f9171"/><g fill="#a09893"><path d="m114.757812 167.722656h-61.792968c-4.871094 0-8.828125-3.953125-8.828125-8.824218v-35.3125c0-4.871094 3.957031-8.828126 8.828125-8.828126h61.792968c4.875 0 8.828126 3.957032 8.828126 8.828126v35.3125c0 4.871093-3.953126 8.824218-8.828126 8.824218zm-52.964843-17.652344h44.136719v-17.65625h-44.136719zm0 0"/><path d="m176.550781 167.722656h-61.792969c-4.871093 0-8.828124-3.953125-8.828124-8.824218v-35.3125c0-4.871094 3.957031-8.828126 8.828124-8.828126h61.792969c4.875 0 8.828125 3.957032 8.828125 8.828126v35.3125c0 4.871093-3.953125 8.824218-8.828125 8.824218zm-52.964843-17.652344h44.136718v-17.65625h-44.136718zm0 0"/><path d="m238.34375 167.722656h-61.792969c-4.871093 0-8.828125-3.953125-8.828125-8.824218v-35.3125c0-4.871094 3.957032-8.828126 8.828125-8.828126h61.792969c4.875 0 8.828125 3.957032 8.828125 8.828126v35.3125c0 4.871093-3.953125 8.824218-8.828125 8.824218zm-52.964844-17.652344h44.136719v-17.65625h-44.136719zm0 0"/><path d="m300.136719 167.722656h-61.792969c-4.871094 0-8.828125-3.953125-8.828125-8.824218v-35.3125c0-4.871094 3.957031-8.828126 8.828125-8.828126h61.792969c4.875 0 8.828125 3.957032 8.828125 8.828126v35.3125c0 4.871093-3.953125 8.824218-8.828125 8.824218zm-52.964844-17.652344h44.136719v-17.65625h-44.136719zm0 0"/><path d="m114.757812 203.035156h-61.792968c-4.871094 0-8.828125-3.957031-8.828125-8.828125v-35.308593c0-4.875 3.957031-8.828126 8.828125-8.828126h61.792968c4.875 0 8.828126 3.953126 8.828126 8.828126v35.308593c0 4.871094-3.953126 8.828125-8.828126 8.828125zm-52.964843-17.65625h44.136719v-17.65625h-44.136719zm0 0"/><path d="m176.550781 203.035156h-61.792969c-4.871093 0-8.828124-3.957031-8.828124-8.828125v-35.308593c0-4.875 3.957031-8.828126 8.828124-8.828126h61.792969c4.875 0 8.828125 3.953126 8.828125 8.828126v35.308593c0 4.871094-3.953125 8.828125-8.828125 8.828125zm-52.964843-17.65625h44.136718v-17.65625h-44.136718zm0 0"/><path d="m238.34375 203.035156h-61.792969c-4.871093 0-8.828125-3.957031-8.828125-8.828125v-35.308593c0-4.875 3.957032-8.828126 8.828125-8.828126h61.792969c4.875 0 8.828125 3.953126 8.828125 8.828126v35.308593c0 4.871094-3.953125 8.828125-8.828125 8.828125zm-52.964844-17.65625h44.136719v-17.65625h-44.136719zm0 0"/><path d="m300.136719 203.035156h-61.792969c-4.871094 0-8.828125-3.957031-8.828125-8.828125v-35.308593c0-4.875 3.957031-8.828126 8.828125-8.828126h61.792969c4.875 0 8.828125 3.953126 8.828125 8.828126v35.308593c0 4.871094-3.953125 8.828125-8.828125 8.828125zm-52.964844-17.65625h44.136719v-17.65625h-44.136719zm0 0"/><path d="m114.757812 238.34375h-61.792968c-4.871094 0-8.828125-3.953125-8.828125-8.828125v-35.308594c0-4.871093 3.957031-8.828125 8.828125-8.828125h61.792968c4.875 0 8.828126 3.957032 8.828126 8.828125v35.308594c0 4.875-3.953126 8.828125-8.828126 8.828125zm-52.964843-17.652344h44.136719v-17.65625h-44.136719zm0 0"/><path d="m176.550781 238.34375h-61.792969c-4.871093 0-8.828124-3.953125-8.828124-8.828125v-35.308594c0-4.871093 3.957031-8.828125 8.828124-8.828125h61.792969c4.875 0 8.828125 3.957032 8.828125 8.828125v35.308594c0 4.875-3.953125 8.828125-8.828125 8.828125zm-52.964843-17.652344h44.136718v-17.65625h-44.136718zm0 0"/><path d="m238.34375 238.34375h-61.792969c-4.871093 0-8.828125-3.953125-8.828125-8.828125v-35.308594c0-4.871093 3.957032-8.828125 8.828125-8.828125h61.792969c4.875 0 8.828125 3.957032 8.828125 8.828125v35.308594c0 4.875-3.953125 8.828125-8.828125 8.828125zm-52.964844-17.652344h44.136719v-17.65625h-44.136719zm0 0"/><path d="m300.136719 238.34375h-61.792969c-4.871094 0-8.828125-3.953125-8.828125-8.828125v-35.308594c0-4.871093 3.957031-8.828125 8.828125-8.828125h61.792969c4.875 0 8.828125 3.957032 8.828125 8.828125v35.308594c0 4.875-3.953125 8.828125-8.828125 8.828125zm-52.964844-17.652344h44.136719v-17.65625h-44.136719zm0 0"/><path d="m114.757812 273.65625h-61.792968c-4.871094 0-8.828125-3.957031-8.828125-8.828125v-35.3125c0-4.871094 3.957031-8.824219 8.828125-8.824219h61.792968c4.875 0 8.828126 3.953125 8.828126 8.824219v35.3125c0 4.871094-3.953126 8.828125-8.828126 8.828125zm-52.964843-17.65625h44.136719v-17.65625h-44.136719zm0 0"/><path d="m176.550781 273.65625h-61.792969c-4.871093 0-8.828124-3.957031-8.828124-8.828125v-35.3125c0-4.871094 3.957031-8.824219 8.828124-8.824219h61.792969c4.875 0 8.828125 3.953125 8.828125 8.824219v35.3125c0 4.871094-3.953125 8.828125-8.828125 8.828125zm-52.964843-17.65625h44.136718v-17.65625h-44.136718zm0 0"/><path d="m238.34375 273.65625h-61.792969c-4.871093 0-8.828125-3.957031-8.828125-8.828125v-35.3125c0-4.871094 3.957032-8.824219 8.828125-8.824219h61.792969c4.875 0 8.828125 3.953125 8.828125 8.824219v35.3125c0 4.871094-3.953125 8.828125-8.828125 8.828125zm-52.964844-17.65625h44.136719v-17.65625h-44.136719zm0 0"/><path d="m300.136719 273.65625h-61.792969c-4.871094 0-8.828125-3.957031-8.828125-8.828125v-35.3125c0-4.871094 3.957031-8.824219 8.828125-8.824219h61.792969c4.875 0 8.828125 3.953125 8.828125 8.824219v35.3125c0 4.871094-3.953125 8.828125-8.828125 8.828125zm-52.964844-17.65625h44.136719v-17.65625h-44.136719zm0 0"/><path d="m114.757812 308.964844h-61.792968c-4.871094 0-8.828125-3.953125-8.828125-8.828125v-35.308594c0-4.875 3.957031-8.828125 8.828125-8.828125h61.792968c4.875 0 8.828126 3.953125 8.828126 8.828125v35.308594c0 4.875-3.953126 8.828125-8.828126 8.828125zm-52.964843-17.65625h44.136719v-17.652344h-44.136719zm0 0"/><path d="m176.550781 308.964844h-61.792969c-4.871093 0-8.828124-3.953125-8.828124-8.828125v-35.308594c0-4.875 3.957031-8.828125 8.828124-8.828125h61.792969c4.875 0 8.828125 3.953125 8.828125 8.828125v35.308594c0 4.875-3.953125 8.828125-8.828125 8.828125zm-52.964843-17.65625h44.136718v-17.652344h-44.136718zm0 0"/><path d="m238.34375 308.964844h-61.792969c-4.871093 0-8.828125-3.953125-8.828125-8.828125v-35.308594c0-4.875 3.957032-8.828125 8.828125-8.828125h61.792969c4.875 0 8.828125 3.953125 8.828125 8.828125v35.308594c0 4.875-3.953125 8.828125-8.828125 8.828125zm-52.964844-17.65625h44.136719v-17.652344h-44.136719zm0 0"/><path d="m300.136719 308.964844h-61.792969c-4.871094 0-8.828125-3.953125-8.828125-8.828125v-35.308594c0-4.875 3.957031-8.828125 8.828125-8.828125h61.792969c4.875 0 8.828125 3.953125 8.828125 8.828125v35.308594c0 4.875-3.953125 8.828125-8.828125 8.828125zm-52.964844-17.65625h44.136719v-17.652344h-44.136719zm0 0"/></g><path d="m105.929688 485.515625h-35.230469c-14.644531 0-26.5625-11.914063-26.5625-26.5625v-52.804687c0-14.644532 11.917969-26.5625 26.5625-26.5625h35.230469c4.875 0 8.828124 3.953124 8.828124 8.828124 0 4.871094-3.953124 8.828126-8.828124 8.828126h-35.230469c-4.917969 0-8.90625 4-8.90625 8.90625v52.804687c0 4.910156 3.988281 8.910156 8.90625 8.910156h35.230469c4.875 0 8.828124 3.953125 8.828124 8.828125 0 4.871094-3.953124 8.824219-8.828124 8.824219zm0 0" fill="#fff"/><path d="m172.136719 485.515625h-30.894531c-4.875 0-8.828126-3.953125-8.828126-8.824219 0-4.875 3.953126-8.828125 8.828126-8.828125h30.894531c7.300781 0 13.242187-5.941406 13.242187-13.242187 0-7.300782-5.941406-13.242188-13.242187-13.242188h-8.828125c-17.035156 0-30.894532-13.859375-30.894532-30.894531 0-17.039063 13.859376-30.898437 30.894532-30.898437h30.898437c4.871094 0 8.828125 3.953124 8.828125 8.828124 0 4.871094-3.957031 8.828126-8.828125 8.828126h-30.898437c-7.296875 0-13.238282 5.941406-13.238282 13.242187 0 7.296875 5.941407 13.238281 13.238282 13.238281h8.828125c17.039062 0 30.898437 13.859375 30.898437 30.898438 0 17.035156-13.859375 30.894531-30.898437 30.894531zm0 0" fill="#fff"/><path d="m264.828125 485.515625c-3.609375 0-6.851563-2.195313-8.203125-5.542969l-35.308594-88.273437c-1.808594-4.53125.386719-9.667969 4.917969-11.476563 4.535156-1.800781 9.664063.394532 11.476563 4.917969l27.117187 67.785156 27.109375-67.785156c1.816406-4.523437 6.9375-6.738281 11.476562-4.917969 4.527344 1.816406 6.726563 6.945313 4.914063 11.476563l-35.308594 88.273437c-1.339843 3.347656-4.582031 5.542969-8.191406 5.542969zm0 0" fill="#fff"/></svg>