<svg height="512pt" viewBox="-79 0 512 512" width="512pt" xmlns="http://www.w3.org/2000/svg"><path d="m353.101562 485.515625h-353.101562v-485.515625h273.65625l79.445312 79.449219zm0 0" fill="#e3e4d8"/><path d="m61.792969 114.757812h229.515625v194.207032h-229.515625zm0 0" fill="#fff"/><path d="m273.65625 0v79.449219h79.445312zm0 0" fill="#d0cebd"/><path d="m0 353.101562h353.101562v158.898438h-353.101562zm0 0" fill="#598e1f"/><path d="m214.386719 203.035156-53.414063 56.082032-22.257812-20.773438-76.921875 70.621094h229.515625v-26.480469zm0 0" fill="#7db73d"/><path d="m141.242188 172.136719c0 12.191406-9.882813 22.070312-22.070313 22.070312s-22.070313-9.878906-22.070313-22.070312c0-12.1875 9.882813-22.066407 22.070313-22.066407s22.070313 9.878907 22.070313 22.066407zm0 0" fill="#eacd3b"/><g fill="#fff"><path d="m52.964844 485.515625c-4.871094 0-8.828125-3.953125-8.828125-8.824219v-88.277344c0-4.875 3.957031-8.828124 8.828125-8.828124 4.875 0 8.828125 3.953124 8.828125 8.828124v88.277344c0 4.871094-3.953125 8.824219-8.828125 8.824219zm0 0"/><path d="m79.449219 450.207031h-26.484375c-4.871094 0-8.828125-3.953125-8.828125-8.828125v-52.964844c0-4.875 3.957031-8.828124 8.828125-8.828124h26.484375c19.472656 0 35.308593 15.835937 35.308593 35.3125 0 19.472656-15.835937 35.308593-35.308593 35.308593zm-17.65625-17.65625h17.65625c9.734375 0 17.652343-7.917969 17.652343-17.652343 0-9.738282-7.917968-17.65625-17.652343-17.65625h-17.65625zm0 0"/><path d="m203.035156 485.515625c-3.046875 0-5.949218-1.578125-7.566406-4.28125l-36.570312-60.953125v56.410156c0 4.871094-3.957032 8.824219-8.828126 8.824219-4.875 0-8.828124-3.953125-8.828124-8.824219v-88.277344c0-3.972656 2.648437-7.449218 6.46875-8.511718 3.832031-1.046875 7.882812.566406 9.921874 3.964844l36.574219 60.953124v-56.40625c0-4.875 3.953125-8.828124 8.828125-8.828124 4.871094 0 8.828125 3.953124 8.828125 8.828124v88.277344c0 3.96875-2.648437 7.449219-6.472656 8.507813-.785156.210937-1.570313.316406-2.355469.316406zm0 0"/><path d="m282.449219 485.515625h-17.550781c-14.636719 0-26.554688-11.914063-26.554688-26.5625v-52.804687c0-14.644532 11.917969-26.5625 26.5625-26.5625h35.230469c4.875 0 8.828125 3.953124 8.828125 8.828124 0 4.871094-3.953125 8.828126-8.828125 8.828126h-35.230469c-4.917969 0-8.90625 4-8.90625 8.90625v52.804687c0 4.910156 3.988281 8.910156 8.90625 8.910156h17.550781c4.882813 0 8.851563-3.972656 8.851563-8.855469v-26.457031c0-4.871093 3.957031-8.828125 8.828125-8.828125 4.875 0 8.828125 3.957032 8.828125 8.828125v26.457031c0 14.617188-11.890625 26.507813-26.515625 26.507813zm0 0"/><path d="m300.136719 441.378906h-17.652344c-4.875 0-8.828125-3.953125-8.828125-8.828125 0-4.871093 3.953125-8.828125 8.828125-8.828125h17.652344c4.875 0 8.828125 3.957032 8.828125 8.828125 0 4.875-3.953125 8.828125-8.828125 8.828125zm0 0"/></g></svg>