<?xml version="1.0" encoding="iso-8859-1"?>
<!-- Generator: Adobe Illustrator 19.0.0, SVG Export Plug-In . SVG Version: 6.00 Build 0)  -->
<svg version="1.1" id="Capa_1" xmlns="http://www.w3.org/2000/svg" xmlns:xlink="http://www.w3.org/1999/xlink" x="0px" y="0px"
	 viewBox="0 0 512 512" style="enable-background:new 0 0 512 512;" xml:space="preserve">
<polygon style="fill:#D7AB1C;" points="300.138,423.724 211.862,512 211.862,335.448 300.138,335.448 "/>
<polygon style="fill:#F0C419;" points="300.138,353.103 211.862,353.103 35.31,141.241 476.69,141.241 "/>
<g>
	<path style="fill:#FFDC79;" d="M154.024,237.365c-2.534,0-5.041-1.077-6.788-3.169L103.91,182.21
		c-3.125-3.752-2.613-9.313,1.13-12.438s9.313-2.622,12.429,1.13l43.326,51.986c3.125,3.752,2.613,9.322-1.13,12.438
		C158.023,236.685,156.019,237.365,154.024,237.365z"/>
	<path style="fill:#FFDC79;" d="M228.405,326.621c-2.534,0-5.041-1.077-6.788-3.169l-32.274-38.727
		c-3.125-3.752-2.613-9.322,1.13-12.438s9.313-2.622,12.429,1.13l32.274,38.727c3.125,3.752,2.613,9.313-1.13,12.438
		C232.404,325.95,230.4,326.621,228.405,326.621z"/>
</g>
<g>
	<rect x="79.448" y="88.276" style="fill:#927BAA;" width="70.621" height="52.966"/>
	<rect x="211.862" y="88.276" style="fill:#927BAA;" width="114.759" height="52.966"/>
</g>
<rect x="326.621" y="88.276" style="fill:#B49ACA;" width="105.931" height="52.966"/>
<rect x="273.655" y="35.31" style="fill:#D2C1E3;" width="105.931" height="52.966"/>
<g>
	<rect x="141.241" y="52.966" style="fill:#B49ACA;" width="88.276" height="35.31"/>
	<rect x="291.31" style="fill:#B49ACA;" width="70.621" height="35.31"/>
</g>
<g>
	<polygon style="fill:#D2C1E3;" points="141.241,88.276 141.241,52.966 194.207,52.966 194.207,17.655 105.931,17.655 
		105.931,88.276 	"/>
	<rect x="150.069" y="88.276" style="fill:#D2C1E3;" width="61.793" height="52.966"/>
</g>
<g>
</g>
<g>
</g>
<g>
</g>
<g>
</g>
<g>
</g>
<g>
</g>
<g>
</g>
<g>
</g>
<g>
</g>
<g>
</g>
<g>
</g>
<g>
</g>
<g>
</g>
<g>
</g>
<g>
</g>
</svg>
