<?xml version="1.0" encoding="iso-8859-1"?>
<!-- Generator: Adobe Illustrator 19.0.0, SVG Export Plug-In . SVG Version: 6.00 Build 0)  -->
<svg version="1.1" id="Capa_1" xmlns="http://www.w3.org/2000/svg" xmlns:xlink="http://www.w3.org/1999/xlink" x="0px" y="0px"
	 viewBox="0 0 512 512" style="enable-background:new 0 0 512 512;" xml:space="preserve">
<g>
	<path style="fill:#E7ECED;" d="M256,50.688c5.91,0,11.672,0.564,17.356,1.38V0h-34.712v52.068
		C244.328,51.252,250.09,50.688,256,50.688z"/>
	<path style="fill:#E7ECED;" d="M273.356,347.119v-86.78c-5.684,0.816-11.446,1.38-17.356,1.38s-11.672-0.564-17.356-1.38v86.78
		H273.356z"/>
	<rect x="238.644" y="381.831" style="fill:#E7ECED;" width="34.712" height="95.458"/>
</g>
<path style="fill:#AFB6BB;" d="M351.458,503.322H160.542l0,0c0-19.17,15.542-34.712,34.712-34.712h121.492
	C335.915,468.61,351.458,484.152,351.458,503.322L351.458,503.322z"/>
<path style="fill:#7383BF;" d="M394.847,512H117.153c-4.79,0-8.678-3.888-8.678-8.678s3.888-8.678,8.678-8.678h277.695
	c4.79,0,8.678,3.888,8.678,8.678S399.638,512,394.847,512z"/>
<circle style="fill:#DD352E;" cx="256" cy="156.203" r="121.492"/>
<circle style="fill:#FFFFFF;" cx="256" cy="156.203" r="86.78"/>
<rect x="203.932" y="138.847" style="fill:#DD352E;" width="104.136" height="34.712"/>
<rect x="169.22" y="338.441" style="fill:#1081E0;" width="173.559" height="52.068"/>
<g>
</g>
<g>
</g>
<g>
</g>
<g>
</g>
<g>
</g>
<g>
</g>
<g>
</g>
<g>
</g>
<g>
</g>
<g>
</g>
<g>
</g>
<g>
</g>
<g>
</g>
<g>
</g>
<g>
</g>
</svg>
