<?xml version="1.0" encoding="iso-8859-1"?>
<!-- Generator: Adobe Illustrator 22.0.0, SVG Export Plug-In . SVG Version: 6.00 Build 0)  -->
<svg xmlns="http://www.w3.org/2000/svg" xmlns:xlink="http://www.w3.org/1999/xlink" version="1.1" id="Layer_1" x="0px" y="0px" viewBox="0 0 58 44" style="enable-background:new 0 0 58 44;" xml:space="preserve" width="512" height="512">
<g id="_x33_-Picture">
	<path style="fill:#E7ECED;" d="M52.305,0H5.695C2.55,0,0,2.55,0,5.695v27.263c0.843-0.039,1.656,0.469,1.539,1.542   c-0.38,3.491,0.014,7.005,3.785,7.993c2.669,0.7,5.57,0.784,8.277,0.421c4.488-0.602,8.734-0.791,13.279-0.708   c5.253,0.097,10.515,0.24,15.765-0.052c4.559-0.254,9.148-1.624,13.688-1.526c0.416,0.009,0.745,0.148,0.995,0.359   C57.756,40.188,58,39.275,58,38.305V5.695C58,2.55,55.45,0,52.305,0z"/>
	<path style="fill:#23A24D;" d="M17,13L0,32.125v6.18C0,41.45,2.55,44,5.695,44H33l4-8.5L17,13z"/>
	<circle style="fill:#EBBA16;" cx="38" cy="15" r="5"/>
	<path style="fill:#167C35;" d="M45,26.5L29.444,44h22.861c2.333,0,4.336-1.405,5.216-3.414L45,26.5z"/>
</g>

</svg>
