<svg enable-background="new 0 0 46 58" height="512" viewBox="0 0 46 58" width="512" xmlns="http://www.w3.org/2000/svg"><path d="m41.996 58h-37.992c-2.212 0-4.004-1.792-4.004-4.004v-49.992c0-2.212 1.792-4.004 4.004-4.004h37.993c2.211 0 4.003 1.792 4.003 4.004v49.993c0 2.211-1.792 4.003-4.004 4.003z" fill="#405163"/><path d="m23 5c-10.493 0-19 8.507-19 19 0 6.901 3.691 12.924 9.195 16.252l5.515 2.243c1.381.32 2.812.505 4.29.505 10.493 0 19-8.507 19-19s-8.507-19-19-19z" fill="#e7eced"/><circle cx="23" cy="24" fill="#afb6bb" r="8"/><circle cx="23" cy="24" fill="#fff" r="3"/><path d="m13.2 49c-2.32 0-4.2-1.88-4.2-4.2 0-1.696 1.019-3.225 2.585-3.877l9.415-3.923-3.923 9.415c-.652 1.566-2.181 2.585-3.877 2.585z" fill="#afb6bb"/><path d="m14 53c-4.975 0-9-4.025-9-9 0 0-2.959 0-5 0v9.996c0 2.212 1.792 4.004 4.003 4.004h9.997 5v-5z" fill="#637687"/></svg>