<svg enable-background="new 0 0 58 58" height="512" viewBox="0 0 58 58" width="512" xmlns="http://www.w3.org/2000/svg"><path d="m26.64.094c-13.918 1.1-25.241 12.274-26.515 26.177-.635 6.928 1.176 13.404 4.659 18.681l-4.069 11.098c-.288.787.46 1.558 1.255 1.293l11.525-3.842c5.263 3.337 11.667 5.036 18.503 4.347 13.793-1.389 24.814-12.666 25.908-26.485 1.416-17.875-13.391-32.683-31.266-31.269z" fill="#fc3952"/><path d="m29 45c-1.104 0-2-.896-2-2v-3c0-1.104.896-2 2-2s2 .896 2 2v3c0 1.104-.896 2-2 2z" fill="#fff"/><path d="m29 34.03c-1.104 0-2-.896-2-2v-2.03c0-2.842 1.354-5.87 3.623-7.333.877-.565 1.391-1.525 1.377-2.567-.022-1.601-1.431-3.079-2.956-3.1-.013 0-.026 0-.039 0-.751 0-1.474.306-2.039.863-.614.605-.966 1.436-.966 2.281 0 1.104-.896 2-2 2s-2-.896-2-2c0-1.908.786-3.777 2.157-5.128 1.32-1.303 3.038-2.016 4.846-2.016h.096c3.687.052 6.847 3.277 6.9 7.044.034 2.429-1.166 4.666-3.208 5.984-1.105.713-1.791 2.517-1.791 3.972v2.03c0 1.104-.896 2-2 2z" fill="#fff"/><path d="m29 55c-.552 0-1-.448-1-1s.448-1 1-1c13.234 0 24-10.767 24-24s-10.766-24-24-24-24 10.767-24 24c0 .552-.448 1-1 1s-1-.448-1-1c0-14.336 11.664-26 26-26s26 11.664 26 26-11.664 26-26 26z" fill="#d5354e"/></svg>