<?xml version="1.0" encoding="iso-8859-1"?>
<!-- Generator: Adobe Illustrator 19.0.0, SVG Export Plug-In . SVG Version: 6.00 Build 0)  -->
<svg version="1.1" id="Capa_1" xmlns="http://www.w3.org/2000/svg" xmlns:xlink="http://www.w3.org/1999/xlink" x="0px" y="0px"
	 viewBox="0 0 512 512" style="enable-background:new 0 0 512 512;" xml:space="preserve">
<path style="fill:#D0E8F9;" d="M379.586,55.428V35.31H132.414v20.118c0,60.593,24.073,118.713,66.922,161.562l8.872,8.872
	c7.989,7.989,12.482,18.829,12.482,30.137l0,0c0,11.308-4.493,22.148-12.482,30.137l-8.872,8.872
	c-42.849,42.849-66.922,100.961-66.922,161.562v20.118h247.172v-20.118c0-60.593-24.073-118.713-66.922-161.563l-8.872-8.872
	c-7.989-7.989-12.482-18.829-12.482-30.137l0,0c0-11.308,4.493-22.148,12.482-30.137l8.872-8.872
	C355.513,174.142,379.586,116.03,379.586,55.428z"/>
<g>
	<path style="fill:#CC6F56;" d="M397.241,35.31H114.759c-9.754,0-17.655-7.901-17.655-17.655l0,0C97.103,7.901,105.004,0,114.759,0
		h282.483c9.754,0,17.655,7.901,17.655,17.655l0,0C414.897,27.41,406.996,35.31,397.241,35.31z"/>
	<path style="fill:#CC6F56;" d="M397.241,512H114.759c-9.754,0-17.655-7.901-17.655-17.655l0,0c0-9.754,7.901-17.655,17.655-17.655
		h282.483c9.754,0,17.655,7.901,17.655,17.655l0,0C414.897,504.099,406.996,512,397.241,512z"/>
</g>
<g>
	<path style="fill:#F9EAB0;" d="M256,256c-4.882,0-8.828-3.946-8.828-8.828c0-18.467-7.186-35.814-20.242-48.87l-8.863-8.863
		c-13.718-13.709-23.27-29.184-31.55-43.864c-0.856-1.518-1.236-3.407-1.103-5.146c0,0,0.15-1.898,0.945-4.838
		c4.228-15.616,18.202-26.112,34.772-26.112c8.015,0,15.713,2.507,22.254,7.239c8.104,5.862,28.54,15.695,74.408,15.695
		c8.881,0,11.917,5.226,12.809,7.477c3.893,9.852-5.694,20.286-28.513,41.746c-3.125,2.94-5.967,5.614-8.148,7.786l-8.881,8.881
		c-13.047,13.056-20.233,30.402-20.233,48.87C264.828,252.054,260.882,256,256,256z"/>
	<path style="fill:#F9EAB0;" d="M343.693,450.207H168.307c-2.454,0-4.811-1.024-6.471-2.825c-1.668-1.81-2.516-4.228-2.33-6.682
		c2.207-28.628,13.692-40.527,26.977-54.298c1.792-1.854,3.655-3.787,5.57-5.826c11.087-11.847,26.748-18.644,42.973-18.644h41.949
		c16.234,0,31.894,6.797,42.973,18.644c1.916,2.048,3.787,3.981,5.579,5.835c13.286,13.771,24.761,25.662,26.968,54.281
		c0.185,2.454-0.653,4.873-2.331,6.682C348.504,449.183,346.147,450.207,343.693,450.207z"/>
</g>
<g>
	<path style="fill:#B9AE83;" d="M256,300.138c-4.882,0-8.828-3.946-8.828-8.828v-8.828c0-4.882,3.946-8.828,8.828-8.828
		s8.828,3.946,8.828,8.828v8.828C264.828,296.192,260.882,300.138,256,300.138z"/>
	<path style="fill:#B9AE83;" d="M256,344.276c-4.882,0-8.828-3.946-8.828-8.828v-8.828c0-4.882,3.946-8.828,8.828-8.828
		s8.828,3.946,8.828,8.828v8.828C264.828,340.33,260.882,344.276,256,344.276z"/>
</g>
<g>
</g>
<g>
</g>
<g>
</g>
<g>
</g>
<g>
</g>
<g>
</g>
<g>
</g>
<g>
</g>
<g>
</g>
<g>
</g>
<g>
</g>
<g>
</g>
<g>
</g>
<g>
</g>
<g>
</g>
</svg>
