<svg height="512pt" viewBox="0 0 512 512" width="512pt" xmlns="http://www.w3.org/2000/svg"><path d="m512 256c0 141.386719-114.613281 256-256 256s-256-114.613281-256-256 114.613281-256 256-256 256 114.613281 256 256zm0 0" fill="#57abc1"/><path d="m300.136719 123.585938c0 24.378906-19.761719 44.136718-44.136719 44.136718s-44.136719-19.757812-44.136719-44.136718c0-24.375 19.761719-44.136719 44.136719-44.136719s44.136719 19.761719 44.136719 44.136719zm0 0" fill="#fff"/><path d="m300.136719 361.929688v-158.894532h-105.929688v52.964844h52.964844v105.929688h-52.964844v52.96875h158.894531v-52.96875zm0 0" fill="#fff"/><g fill="#33636c"><path d="m467.863281 256c-4.875 0-8.828125-3.953125-8.828125-8.828125.015625-54.527344-23.984375-105.460937-67.585937-143.402344-3.679688-3.207031-4.058594-8.777343-.863281-12.457031 3.203124-3.679688 8.773437-4.050781 12.457031-.863281 47.507812 41.347656 73.664062 97.003906 73.648437 156.722656 0 4.875-3.957031 8.828125-8.828125 8.828125zm0 0"/><path d="m335.246094 65.507812c-1.015625 0-2.050782-.175781-3.054688-.546874-21.523437-7.953126-44.191406-11.988282-67.363281-11.996094-4.875 0-8.828125-3.953125-8.828125-8.828125 0-4.871094 3.953125-8.828125 8.828125-8.828125 25.273437.011718 49.988281 4.414062 73.472656 13.09375 4.570313 1.683594 6.910157 6.761718 5.226563 11.34375-1.316406 3.554687-4.6875 5.761718-8.28125 5.761718zm0 0"/><path d="m114.757812 423.722656c-2.003906 0-4.007812-.679687-5.65625-2.054687-48.296874-40.421875-73.808593-94.667969-73.792968-156.839844 0-4.875 3.957031-8.828125 8.828125-8.828125 4.875 0 8.828125 3.953125 8.828125 8.828125-.015625 56.789063 23.3125 106.335937 67.460937 143.296875 3.742188 3.125 4.230469 8.695312 1.105469 12.4375-1.75 2.085938-4.257812 3.160156-6.773438 3.160156zm0 0"/><path d="m247.136719 476.691406c-23.761719 0-47.105469-3.914062-69.375-11.636718-4.609375-1.597657-7.046875-6.621094-5.445313-11.226563 1.597656-4.601563 6.617188-7.0625 11.226563-5.449219 20.402343 7.070313 41.796875 10.65625 63.59375 10.65625 4.777343-.140625 8.863281 3.9375 8.863281 8.828125 0 4.878907-4.121094 8.886719-8.863281 8.828125zm0 0"/></g></svg>