<svg enable-background="new 0 0 57 58" height="512" viewBox="0 0 57 58" width="512" xmlns="http://www.w3.org/2000/svg"><path d="m36.109.092c-9.001.87-16.248 8.204-17.035 17.212-.286 3.274.266 6.389 1.455 9.167l-20.236 20.236c-.188.188-.293.442-.293.707v9.586c0 .552.448 1 1 1h7.586c.265 0 .52-.105.707-.293l2.707-2.707v-6h5v-3h3v-4h5l5.529-5.529c2.777 1.189 5.892 1.741 9.165 1.455 9.008-.786 16.343-8.031 17.214-17.032 1.16-11.981-8.819-21.96-20.799-20.802z" fill="#ebba16"/><circle cx="44" cy="13" fill="#fff" r="4"/><g fill="#f7e6a1"><path d="m7 47c-.256 0-.512-.098-.707-.293-.391-.391-.391-1.023 0-1.414l12-12c.39-.391 1.024-.391 1.414 0 .391.391.391 1.023 0 1.414l-12 12c-.195.195-.451.293-.707.293z"/><path d="m38 35c-.552 0-1-.448-1-1s.448-1 1-1c7.72 0 14-6.28 14-14 0-.552.448-1 1-1s1 .448 1 1c0 8.822-7.177 16-16 16z"/></g></svg>