<?xml version="1.0" encoding="iso-8859-1"?>
<!-- Generator: Adobe Illustrator 19.0.0, SVG Export Plug-In . SVG Version: 6.00 Build 0)  -->
<svg version="1.1" id="Capa_1" xmlns="http://www.w3.org/2000/svg" xmlns:xlink="http://www.w3.org/1999/xlink" x="0px" y="0px"
	 viewBox="0 0 512 512" style="enable-background:new 0 0 512 512;" xml:space="preserve">
<g>
	<rect x="230.4" y="123.729" style="fill:#AFB6BB;" width="51.2" height="59.733"/>
	<path style="fill:#AFB6BB;" d="M230.4,251.729h-93.867c-4.71,0-8.533-3.814-8.533-8.533c0-4.719,3.823-8.533,8.533-8.533H230.4
		c4.71,0,8.533,3.814,8.533,8.533C238.933,247.915,235.11,251.729,230.4,251.729z"/>
	<path style="fill:#AFB6BB;" d="M375.467,251.729H281.6c-4.71,0-8.533-3.814-8.533-8.533c0-4.719,3.823-8.533,8.533-8.533h93.867
		c4.71,0,8.533,3.814,8.533,8.533C384,247.915,380.177,251.729,375.467,251.729z"/>
	<path style="fill:#AFB6BB;" d="M503.467,251.729h-76.8c-4.71,0-8.533-3.814-8.533-8.533c0-4.719,3.823-8.533,8.533-8.533h76.8
		c4.71,0,8.533,3.814,8.533,8.533C512,247.915,508.177,251.729,503.467,251.729z"/>
	<path style="fill:#AFB6BB;" d="M85.333,251.729h-76.8c-4.71,0-8.533-3.814-8.533-8.533c0-4.719,3.823-8.533,8.533-8.533h76.8
		c4.71,0,8.533,3.814,8.533,8.533C93.867,247.915,90.044,251.729,85.333,251.729z"/>
	<path style="fill:#AFB6BB;" d="M256,226.129c-4.71,0-8.533-3.814-8.533-8.533v-25.6c0-4.719,3.823-8.533,8.533-8.533
		c4.71,0,8.533,3.814,8.533,8.533v25.6C264.533,222.315,260.71,226.129,256,226.129z"/>
	<path style="fill:#AFB6BB;" d="M110.933,319.996c-4.71,0-8.533-3.814-8.533-8.533v-42.667c0-4.719,3.823-8.533,8.533-8.533
		c4.71,0,8.533,3.814,8.533,8.533v42.667C119.467,316.181,115.644,319.996,110.933,319.996z"/>
	<path style="fill:#AFB6BB;" d="M401.067,319.996c-4.71,0-8.533-3.814-8.533-8.533v-42.667c0-4.719,3.823-8.533,8.533-8.533
		s8.533,3.814,8.533,8.533v42.667C409.6,316.181,405.777,319.996,401.067,319.996z"/>
	<rect x="375.467" y="430.929" style="fill:#AFB6BB;" width="51.2" height="68.267"/>
	<rect x="85.333" y="430.929" style="fill:#AFB6BB;" width="51.2" height="68.267"/>
</g>
<g>
	<circle style="fill:#366DB6;" cx="110.933" cy="243.196" r="25.6"/>
	<circle style="fill:#366DB6;" cx="401.067" cy="243.196" r="25.6"/>
	<circle style="fill:#366DB6;" cx="256" cy="243.196" r="25.6"/>
</g>
<path style="fill:#EBBA16;" d="M341.342,123.721H170.658c-9.421,0-17.058-7.637-17.058-17.058V21.329
	c0-9.421,7.637-17.058,17.058-17.058h170.684c9.421,0,17.058,7.637,17.058,17.058v85.333
	C358.4,116.083,350.763,123.721,341.342,123.721z"/>
<path style="fill:#E7ECED;" d="M341.342,132.262H170.658c-9.421,0-17.058-7.637-17.058-17.058V98.129h204.8v17.075
	C358.4,124.625,350.763,132.262,341.342,132.262z"/>
<path style="fill:#839594;" d="M307.2,191.996H204.8c-4.71,0-8.533-3.814-8.533-8.533c0-4.719,3.823-8.533,8.533-8.533h102.4
	c4.71,0,8.533,3.814,8.533,8.533C315.733,188.181,311.91,191.996,307.2,191.996z"/>
<path style="fill:#EBBA16;" d="M486.409,439.454H315.725c-9.421,0-17.058-7.637-17.058-17.058v-93.867
	c0-9.421,7.637-17.058,17.058-17.058h170.684c9.421,0,17.058,7.637,17.058,17.058v93.867
	C503.467,431.817,495.829,439.454,486.409,439.454z"/>
<path style="fill:#E7ECED;" d="M486.409,447.996H315.725c-9.421,0-17.058-7.637-17.058-17.058v-17.075h204.8v17.075
	C503.467,440.358,495.829,447.996,486.409,447.996z"/>
<path style="fill:#839594;" d="M452.267,507.729h-102.4c-4.71,0-8.533-3.814-8.533-8.533c0-4.719,3.823-8.533,8.533-8.533h102.4
	c4.71,0,8.533,3.814,8.533,8.533C460.8,503.915,456.977,507.729,452.267,507.729z"/>
<path style="fill:#EBBA16;" d="M196.275,439.454H25.591c-9.421,0-17.058-7.637-17.058-17.058v-93.867
	c0-9.421,7.637-17.058,17.058-17.058h170.684c9.421,0,17.058,7.637,17.058,17.058v93.867
	C213.333,431.817,205.696,439.454,196.275,439.454z"/>
<path style="fill:#E7ECED;" d="M196.275,447.996H25.591c-9.421,0-17.058-7.637-17.058-17.058v-17.075h204.8v17.075
	C213.333,440.358,205.696,447.996,196.275,447.996z"/>
<path style="fill:#839594;" d="M162.133,507.729h-102.4c-4.71,0-8.533-3.814-8.533-8.533c0-4.719,3.823-8.533,8.533-8.533h102.4
	c4.71,0,8.533,3.814,8.533,8.533C170.667,503.915,166.844,507.729,162.133,507.729z"/>
<g>
	<path style="fill:#AFB6BB;" d="M503.467,268.796c-4.71,0-8.533-3.814-8.533-8.533v-34.133c0-4.719,3.823-8.533,8.533-8.533
		c4.71,0,8.533,3.814,8.533,8.533v34.133C512,264.981,508.177,268.796,503.467,268.796z"/>
	<path style="fill:#AFB6BB;" d="M8.533,268.796c-4.71,0-8.533-3.814-8.533-8.533v-34.133c0-4.719,3.823-8.533,8.533-8.533
		s8.533,3.814,8.533,8.533v34.133C17.067,264.981,13.244,268.796,8.533,268.796z"/>
</g>
<g>
</g>
<g>
</g>
<g>
</g>
<g>
</g>
<g>
</g>
<g>
</g>
<g>
</g>
<g>
</g>
<g>
</g>
<g>
</g>
<g>
</g>
<g>
</g>
<g>
</g>
<g>
</g>
<g>
</g>
</svg>
