<?xml version="1.0" encoding="iso-8859-1"?>
<!-- Generator: Adobe Illustrator 19.0.0, SVG Export Plug-In . SVG Version: 6.00 Build 0)  -->
<svg version="1.1" id="Capa_1" xmlns="http://www.w3.org/2000/svg" xmlns:xlink="http://www.w3.org/1999/xlink" x="0px" y="0px"
	 viewBox="0 0 512.004 512.004" style="enable-background:new 0 0 512.004 512.004;" xml:space="preserve">
<g>
	<path style="fill:#E7ECED;" d="M225.75,330.392c7.459,19.023,4.264,45.224-11.079,60.575l-52.692,52.692
		c-9.922,9.913-23.217,15.378-37.447,15.378S97,453.572,87.078,443.659l-18.723-18.723c-9.922-9.931-15.386-23.225-15.386-37.464
		s5.464-27.533,15.386-37.455l52.683-52.692c9.922-9.913,23.225-15.378,37.455-15.378c6.762,0,20.807,7,26.889,9.366l39.106-39.106
		c-41.084-27.154-104.801-28.425-140.897,7.671l-52.692,52.692c-41.198,41.198-41.198,108.615,0,149.804l18.732,18.732
		c41.198,41.198,108.606,41.198,149.804,0l52.692-52.692c36.087-36.096,39.857-96.018,12.703-137.101L225.75,330.392z"/>
	<path style="fill:#E7ECED;" d="M481.106,49.622l-18.723-18.723c-41.198-41.198-108.615-41.198-149.813,0l-52.692,52.692
		c-36.096,36.096-34.825,99.814-7.671,140.897l39.106-39.106c-2.357-6.082-9.366-20.127-9.366-26.889
		c0-14.23,5.464-27.533,15.386-37.455l52.683-52.692c9.922-9.913,23.225-15.378,37.455-15.378s27.533,5.464,37.455,15.378
		l18.732,18.732c20.648,20.648,20.648,54.254,0,74.902l-52.692,52.692c-9.922,9.913-23.225,15.378-37.455,15.378
		c-6.762,0-20.807-7-26.889-9.366l-39.106,39.106c41.084,27.154,104.801,28.416,140.897-7.671l52.692-52.692
		C522.304,158.237,522.304,90.82,481.106,49.622z"/>
</g>
<path style="fill:#839594;" d="M361.933,198.623l-163.31,163.31c-13.409,13.409-35.143,13.409-48.552,0l0,0
	c-13.409-13.409-13.409-35.143,0-48.552l163.31-163.31c13.409-13.409,35.143-13.409,48.552,0l0,0
	C375.342,163.48,375.342,185.214,361.933,198.623z"/>
<g>
</g>
<g>
</g>
<g>
</g>
<g>
</g>
<g>
</g>
<g>
</g>
<g>
</g>
<g>
</g>
<g>
</g>
<g>
</g>
<g>
</g>
<g>
</g>
<g>
</g>
<g>
</g>
<g>
</g>
</svg>
