<?xml version="1.0" encoding="iso-8859-1"?>
<!-- Generator: Adobe Illustrator 19.0.0, SVG Export Plug-In . SVG Version: 6.00 Build 0)  -->
<svg version="1.1" id="Capa_1" xmlns="http://www.w3.org/2000/svg" xmlns:xlink="http://www.w3.org/1999/xlink" x="0px" y="0px"
	 viewBox="0 0 512 512" style="enable-background:new 0 0 512 512;" xml:space="preserve">
<path style="fill:#ECF0F1;" d="M256,0c-74.294,0-134.737,60.443-134.737,134.737v80.842h35.93v-80.842
	c0-54.568,44.239-98.807,98.807-98.807s98.807,44.239,98.807,98.807v80.842h35.93v-80.842C390.737,60.443,330.294,0,256,0z"/>
<path style="fill:#35495E;" d="M426.658,498.526H85.342c-14.884,0-26.956-11.542-26.956-25.771V232.367
	c0-14.228,12.072-25.771,26.956-25.771h341.306c14.893,0,26.965,11.542,26.965,25.771v240.38
	C453.614,486.984,441.542,498.526,426.658,498.526z"/>
<path style="fill:#F0C419;" d="M426.658,512H85.342c-14.884,0-26.956-12.072-26.956-26.956V440.14h395.228v44.903
	C453.614,499.928,441.542,512,426.658,512z"/>
<path style="fill:#1B2A39;" d="M291.93,296.421c0-22.645-20.956-40.403-44.535-34.933c-12.737,2.955-23.112,13.204-26.22,25.905
	c-4.15,16.968,3.8,32.373,16.86,39.972v40.915c0,9.926,8.039,17.965,17.965,17.965l0,0c9.926,0,17.965-8.039,17.965-17.965v-40.915
	C284.663,321.141,291.93,309.688,291.93,296.421z"/>
<g>
</g>
<g>
</g>
<g>
</g>
<g>
</g>
<g>
</g>
<g>
</g>
<g>
</g>
<g>
</g>
<g>
</g>
<g>
</g>
<g>
</g>
<g>
</g>
<g>
</g>
<g>
</g>
<g>
</g>
</svg>
