<?xml version="1.0" encoding="UTF-8" standalone="no"?>
<!-- Generator: Adobe Illustrator 19.0.0, SVG Export Plug-In . SVG Version: 6.00 Build 0)  -->

<svg
   xmlns:dc="http://purl.org/dc/elements/1.1/"
   xmlns:cc="http://creativecommons.org/ns#"
   xmlns:rdf="http://www.w3.org/1999/02/22-rdf-syntax-ns#"
   xmlns:svg="http://www.w3.org/2000/svg"
   xmlns="http://www.w3.org/2000/svg"
   xmlns:sodipodi="http://sodipodi.sourceforge.net/DTD/sodipodi-0.dtd"
   xmlns:inkscape="http://www.inkscape.org/namespaces/inkscape"
   version="1.1"
   id="Capa_1"
   x="0px"
   y="0px"
   viewBox="0 0 512 512"
   style="enable-background:new 0 0 512 512;"
   xml:space="preserve"
   sodipodi:docname="maximize.svg"
   inkscape:version="0.92.4 (5da689c313, 2019-01-14)"><metadata
   id="metadata47"><rdf:RDF><cc:Work
       rdf:about=""><dc:format>image/svg+xml</dc:format><dc:type
         rdf:resource="http://purl.org/dc/dcmitype/StillImage" /></cc:Work></rdf:RDF></metadata><defs
   id="defs45" /><sodipodi:namedview
   pagecolor="#ffffff"
   bordercolor="#666666"
   borderopacity="1"
   objecttolerance="10"
   gridtolerance="10"
   guidetolerance="10"
   inkscape:pageopacity="0"
   inkscape:pageshadow="2"
   inkscape:window-width="1920"
   inkscape:window-height="1017"
   id="namedview43"
   showgrid="false"
   inkscape:zoom="0.921875"
   inkscape:cx="-130.51531"
   inkscape:cy="242.66064"
   inkscape:window-x="-8"
   inkscape:window-y="-8"
   inkscape:window-maximized="1"
   inkscape:current-layer="Capa_1" />
<path
   style="fill:#000000"
   d="M460.809,512h-1.229c-4.71,0-8.533-3.814-8.533-8.533c0-4.719,3.823-8.533,8.533-8.533h1.22  c4.275-0.009,8.448-0.785,12.39-2.313c4.412-1.724,9.344,0.478,11.042,4.855c1.707,4.395-0.469,9.335-4.864,11.042  C473.464,510.814,467.217,511.991,460.809,512z M425.446,512H408.38c-4.71,0-8.533-3.814-8.533-8.533  c0-4.719,3.823-8.533,8.533-8.533h17.067c4.71,0,8.533,3.814,8.533,8.533C433.98,508.186,430.165,512,425.446,512z M374.246,512  H357.18c-4.71,0-8.533-3.814-8.533-8.533c0-4.719,3.823-8.533,8.533-8.533h17.067c4.71,0,8.533,3.814,8.533,8.533  C382.78,508.186,378.965,512,374.246,512z M323.046,512H305.98c-4.71,0-8.533-3.814-8.533-8.533c0-4.719,3.823-8.533,8.533-8.533  h17.067c4.71,0,8.533,3.814,8.533,8.533C331.58,508.186,327.765,512,323.046,512z M271.846,512H254.78  c-4.71,0-8.533-3.814-8.533-8.533c0-4.719,3.823-8.533,8.533-8.533h17.067c4.71,0,8.533,3.814,8.533,8.533  C280.38,508.186,276.565,512,271.846,512z M220.655,512h-17.067c-4.71,0-8.533-3.814-8.533-8.533c0-4.719,3.823-8.533,8.533-8.533  h17.067c4.71,0,8.533,3.814,8.533,8.533C229.188,508.186,225.365,512,220.655,512z M169.455,512h-17.067  c-4.71,0-8.533-3.814-8.533-8.533c0-4.719,3.823-8.533,8.533-8.533h17.067c4.71,0,8.533,3.814,8.533,8.533  C177.988,508.186,174.165,512,169.455,512z M118.255,512h-17.067c-4.71,0-8.533-3.814-8.533-8.533c0-4.719,3.823-8.533,8.533-8.533  h17.067c4.71,0,8.533,3.814,8.533,8.533C126.788,508.186,122.965,512,118.255,512z M67.055,512l-17.246-0.017  c-4.71-0.102-8.457-4.002-8.354-8.713s4.156-8.081,8.704-8.354l16.896,0.017c4.71,0,8.533,3.814,8.533,8.533  C75.588,508.186,71.765,512,67.055,512z M19.772,498.185c-2.304,0-4.599-0.922-6.289-2.756c-4.676-5.094-8.218-10.957-10.522-17.434  c-1.579-4.446,0.742-9.318,5.18-10.897c4.446-1.579,9.318,0.742,10.897,5.18c1.527,4.309,3.891,8.209,7.006,11.597  c3.191,3.473,2.961,8.866-0.512,12.058C23.902,497.442,21.828,498.185,19.772,498.185z M500.105,485.939  c-1.109,0-2.236-0.213-3.319-0.674c-4.343-1.835-6.374-6.844-4.531-11.187c1.783-4.198,2.679-8.661,2.679-13.278v-12.194  c0-4.719,3.823-8.533,8.533-8.533c4.71,0,8.533,3.814,8.533,8.533V460.8c0,6.912-1.357,13.619-4.028,19.934  C506.598,483.994,503.433,485.939,500.105,485.939z M8.533,449.835c-4.71,0-8.533-3.814-8.533-8.533v-17.067  c0-4.719,3.823-8.533,8.533-8.533s8.533,3.814,8.533,8.533v17.067C17.067,446.02,13.244,449.835,8.533,449.835z M503.467,423.006  c-4.71,0-8.533-3.814-8.533-8.533v-17.067c0-4.719,3.823-8.533,8.533-8.533c4.71,0,8.533,3.814,8.533,8.533v17.067  C512,419.191,508.177,423.006,503.467,423.006z M8.533,398.635c-4.71,0-8.533-3.814-8.533-8.533v-17.067  c0-4.719,3.823-8.533,8.533-8.533s8.533,3.814,8.533,8.533v17.067C17.067,394.82,13.244,398.635,8.533,398.635z M503.467,371.806  c-4.71,0-8.533-3.814-8.533-8.533v-17.067c0-4.719,3.823-8.533,8.533-8.533c4.71,0,8.533,3.814,8.533,8.533v17.067  C512,367.991,508.177,371.806,503.467,371.806z M8.533,347.435c-4.71,0-8.533-3.814-8.533-8.533v-17.067  c0-4.719,3.823-8.533,8.533-8.533s8.533,3.814,8.533,8.533v17.067C17.067,343.62,13.244,347.435,8.533,347.435z M503.467,320.606  c-4.71,0-8.533-3.814-8.533-8.533v-17.067c0-4.719,3.823-8.533,8.533-8.533c4.71,0,8.533,3.814,8.533,8.533v17.067  C512,316.791,508.177,320.606,503.467,320.606z M8.533,296.235c-4.71,0-8.533-3.814-8.533-8.533v-17.067  c0-4.719,3.823-8.533,8.533-8.533s8.533,3.814,8.533,8.533v17.067C17.067,292.42,13.244,296.235,8.533,296.235z M503.467,269.406  c-4.71,0-8.533-3.814-8.533-8.533v-17.067c0-4.719,3.823-8.533,8.533-8.533c4.71,0,8.533,3.814,8.533,8.533v17.067  C512,265.591,508.177,269.406,503.467,269.406z M8.533,245.035c-4.71,0-8.533-3.814-8.533-8.533v-17.067  c0-4.719,3.823-8.533,8.533-8.533s8.533,3.814,8.533,8.533v17.067C17.067,241.22,13.244,245.035,8.533,245.035z M503.467,218.206  c-4.71,0-8.533-3.814-8.533-8.533v-17.067c0-4.719,3.823-8.533,8.533-8.533c4.71,0,8.533,3.814,8.533,8.533v17.067  C512,214.391,508.177,218.206,503.467,218.206z M8.533,193.835c-4.71,0-8.533-3.814-8.533-8.533v-17.067  c0-4.719,3.823-8.533,8.533-8.533s8.533,3.814,8.533,8.533v17.067C17.067,190.02,13.244,193.835,8.533,193.835z M503.467,167.006  c-4.71,0-8.533-3.814-8.533-8.533v-17.067c0-4.719,3.823-8.533,8.533-8.533c4.71,0,8.533,3.814,8.533,8.533v17.067  C512,163.191,508.177,167.006,503.467,167.006z M8.533,142.635c-4.71,0-8.533-3.814-8.533-8.533v-17.067  c0-4.719,3.823-8.533,8.533-8.533s8.533,3.814,8.533,8.533v17.067C17.067,138.82,13.244,142.635,8.533,142.635z M503.467,115.806  c-4.71,0-8.533-3.814-8.533-8.533V90.206c0-4.719,3.823-8.533,8.533-8.533c4.71,0,8.533,3.814,8.533,8.533v17.067  C512,111.991,508.177,115.806,503.467,115.806z M8.533,91.435C3.823,91.435,0,87.62,0,82.901V65.835  c0-4.719,3.823-8.533,8.533-8.533s8.533,3.814,8.533,8.533v17.067C17.067,87.62,13.244,91.435,8.533,91.435z M503.467,64.606  c-4.71,0-8.533-3.814-8.533-8.533V51.2c0-3.268-0.461-6.502-1.374-9.617c-1.323-4.523,1.271-9.267,5.794-10.59  c4.531-1.297,9.259,1.28,10.59,5.794c1.365,4.676,2.056,9.532,2.056,14.421v4.864C512,60.791,508.177,64.606,503.467,64.606z   M12.894,40.9c-1.263,0-2.551-0.282-3.763-0.879c-4.233-2.082-5.965-7.202-3.883-11.435c3.038-6.161,7.211-11.571,12.425-16.085  c3.558-3.089,8.951-2.697,12.032,0.853c3.089,3.567,2.705,8.951-0.862,12.041c-3.473,3.012-6.263,6.63-8.286,10.743  C19.072,39.151,16.043,40.9,12.894,40.9z M480.708,21.999c-1.348,0-2.714-0.316-3.994-0.998c-4.036-2.142-8.397-3.413-12.979-3.806  c-4.693-0.393-8.183-4.514-7.791-9.216c0.393-4.693,4.42-8.303,9.225-7.782c6.886,0.572,13.466,2.509,19.55,5.743  c4.164,2.21,5.743,7.373,3.541,11.537C486.716,20.361,483.763,21.999,480.708,21.999z M430.327,17.067h-17.067  c-4.71,0-8.533-3.814-8.533-8.533S408.55,0,413.261,0h17.067c4.71,0,8.533,3.814,8.533,8.533S435.038,17.067,430.327,17.067z   M379.128,17.067h-17.067c-4.71,0-8.533-3.814-8.533-8.533S357.35,0,362.061,0h17.067c4.71,0,8.533,3.814,8.533,8.533  S383.838,17.067,379.128,17.067z M327.927,17.067h-17.067c-4.71,0-8.533-3.814-8.533-8.533S306.15,0,310.861,0h17.067  c4.71,0,8.533,3.814,8.533,8.533S332.638,17.067,327.927,17.067z M276.727,17.067h-17.067c-4.71,0-8.533-3.814-8.533-8.533  S254.95,0,259.661,0h17.067c4.71,0,8.533,3.814,8.533,8.533S281.438,17.067,276.727,17.067z M225.519,17.067h-17.067  c-4.71,0-8.533-3.814-8.533-8.533S203.742,0,208.452,0h17.067c4.71,0,8.533,3.814,8.533,8.533S230.238,17.067,225.519,17.067z   M174.319,17.067h-17.067c-4.71,0-8.533-3.814-8.533-8.533S152.542,0,157.252,0h17.067c4.71,0,8.533,3.814,8.533,8.533  S179.038,17.067,174.319,17.067z M123.119,17.067h-17.067c-4.71,0-8.533-3.814-8.533-8.533S101.342,0,106.052,0h17.067  c4.71,0,8.533,3.814,8.533,8.533S127.838,17.067,123.119,17.067z M71.919,17.067H54.852c-4.71,0-8.533-3.814-8.533-8.533  S50.142,0,54.852,0h17.067c4.71,0,8.533,3.814,8.533,8.533S76.638,17.067,71.919,17.067z"
   id="path2" />
<g
   id="g8"
   style="fill:#000000">
	<path
   style="fill:#000000"
   d="m 414.133,428.667 c -2.185,0 -4.369,-2.836 -6.033,-4.5 L 220.367,236.433 c -3.337,-3.337 0.663,-8.73 4,-12.066 3.328,-3.337 12.738,-3.337 16.066,0 L 428.166,412.1 c 3.337,3.337 -0.663,8.73 -4,12.066 -1.664,1.664 -7.848,4.501 -10.033,4.501 z"
   id="path4"
   inkscape:connector-curvature="0"
   sodipodi:nodetypes="sccccscs" />
	<path
   style="fill:#000000"
   d="m 230.4,341.333 c -4.71,0 -12.533,-3.814 -12.533,-8.533 V 230.4 c 0,-4.719 7.823,-12.533 12.533,-12.533 h 102.4 c 4.71,0 8.533,7.814 8.533,12.533 0,4.719 -3.823,12.533 -8.533,12.533 H 242.933 V 332.8 c 0,4.719 -7.823,8.533 -12.533,8.533 z"
   id="path6"
   inkscape:connector-curvature="0"
   sodipodi:nodetypes="ssssssscss" />
</g>
<path
   style="fill:#DD352E;"
   d="M170.667,128c0,23.561-19.106,42.667-42.667,42.667H0v-128C0,19.106,19.106,0,42.667,0h128V128z"
   id="path10" />
<g
   id="g12">
</g>
<g
   id="g14">
</g>
<g
   id="g16">
</g>
<g
   id="g18">
</g>
<g
   id="g20">
</g>
<g
   id="g22">
</g>
<g
   id="g24">
</g>
<g
   id="g26">
</g>
<g
   id="g28">
</g>
<g
   id="g30">
</g>
<g
   id="g32">
</g>
<g
   id="g34">
</g>
<g
   id="g36">
</g>
<g
   id="g38">
</g>
<g
   id="g40">
</g>
</svg>