<svg height="512pt" viewBox="-4 0 512 512" width="512pt" xmlns="http://www.w3.org/2000/svg"><path d="m475.117188 512h-446.914063c-15.578125 0-28.203125-12.625-28.203125-28.203125v-379.660156h503.320312v379.660156c0 15.578125-12.625 28.203125-28.203124 28.203125zm0 0" fill="#e7eced"/><path d="m503.320312 112.8125h-503.320312v-41.21875c0-15.578125 12.625-28.203125 28.203125-28.203125h446.914063c15.578124 0 28.203124 12.625 28.203124 28.203125zm0 0" fill="#dd352e"/><g fill="#e7eced"><path d="m86.78125 86.78125c-4.792969 0-8.679688-3.878906-8.679688-8.679688 0-4.796874 3.886719-8.679687 8.679688-8.679687 14.351562 0 26.03125-11.679687 26.03125-26.03125 0-14.355469-11.679688-26.035156-26.03125-26.035156-14.355469 0-26.035156 11.679687-26.035156 26.035156 0 4.796875-3.886719 8.675781-8.679688 8.675781-4.789062 0-8.675781-3.878906-8.675781-8.675781 0-23.925781 19.464844-43.390625 43.390625-43.390625 23.921875 0 43.386719 19.464844 43.386719 43.390625s-19.464844 43.390625-43.386719 43.390625zm0 0"/><path d="m199.59375 86.78125c-4.789062 0-8.679688-3.878906-8.679688-8.679688 0-4.796874 3.890626-8.679687 8.679688-8.679687 14.351562 0 26.035156-11.679687 26.035156-26.03125 0-14.355469-11.683594-26.035156-26.035156-26.035156-14.355469 0-26.035156 11.679687-26.035156 26.035156 0 4.796875-3.886719 8.675781-8.675782 8.675781-4.792968 0-8.679687-3.878906-8.679687-8.675781 0-23.925781 19.464844-43.390625 43.390625-43.390625s43.390625 19.464844 43.390625 43.390625-19.464844 43.390625-43.390625 43.390625zm0 0"/><path d="m312.40625 86.78125c-4.789062 0-8.675781-3.878906-8.675781-8.679688 0-4.796874 3.886719-8.679687 8.675781-8.679687 14.355469 0 26.035156-11.679687 26.035156-26.03125 0-14.355469-11.679687-26.035156-26.035156-26.035156-14.351562 0-26.035156 11.679687-26.035156 26.035156 0 4.796875-3.886719 8.675781-8.675782 8.675781-4.789062 0-8.679687-3.878906-8.679687-8.675781 0-23.925781 19.464844-43.390625 43.390625-43.390625s43.390625 19.464844 43.390625 43.390625-19.464844 43.390625-43.390625 43.390625zm0 0"/><path d="m416.542969 86.78125c-4.789063 0-8.679688-3.878906-8.679688-8.679688 0-4.796874 3.890625-8.679687 8.679688-8.679687 14.351562 0 26.035156-11.679687 26.035156-26.03125 0-14.355469-11.683594-26.035156-26.035156-26.035156-14.355469 0-26.035157 11.679687-26.035157 26.035156 0 4.796875-3.886718 8.675781-8.675781 8.675781-4.792969 0-8.679687-3.878906-8.679687-8.675781 0-23.925781 19.464844-43.390625 43.390625-43.390625s43.390625 19.464844 43.390625 43.390625-19.464844 43.390625-43.390625 43.390625zm0 0"/></g><path d="m286.371094 208.269531c0 14.382813 11.65625 26.035157 26.035156 26.035157h26.035156v164.882812c0 14.378906 11.652344 26.03125 26.03125 26.03125 14.382813 0 26.035156-11.652344 26.035156-26.03125v-190.933594c0-14.371094-11.644531-26.015625-26.015624-26.015625h-52.085938c-14.378906 0-26.035156 11.652344-26.035156 26.03125zm0 0" fill="#28384c"/><path d="m216.949219 303.730469c14.507812-12.878907 26.035156-30.800781 26.035156-50.621094 0-39.074219-35.035156-70.871094-78.101563-70.871094-30.503906 0-56.972656 15.21875-69.824218 37.992188-7.933594 14.039062 2.835937 31.429687 18.96875 31.429687 8.003906 0 15.292968-4.484375 18.972656-11.59375 5.441406-10.480468 18.039062-17.328125 31.882812-17.328125 18.457032 0 33.46875 13.625 33.46875 30.371094 0 16.75-15.011718 33.261719-33.46875 33.261719h-8.679687c-9.589844 0-17.355469 7.769531-17.355469 17.359375 0 9.585937 7.765625 17.355469 17.355469 17.355469h8.679687c18.457032 0 33.46875 16.511718 33.46875 33.261718s-15.011718 30.371094-33.46875 30.371094c-13.84375 0-26.441406-6.84375-31.882812-17.328125-3.679688-7.109375-10.96875-11.59375-18.972656-11.59375-16.132813 0-26.902344 17.390625-18.96875 31.429687 12.851562 22.773438 39.320312 37.992188 69.824218 37.992188 43.066407 0 78.101563-31.792969 78.101563-70.871094 0-19.820312-11.527344-37.742187-26.035156-50.617187zm0 0" fill="#28384c"/></svg>