<?xml version="1.0" encoding="iso-8859-1"?>
<!-- Generator: Adobe Illustrator 19.0.0, SVG Export Plug-In . SVG Version: 6.00 Build 0)  -->
<svg version="1.1" id="Capa_1" xmlns="http://www.w3.org/2000/svg" xmlns:xlink="http://www.w3.org/1999/xlink" x="0px" y="0px"
	 viewBox="0 0 512 512" style="enable-background:new 0 0 512 512;" xml:space="preserve">
<rect x="8.828" y="132.414" style="fill:#9F7747;" width="494.345" height="17.655"/>
<rect y="141.241" style="fill:#D5A779;" width="512" height="370.759"/>
<path style="fill:#9F7747;" d="M35.31,238.345c-4.873,0-8.828-3.946-8.828-8.828v-52.966c0-4.882,3.955-8.828,8.828-8.828h52.966
	c4.873,0,8.828,3.946,8.828,8.828s-3.955,8.828-8.828,8.828H44.138v44.138C44.138,234.399,40.183,238.345,35.31,238.345z"/>
<g>
	<polygon style="fill:#F2ECBF;" points="317.793,229.517 282.483,203.034 256,229.517 229.517,203.034 194.207,229.517 
		194.207,141.241 317.793,141.241 	"/>
	<polygon style="fill:#F2ECBF;" points="194.207,423.724 229.517,450.207 256,423.724 282.483,450.207 317.793,423.724 317.793,512 
		194.207,512 	"/>
</g>
<polygon style="fill:#9F7747;" points="512,141.241 0,141.241 79.448,0 432.552,0 "/>
<polygon style="fill:#CEC89F;" points="317.793,141.241 194.207,141.241 220.69,0 291.31,0 "/>
<path style="fill:#8A673C;" d="M317.793,353.103H194.207c-14.627,0-26.483-11.855-26.483-26.483l0,0
	c0-14.627,11.855-26.483,26.483-26.483h123.586c14.627,0,26.483,11.855,26.483,26.483l0,0
	C344.276,341.248,332.42,353.103,317.793,353.103z"/>
<g>
	<path style="fill:#9F7747;" d="M88.276,485.517H35.31c-4.873,0-8.828-3.946-8.828-8.828v-52.966c0-4.882,3.955-8.828,8.828-8.828
		s8.828,3.946,8.828,8.828v44.138h44.138c4.873,0,8.828,3.946,8.828,8.828C97.103,481.571,93.149,485.517,88.276,485.517z"/>
	<path style="fill:#9F7747;" d="M476.69,238.345c-4.873,0-8.828-3.946-8.828-8.828v-44.138h-44.138
		c-4.873,0-8.828-3.946-8.828-8.828s3.955-8.828,8.828-8.828h52.966c4.873,0,8.828,3.946,8.828,8.828v52.966
		C485.517,234.399,481.562,238.345,476.69,238.345z"/>
	<path style="fill:#9F7747;" d="M476.69,485.517h-52.966c-4.873,0-8.828-3.946-8.828-8.828c0-4.882,3.955-8.828,8.828-8.828h44.138
		v-44.138c0-4.882,3.955-8.828,8.828-8.828c4.873,0,8.828,3.946,8.828,8.828v52.966C485.517,481.571,481.562,485.517,476.69,485.517
		z"/>
</g>
<g>
</g>
<g>
</g>
<g>
</g>
<g>
</g>
<g>
</g>
<g>
</g>
<g>
</g>
<g>
</g>
<g>
</g>
<g>
</g>
<g>
</g>
<g>
</g>
<g>
</g>
<g>
</g>
<g>
</g>
</svg>
