<?xml version="1.0" encoding="iso-8859-1"?>
<!-- Generator: Adobe Illustrator 19.0.0, SVG Export Plug-In . SVG Version: 6.00 Build 0)  -->
<svg version="1.1" id="Capa_1" xmlns="http://www.w3.org/2000/svg" xmlns:xlink="http://www.w3.org/1999/xlink" x="0px" y="0px"
	 viewBox="0 0 512 512" style="enable-background:new 0 0 512 512;" xml:space="preserve">
<path style="fill:#EBEBEB;" d="M441.379,0H70.621H26.492C11.864,0,0,11.864,0,26.492v282.474h70.621h132.414h105.931h132.414H512
	V26.492C512,11.864,500.136,0,485.508,0H441.379z"/>
<path style="fill:#9C9EA0;" d="M300.138,397.241h-88.276c0,39.036-13.93,79.448-52.966,79.448h194.207
	C314.068,476.69,300.138,436.277,300.138,397.241z"/>
<path style="fill:#DBDBDB;" d="M485.508,406.069H26.492C11.864,406.069,0,394.205,0,379.577v-79.439h512v79.439
	C512,394.205,500.136,406.069,485.508,406.069z"/>
<rect x="35.31" y="35.31" style="fill:#69A5E6;" width="441.379" height="264.828"/>
<path style="fill:#DBDBDB;" d="M388.414,512H123.586v-17.673c0-9.737,7.901-17.638,17.638-17.638h229.553
	c9.737,0,17.638,7.901,17.638,17.638V512z"/>
<path style="fill:#FFFFFF;" d="M273.655,379.586h-35.31c-4.873,0-8.828-3.946-8.828-8.828v-35.31c0-4.882,3.955-8.828,8.828-8.828
	h35.31c4.873,0,8.828,3.946,8.828,8.828c0,4.882-3.955,8.828-8.828,8.828h-26.483v17.655h26.483c4.873,0,8.828,3.946,8.828,8.828
	C282.483,375.64,278.528,379.586,273.655,379.586z"/>
<g>
	<path style="fill:#4D88BC;" d="M70.621,114.759c-2.26,0-4.52-0.865-6.241-2.586c-3.452-3.452-3.452-9.031,0-12.482l35.31-35.31
		c3.443-3.452,9.039-3.452,12.482,0c3.452,3.452,3.452,9.031,0,12.482l-35.31,35.31C75.14,113.894,72.881,114.759,70.621,114.759z"
		/>
	<path style="fill:#4D88BC;" d="M132.414,167.724c-2.26,0-4.52-0.865-6.241-2.586c-3.452-3.452-3.452-9.031,0-12.482l35.31-35.31
		c3.443-3.452,9.039-3.452,12.482,0c3.452,3.452,3.452,9.031,0,12.482l-35.31,35.31
		C136.934,166.859,134.674,167.724,132.414,167.724z"/>
	<path style="fill:#4D88BC;" d="M70.621,167.724c-2.26,0-4.52-0.865-6.241-2.586c-3.452-3.452-3.452-9.031,0-12.482l88.276-88.276
		c3.443-3.452,9.039-3.452,12.482,0c3.452,3.452,3.452,9.031,0,12.482l-88.276,88.276C75.14,166.859,72.881,167.724,70.621,167.724z
		"/>
</g>
<g>
</g>
<g>
</g>
<g>
</g>
<g>
</g>
<g>
</g>
<g>
</g>
<g>
</g>
<g>
</g>
<g>
</g>
<g>
</g>
<g>
</g>
<g>
</g>
<g>
</g>
<g>
</g>
<g>
</g>
</svg>
