<?xml version="1.0" encoding="iso-8859-1"?>
<!-- Generator: Adobe Illustrator 19.0.0, SVG Export Plug-In . SVG Version: 6.00 Build 0)  -->
<svg version="1.1" id="Capa_1" xmlns="http://www.w3.org/2000/svg" xmlns:xlink="http://www.w3.org/1999/xlink" x="0px" y="0px"
	 viewBox="0 0 512.005 512.005" style="enable-background:new 0 0 512.005 512.005;" xml:space="preserve">
<path style="fill:#E7ECED;" d="M504.986,87.324L426.402,9.517c-9.346-9.249-24.496-9.249-33.842,0l-45.546,45.087l-37.481,37.101
	L68.708,330.109L0,509.424l0,0l0,0l74.751-28.065l106.393-39.946L421.967,203.01l37.481-37.101l45.546-45.087
	C514.332,111.573,514.332,96.573,504.986,87.324z"/>
<polygon style="fill:#EBBA16;" points="0,509.424 68.708,330.109 309.532,91.706 421.967,203.01 181.143,441.405 "/>
<path style="fill:#CB465F;" d="M459.448,165.909L347.013,54.604L392.56,9.517c9.346-9.249,24.496-9.249,33.842,0l78.593,77.798
	c9.346,9.249,9.346,24.248,0,33.506L459.448,165.909z"/>
<g>
	<path style="fill:#FFDB76;" d="M231.116,326.576c-2.279,0-4.549-0.875-6.281-2.624c-3.427-3.463-3.401-9.055,0.062-12.491
		l153.379-151.833c3.472-3.427,9.063-3.41,12.491,0.071c3.427,3.463,3.401,9.055-0.062,12.491L237.326,324.023
		C235.603,325.719,233.359,326.576,231.116,326.576z"/>
	<path style="fill:#FFDB76;" d="M143.662,413.146c-2.279,0-4.549-0.875-6.281-2.624c-3.427-3.472-3.401-9.055,0.062-12.491
		l56.218-55.652c3.472-3.419,9.063-3.419,12.491,0.071c3.427,3.472,3.401,9.055-0.062,12.491l-56.218,55.652
		C148.158,412.289,145.915,413.146,143.662,413.146z"/>
</g>
<polygon style="fill:#F7E6A1;" points="0,509.424 179.067,442.191 67.922,332.167 "/>
<polygon style="fill:#BF5A45;" points="24.045,446.661 0,509.424 63.399,485.617 "/>
<polygon style="fill:#E7ECED;" points="421.967,203.01 309.532,91.706 347.013,54.604 459.448,165.909 "/>
<g>
</g>
<g>
</g>
<g>
</g>
<g>
</g>
<g>
</g>
<g>
</g>
<g>
</g>
<g>
</g>
<g>
</g>
<g>
</g>
<g>
</g>
<g>
</g>
<g>
</g>
<g>
</g>
<g>
</g>
</svg>
