<?xml version="1.0" encoding="UTF-8" standalone="no"?>
<svg
   xmlns:dc="http://purl.org/dc/elements/1.1/"
   xmlns:cc="http://creativecommons.org/ns#"
   xmlns:rdf="http://www.w3.org/1999/02/22-rdf-syntax-ns#"
   xmlns:svg="http://www.w3.org/2000/svg"
   xmlns="http://www.w3.org/2000/svg"
   xmlns:sodipodi="http://sodipodi.sourceforge.net/DTD/sodipodi-0.dtd"
   xmlns:inkscape="http://www.inkscape.org/namespaces/inkscape"
   height="512pt"
   viewBox="0 -44 512 512"
   width="512pt"
   version="1.1"
   id="svg20"
   sodipodi:docname="perspective-1.svg"
   inkscape:version="0.92.4 (5da689c313, 2019-01-14)">
  <metadata
     id="metadata26">
    <rdf:RDF>
      <cc:Work
         rdf:about="">
        <dc:format>image/svg+xml</dc:format>
        <dc:type
           rdf:resource="http://purl.org/dc/dcmitype/StillImage" />
      </cc:Work>
    </rdf:RDF>
  </metadata>
  <defs
     id="defs24" />
  <sodipodi:namedview
     pagecolor="#ffffff"
     bordercolor="#666666"
     borderopacity="1"
     objecttolerance="10"
     gridtolerance="10"
     guidetolerance="10"
     inkscape:pageopacity="0"
     inkscape:pageshadow="2"
     inkscape:window-width="1920"
     inkscape:window-height="1017"
     id="namedview22"
     showgrid="false"
     inkscape:zoom="0.9777961"
     inkscape:cx="215.40557"
     inkscape:cy="413.88237"
     inkscape:window-x="-8"
     inkscape:window-y="-8"
     inkscape:window-maximized="1"
     inkscape:current-layer="svg20" />
  <path
     d="M 426.80469,338.98047 300.13672,220.69141 425.95703,84.746096 340.76172,-4e-6 212.97265,128.40625 85.195315,-4e-6 -5e-6,85.601556 125.61718,217.91797 -5e-6,342.42188 88.609375,423.72266 212.97265,301.15125 341.61719,423.72266 Z"
     id="path4"
     style="fill:#ff2a2a"
     inkscape:connector-curvature="0"
     sodipodi:nodetypes="ccccccccccccc" />
  <g
     fill="#dc691d"
     id="g12"
     style="fill:#d40000">
    <path
       d="m85.195312 0h85.1875l85.195313 85.601562-42.605469 42.804688zm0 0"
       id="path6"
       style="fill:#d40000" />
    <path
       d="m341.617188 423.722656 85.1875-84.742187h85.195312l-85.195312 84.742187zm0 0"
       id="path8"
       style="fill:#d40000" />
    <path
       d="m88.609375 423.722656h85.195313l81.773437-81.300781-42.605469-42.804687zm0 0"
       id="path10"
       style="fill:#d40000" />
  </g>
  <path
     d="m 300.13672,220.69141 h 79.33594 L 511.14453,84.746094 h -85.1875 z m 0,0"
     id="path14"
     style="fill:#aa0000"
     inkscape:connector-curvature="0" />
  <path
     d="M 379.47266,220.69141 H 300.13672 L 426.80469,338.98047 H 512 Z m 0,0"
     id="path16"
     style="fill:#aa0000"
     inkscape:connector-curvature="0" />
  <path
     d="m 340.76172,-4.4703483e-7 h 85.19531 L 511.14453,84.746094 h -85.1875 z m 0,0"
     id="path18"
     style="fill:#d40000"
     inkscape:connector-curvature="0" />
</svg>
