<svg height="512pt" viewBox="0 -4 512 512" width="512pt" xmlns="http://www.w3.org/2000/svg"><path d="m372.117188 423.722656h-35.308594l38.382812 71.277344c2.707032 5.03125 7.96875 8.171875 13.679688 8.171875 11.769531 0 19.261718-12.5625 13.691406-22.914063zm0 0" fill="#839594"/><path d="m238.34375 423.722656v63.90625c0 8.585938 6.957031 15.542969 15.546875 15.542969h4.21875c8.589844 0 15.546875-6.957031 15.546875-15.542969v-63.90625zm0 0" fill="#839594"/><path d="m139.882812 423.722656-30.4375 56.535156c-5.578124 10.351563 1.921876 22.914063 13.683594 22.914063 5.71875 0 10.972656-3.140625 13.679688-8.171875l38.382812-71.277344zm0 0" fill="#839594"/><path d="m406.070312 26.484375v35.308594c0 9.710937-7.945312 17.65625-17.65625 17.65625-9.710937 0-17.65625-7.945313-17.65625-17.65625v-35.308594h-52.964843v35.308594c0 9.710937-7.945313 17.65625-17.65625 17.65625-9.710938 0-17.652344-7.945313-17.652344-17.65625v-35.308594h-52.96875v35.308594c0 9.710937-7.941406 17.65625-17.652344 17.65625-9.710937 0-17.65625-7.945313-17.65625-17.65625v-35.308594h-52.964843v35.308594c0 9.710937-7.945313 17.65625-17.65625 17.65625-9.710938 0-17.65625-7.945313-17.65625-17.65625v-35.308594h-105.929688v406.066406h512v-406.066406zm0 0" fill="#e7eced"/><path d="m406.070312 61.792969c0 9.710937-7.945312 17.65625-17.65625 17.65625-9.710937 0-17.65625-7.945313-17.65625-17.65625h-52.964843c0 9.710937-7.945313 17.65625-17.65625 17.65625-9.710938 0-17.652344-7.945313-17.652344-17.65625h-52.96875c0 9.710937-7.941406 17.65625-17.652344 17.65625-9.710937 0-17.65625-7.945313-17.65625-17.65625h-52.964843c0 9.710937-7.945313 17.65625-17.65625 17.65625-9.710938 0-17.65625-7.945313-17.65625-17.65625h-70.621094v300.136719h441.382812v-300.136719zm0 0" fill="#fff"/><path d="m61.792969 361.929688h388.414062v35.3125h-388.414062zm0 0" fill="#839594"/><g fill="#556080"><path d="m123.585938 114.757812c-4.871094 0-8.828126-3.953124-8.828126-8.828124v-26.480469c0-4.875 3.957032-8.828125 8.828126-8.828125 4.875 0 8.828124 3.953125 8.828124 8.828125v26.480469c0 4.875-3.953124 8.828124-8.828124 8.828124zm0 0"/><path d="m211.863281 114.757812c-4.875 0-8.828125-3.953124-8.828125-8.828124v-26.480469c0-4.875 3.953125-8.828125 8.828125-8.828125 4.871094 0 8.828125 3.953125 8.828125 8.828125v26.480469c0 4.875-3.957031 8.828124-8.828125 8.828124zm0 0"/><path d="m300.136719 114.757812c-4.871094 0-8.828125-3.953124-8.828125-8.828124v-26.480469c0-4.875 3.957031-8.828125 8.828125-8.828125 4.875 0 8.828125 3.953125 8.828125 8.828125v26.480469c0 4.875-3.953125 8.828124-8.828125 8.828124zm0 0"/><path d="m388.414062 114.757812c-4.875 0-8.828124-3.953124-8.828124-8.828124v-26.480469c0-4.875 3.953124-8.828125 8.828124-8.828125 4.871094 0 8.828126 3.953125 8.828126 8.828125v26.480469c0 4.875-3.957032 8.828124-8.828126 8.828124zm0 0"/></g><path d="m123.585938 79.449219c-9.710938 0-17.65625-7.945313-17.65625-17.65625v-44.136719c0-9.710938 7.945312-17.65625 17.65625-17.65625 9.710937 0 17.65625 7.945312 17.65625 17.65625v44.136719c0 9.710937-7.945313 17.65625-17.65625 17.65625zm0 0" fill="#7383bf"/><path d="m211.863281 79.449219c-9.710937 0-17.65625-7.945313-17.65625-17.65625v-44.136719c0-9.710938 7.945313-17.65625 17.65625-17.65625 9.710938 0 17.652344 7.945312 17.652344 17.65625v44.136719c0 9.710937-7.941406 17.65625-17.652344 17.65625zm0 0" fill="#7383bf"/><path d="m300.136719 79.449219c-9.710938 0-17.652344-7.945313-17.652344-17.65625v-44.136719c0-9.710938 7.941406-17.65625 17.652344-17.65625 9.710937 0 17.65625 7.945312 17.65625 17.65625v44.136719c0 9.710937-7.945313 17.65625-17.65625 17.65625zm0 0" fill="#7383bf"/><path d="m388.414062 79.449219c-9.710937 0-17.65625-7.945313-17.65625-17.65625v-44.136719c0-9.710938 7.945313-17.65625 17.65625-17.65625 9.710938 0 17.65625 7.945312 17.65625 17.65625v44.136719c0 9.710937-7.945312 17.65625-17.65625 17.65625zm0 0" fill="#7383bf"/><path d="m105.941406 264.828125c-2.78125 0-5.527344-1.308594-7.238281-3.769531-2.800781-3.992188-1.828125-9.5 2.167969-12.296875l88.277344-61.792969c4-2.796875 9.5-1.835938 12.296874 2.171875 2.796876 3.988281 1.828126 9.496094-2.171874 12.296875l-88.273438 61.792969c-1.546875 1.078125-3.3125 1.597656-5.058594 1.597656zm0 0" fill="#afb6bb"/><path d="m326.621094 264.828125c-2.4375 0-4.855469-1-6.601563-2.957031-3.242187-3.648438-2.914062-9.226563.730469-12.464844l79.449219-70.621094c3.644531-3.230468 9.222656-2.914062 12.464843.734375 3.238282 3.644531 2.914063 9.222657-.734374 12.460938l-79.449219 70.621093c-1.675781 1.492188-3.769531 2.226563-5.859375 2.226563zm0 0" fill="#afb6bb"/><path d="m286.71875 250.464844c-1.613281 0-3.246094-.441406-4.710938-1.367188l-74.867187-47.429687c-4.125-2.605469-5.34375-8.070313-2.738281-12.183594 2.605468-4.121094 8.058594-5.332031 12.183594-2.738281l74.867187 47.433594c4.121094 2.601562 5.339844 8.066406 2.734375 12.179687-1.683594 2.648437-4.546875 4.105469-7.46875 4.105469zm0 0" fill="#afb6bb"/><path d="m123.585938 264.828125c0 14.625-11.855469 26.480469-26.484376 26.480469-14.625 0-26.480468-11.855469-26.480468-26.480469s11.855468-26.484375 26.480468-26.484375c14.628907 0 26.484376 11.859375 26.484376 26.484375zm0 0" fill="#cc4b4c"/><path d="m441.378906 176.550781c0 14.628907-11.855468 26.484375-26.480468 26.484375-14.628907 0-26.484376-11.855468-26.484376-26.484375 0-14.625 11.855469-26.480469 26.484376-26.480469 14.625 0 26.480468 11.855469 26.480468 26.480469zm0 0" fill="#cc4b4c"/><path d="m229.515625 194.207031c0 14.625-11.855469 26.484375-26.480469 26.484375s-26.484375-11.859375-26.484375-26.484375 11.859375-26.484375 26.484375-26.484375 26.480469 11.859375 26.480469 26.484375zm0 0" fill="#cc4b4c"/><path d="m335.449219 256c0 14.625-11.859375 26.484375-26.484375 26.484375s-26.480469-11.859375-26.480469-26.484375 11.855469-26.484375 26.480469-26.484375 26.484375 11.859375 26.484375 26.484375zm0 0" fill="#cc4b4c"/></svg>