<svg height="512pt" viewBox="0 0 512 512" width="512pt" xmlns="http://www.w3.org/2000/svg"><path d="m158.898438 97.101562c-4.875 0-8.828126-3.945312-8.828126-8.824218v-44.140625c0-4.878907 3.953126-8.828125 8.828126-8.828125 4.871093 0 8.824218 3.949218 8.824218 8.828125v44.140625c0 4.878906-3.953125 8.824218-8.824218 8.824218zm0 0" fill="#e7eced"/><path d="m353.101562 97.101562c-4.871093 0-8.824218-3.945312-8.824218-8.824218v-44.140625c0-4.878907 3.953125-8.828125 8.824218-8.828125 4.875 0 8.828126 3.949218 8.828126 8.828125v44.140625c0 4.878906-3.953126 8.824218-8.828126 8.824218zm0 0" fill="#e7eced"/><path d="m256 97.101562c-4.871094 0-8.828125-3.945312-8.828125-8.824218v-44.140625c0-4.878907 3.957031-8.828125 8.828125-8.828125s8.828125 3.949218 8.828125 8.828125v44.140625c0 4.878906-3.957031 8.824218-8.828125 8.824218zm0 0" fill="#e7eced"/><path d="m353.101562 476.691406c-4.871093 0-8.824218-3.949218-8.824218-8.828125v-44.140625c0-4.878906 3.953125-8.824218 8.824218-8.824218 4.875 0 8.828126 3.945312 8.828126 8.824218v44.140625c0 4.878907-3.953126 8.828125-8.828126 8.828125zm0 0" fill="#e7eced"/><path d="m158.898438 476.691406c-4.875 0-8.828126-3.949218-8.828126-8.828125v-44.140625c0-4.878906 3.953126-8.824218 8.828126-8.824218 4.871093 0 8.824218 3.945312 8.824218 8.824218v44.140625c0 4.878907-3.953125 8.828125-8.824218 8.828125zm0 0" fill="#e7eced"/><path d="m256 476.691406c-4.871094 0-8.828125-3.949218-8.828125-8.828125v-44.140625c0-4.878906 3.957031-8.824218 8.828125-8.824218s8.828125 3.945312 8.828125 8.824218v44.140625c0 4.878907-3.957031 8.828125-8.828125 8.828125zm0 0" fill="#e7eced"/><path d="m476.691406 167.722656h-52.96875c-4.871094 0-8.824218-3.945312-8.824218-8.824218 0-4.882813 3.953124-8.828126 8.824218-8.828126h52.96875c4.871094 0 8.824219 3.945313 8.824219 8.828126 0 4.878906-3.953125 8.824218-8.824219 8.824218zm0 0" fill="#e7eced"/><path d="m476.691406 361.929688h-52.96875c-4.871094 0-8.824218-3.945313-8.824218-8.828126 0-4.878906 3.953124-8.824218 8.824218-8.824218h52.96875c4.871094 0 8.824219 3.945312 8.824219 8.824218 0 4.882813-3.953125 8.828126-8.824219 8.828126zm0 0" fill="#e7eced"/><path d="m476.691406 264.828125h-52.96875c-4.871094 0-8.824218-3.945313-8.824218-8.828125s3.953124-8.828125 8.824218-8.828125h52.96875c4.871094 0 8.824219 3.945313 8.824219 8.828125s-3.953125 8.828125-8.824219 8.828125zm0 0" fill="#e7eced"/><path d="m88.277344 361.929688h-44.140625c-4.871094 0-8.828125-3.945313-8.828125-8.828126 0-4.878906 3.957031-8.824218 8.828125-8.824218h44.140625c4.871094 0 8.824218 3.945312 8.824218 8.824218 0 4.882813-3.953124 8.828126-8.824218 8.828126zm0 0" fill="#e7eced"/><path d="m88.277344 167.722656h-44.140625c-4.871094 0-8.828125-3.945312-8.828125-8.824218 0-4.882813 3.957031-8.828126 8.828125-8.828126h44.140625c4.871094 0 8.824218 3.945313 8.824218 8.828126 0 4.878906-3.953124 8.824218-8.824218 8.824218zm0 0" fill="#e7eced"/><path d="m88.277344 264.828125h-44.140625c-4.871094 0-8.828125-3.945313-8.828125-8.828125s3.957031-8.828125 8.828125-8.828125h44.140625c4.871094 0 8.824218 3.945313 8.824218 8.828125s-3.953124 8.828125-8.824218 8.828125zm0 0" fill="#e7eced"/><path d="m379.589844 423.722656h-52.964844v-52.964844h52.964844zm0 0" fill="#4e5f72"/><path d="m185.382812 423.722656h-52.964843v-52.964844h52.964843zm0 0" fill="#4e5f72"/><path d="m282.484375 423.722656h-52.964844v-52.964844h52.964844zm0 0" fill="#4e5f72"/><path d="m423.722656 132.410156v52.964844h-44.136718v-52.964844zm0 0" fill="#4e5f72"/><path d="m423.722656 326.617188v52.964843h-44.136718v-52.964843zm0 0" fill="#4e5f72"/><path d="m423.722656 229.515625v52.964844h-44.136718v-52.964844zm0 0" fill="#4e5f72"/><path d="m88.277344 379.585938v-52.964844h44.136718v52.964844zm0 0" fill="#4e5f72"/><path d="m88.277344 185.378906v-52.964844h44.136718v52.964844zm0 0" fill="#4e5f72"/><path d="m88.277344 282.484375v-52.96875h44.136718v52.96875zm0 0" fill="#4e5f72"/><path d="m132.414062 88.277344h52.964844v44.136718h-52.964844zm0 0" fill="#4e5f72"/><path d="m326.621094 88.277344h52.964844v44.136718h-52.964844zm0 0" fill="#4e5f72"/><path d="m229.515625 88.277344h52.96875v44.136718h-52.96875zm0 0" fill="#4e5f72"/><path d="m123.585938 123.585938h264.828124v264.828124h-264.828124zm0 0" fill="#28384c"/><path d="m194.207031 167.722656h-17.65625c-4.871093 0-8.828125-3.945312-8.828125-8.824218 0-4.882813 3.957032-8.828126 8.828125-8.828126h17.65625c4.871094 0 8.828125 3.945313 8.828125 8.828126 0 4.878906-3.957031 8.824218-8.828125 8.824218zm0 0" fill="#4e5f72"/><path d="m264.828125 167.722656h-17.65625c-4.871094 0-8.828125-3.945312-8.828125-8.824218 0-4.882813 3.957031-8.828126 8.828125-8.828126h17.65625c4.871094 0 8.828125 3.945313 8.828125 8.828126 0 4.878906-3.957031 8.824218-8.828125 8.824218zm0 0" fill="#4e5f72"/><path d="m176.550781 203.035156h-17.652343c-4.875 0-8.828126-3.945312-8.828126-8.828125 0-4.882812 3.953126-8.828125 8.828126-8.828125h17.652343c4.875 0 8.828125 3.945313 8.828125 8.828125 0 4.882813-3.953125 8.828125-8.828125 8.828125zm0 0" fill="#4e5f72"/><path d="m353.101562 203.035156h-17.652343c-4.875 0-8.828125-3.945312-8.828125-8.828125 0-4.882812 3.953125-8.828125 8.828125-8.828125h17.652343c4.875 0 8.828126 3.945313 8.828126 8.828125 0 4.882813-3.953126 8.828125-8.828126 8.828125zm0 0" fill="#4e5f72"/><path d="m176.550781 326.621094h-17.652343c-4.875 0-8.828126-3.945313-8.828126-8.828125 0-4.882813 3.953126-8.828125 8.828126-8.828125h17.652343c4.875 0 8.828125 3.945312 8.828125 8.828125 0 4.882812-3.953125 8.828125-8.828125 8.828125zm0 0" fill="#4e5f72"/><path d="m353.101562 326.621094h-17.652343c-4.875 0-8.828125-3.945313-8.828125-8.828125 0-4.882813 3.953125-8.828125 8.828125-8.828125h17.652343c4.875 0 8.828126 3.945312 8.828126 8.828125 0 4.882812-3.953126 8.828125-8.828126 8.828125zm0 0" fill="#4e5f72"/><path d="m335.449219 167.722656h-17.65625c-4.871094 0-8.828125-3.945312-8.828125-8.824218 0-4.882813 3.957031-8.828126 8.828125-8.828126h17.65625c4.871093 0 8.828125 3.945313 8.828125 8.828126 0 4.878906-3.957032 8.824218-8.828125 8.824218zm0 0" fill="#4e5f72"/><path d="m335.449219 361.929688h-17.65625c-4.871094 0-8.828125-3.945313-8.828125-8.828126 0-4.878906 3.957031-8.824218 8.828125-8.824218h17.65625c4.871093 0 8.828125 3.945312 8.828125 8.824218 0 4.882813-3.957032 8.828126-8.828125 8.828126zm0 0" fill="#4e5f72"/><path d="m264.828125 361.929688h-17.65625c-4.871094 0-8.828125-3.945313-8.828125-8.828126 0-4.878906 3.957031-8.824218 8.828125-8.824218h17.65625c4.871094 0 8.828125 3.945312 8.828125 8.824218 0 4.882813-3.957031 8.828126-8.828125 8.828126zm0 0" fill="#4e5f72"/><path d="m194.207031 361.929688h-17.65625c-4.871093 0-8.828125-3.945313-8.828125-8.828126 0-4.878906 3.957032-8.824218 8.828125-8.824218h17.65625c4.871094 0 8.828125 3.945312 8.828125 8.824218 0 4.882813-3.957031 8.828126-8.828125 8.828126zm0 0" fill="#4e5f72"/><g fill="#ebba16"><path d="m282.484375 26.484375c0 14.625-11.859375 26.480469-26.484375 26.480469s-26.484375-11.855469-26.484375-26.480469c0-14.628906 11.859375-26.484375 26.484375-26.484375s26.484375 11.855469 26.484375 26.484375zm0 0"/><path d="m379.585938 26.484375c0 14.625-11.855469 26.480469-26.484376 26.480469-14.625 0-26.480468-11.855469-26.480468-26.480469 0-14.628906 11.855468-26.484375 26.480468-26.484375 14.628907 0 26.484376 11.855469 26.484376 26.484375zm0 0"/><path d="m185.378906 26.484375c0 14.625-11.855468 26.480469-26.480468 26.480469-14.628907 0-26.484376-11.855469-26.484376-26.480469 0-14.628906 11.855469-26.484375 26.484376-26.484375 14.625 0 26.480468 11.855469 26.480468 26.484375zm0 0"/><path d="m282.484375 485.515625c0 14.628906-11.859375 26.484375-26.484375 26.484375s-26.484375-11.855469-26.484375-26.484375c0-14.625 11.859375-26.480469 26.484375-26.480469s26.484375 11.855469 26.484375 26.480469zm0 0"/><path d="m185.378906 485.515625c0 14.628906-11.855468 26.484375-26.480468 26.484375-14.628907 0-26.484376-11.855469-26.484376-26.484375 0-14.625 11.855469-26.480469 26.484376-26.480469 14.625 0 26.480468 11.855469 26.480468 26.480469zm0 0"/><path d="m379.585938 485.515625c0 14.628906-11.855469 26.484375-26.484376 26.484375-14.625 0-26.480468-11.855469-26.480468-26.484375 0-14.625 11.855468-26.480469 26.480468-26.480469 14.628907 0 26.484376 11.855469 26.484376 26.480469zm0 0"/><path d="m512 256c0 14.625-11.855469 26.484375-26.484375 26.484375-14.625 0-26.480469-11.859375-26.480469-26.484375s11.855469-26.484375 26.480469-26.484375c14.628906 0 26.484375 11.859375 26.484375 26.484375zm0 0"/><path d="m512 353.101562c0 14.628907-11.855469 26.484376-26.484375 26.484376-14.625 0-26.480469-11.855469-26.480469-26.484376 0-14.625 11.855469-26.480468 26.480469-26.480468 14.628906 0 26.484375 11.855468 26.484375 26.480468zm0 0"/><path d="m512 158.898438c0 14.625-11.855469 26.480468-26.484375 26.480468-14.625 0-26.480469-11.855468-26.480469-26.480468 0-14.628907 11.855469-26.484376 26.480469-26.484376 14.628906 0 26.484375 11.855469 26.484375 26.484376zm0 0"/><path d="m52.964844 256c0 14.625-11.855469 26.484375-26.480469 26.484375-14.628906 0-26.484375-11.859375-26.484375-26.484375s11.855469-26.484375 26.484375-26.484375c14.625 0 26.480469 11.859375 26.480469 26.484375zm0 0"/><path d="m52.964844 158.898438c0 14.625-11.855469 26.480468-26.480469 26.480468-14.628906 0-26.484375-11.855468-26.484375-26.480468 0-14.628907 11.855469-26.484376 26.484375-26.484376 14.625 0 26.480469 11.855469 26.480469 26.484376zm0 0"/><path d="m52.964844 353.101562c0 14.628907-11.855469 26.484376-26.480469 26.484376-14.628906 0-26.484375-11.855469-26.484375-26.484376 0-14.625 11.855469-26.480468 26.484375-26.480468 14.625 0 26.480469 11.855468 26.480469 26.480468zm0 0"/><path d="m203.035156 203.035156h105.929688v105.929688h-105.929688zm0 0"/></g><path d="m273.65625 264.828125h-35.3125c-4.871094 0-8.828125-3.945313-8.828125-8.828125s3.957031-8.828125 8.828125-8.828125h35.3125c4.871094 0 8.828125 3.945313 8.828125 8.828125s-3.957031 8.828125-8.828125 8.828125zm0 0" fill="#fff"/></svg>