<svg enable-background="new 0 0 34 58" height="512" viewBox="0 0 34 58" width="512" xmlns="http://www.w3.org/2000/svg"><path d="m10.068 44.211c0 .528 0 2.178.127 2.789h20.8c.063-.592.001-2.219.005-2.737v-1.263c2.827-3.782 2.991-2.737 3-11.421v-8.842c-.009-1.68-1.314-3.789-3.202-3.789-1.862-.001-2.798 2.372-2.798 4.052v-3.789c0-1.68-1.607-4.053-3.546-4.053-1.81 0-3.434 2.162-3.434 3.842l-.02-2.526c0-1.68-.926-3.842-2.814-3.842-1.835 0-3.186 1.688-3.186 3.368v-12c0-1.842-1.192-4-3.054-4-1.835 0-2.956 2.158-2.946 4v22c-.01.106-1.487-6.411-3.784-8.717-1.893-1.9-7.31-.628-4.348 3.491 2.075 2.885 2.918 8.85 2.918 12.067 0 7.782 6.283 10.105 6.283 10.105v1.265z" fill="#fbce9d"/><path d="m28 27c-.552 0-1-.448-1-1v-5c0-.552.448-1 1-1s1 .448 1 1v5c0 .552-.448 1-1 1z" fill="#ea7f5f"/><path d="m21 25c-.552 0-1-.448-1-1v-5c0-.552.448-1 1-1s1 .448 1 1v5c0 .552-.448 1-1 1z" fill="#ea7f5f"/><path d="m15 25c-.552 0-1-.448-1-1v-8c0-.552.448-1 1-1s1 .448 1 1v8c0 .552-.448 1-1 1z" fill="#ea7f5f"/><path d="m8 46h25v12h-25z" fill="#e7eced"/><path d="m25 50h4v4h-4z" fill="#dd352e"/><g fill="#afb6bb"><path d="m16 51h-4c-.552 0-1-.448-1-1s.448-1 1-1h4c.552 0 1 .448 1 1s-.448 1-1 1z"/><path d="m21 51h-1c-.552 0-1-.448-1-1s.448-1 1-1h1c.552 0 1 .448 1 1s-.448 1-1 1z"/><path d="m21 55h-4c-.552 0-1-.448-1-1s.448-1 1-1h4c.552 0 1 .448 1 1s-.448 1-1 1z"/><path d="m13 55h-1c-.552 0-1-.448-1-1s.448-1 1-1h1c.552 0 1 .448 1 1s-.448 1-1 1z"/></g></svg>