<?xml version="1.0" encoding="iso-8859-1"?>
<!-- Generator: Adobe Illustrator 19.0.0, SVG Export Plug-In . SVG Version: 6.00 Build 0)  -->
<svg version="1.1" id="Capa_1" xmlns="http://www.w3.org/2000/svg" xmlns:xlink="http://www.w3.org/1999/xlink" x="0px" y="0px"
	 viewBox="0 0 512 512" style="enable-background:new 0 0 512 512;" xml:space="preserve">
<path style="fill:#2D711D;" d="M379.577,512H167.724V0h211.853c14.627,0,26.492,11.864,26.492,26.492v459.017
	C406.069,500.136,394.205,512,379.577,512z"/>
<polygon style="fill:#205113;" points="105.931,0 105.931,35.31 141.241,35.31 141.241,476.69 105.931,476.69 105.931,512 
	176.552,512 176.552,476.69 176.552,35.31 176.552,0 "/>
<g>
	<rect x="335.448" y="35.31" style="fill:#FFFFFF;" width="35.31" height="35.31"/>
	<rect x="335.448" y="441.379" style="fill:#FFFFFF;" width="35.31" height="35.31"/>
</g>
<g>
	<path style="fill:#E9CE43;" d="M229.517,105.931c-4.873,0-8.828-3.955-8.828-8.828V79.448c0-4.873,3.955-8.828,8.828-8.828
		s8.828,3.955,8.828,8.828v17.655C238.345,101.976,234.39,105.931,229.517,105.931z"/>
	<path style="fill:#E9CE43;" d="M300.138,105.931c-4.873,0-8.828-3.955-8.828-8.828V79.448c0-4.873,3.955-8.828,8.828-8.828
		s8.828,3.955,8.828,8.828v17.655C308.966,101.976,305.011,105.931,300.138,105.931z"/>
	<path style="fill:#E9CE43;" d="M264.828,105.931c-4.873,0-8.828-3.955-8.828-8.828V79.448c0-4.873,3.955-8.828,8.828-8.828
		s8.828,3.955,8.828,8.828v17.655C273.655,101.976,269.7,105.931,264.828,105.931z"/>
	<path style="fill:#E9CE43;" d="M229.517,176.552c-4.873,0-8.828-3.955-8.828-8.828v-17.655c0-4.873,3.955-8.828,8.828-8.828
		s8.828,3.955,8.828,8.828v17.655C238.345,172.597,234.39,176.552,229.517,176.552z"/>
	<path style="fill:#E9CE43;" d="M300.138,176.552c-4.873,0-8.828-3.955-8.828-8.828v-17.655c0-4.873,3.955-8.828,8.828-8.828
		s8.828,3.955,8.828,8.828v17.655C308.966,172.597,305.011,176.552,300.138,176.552z"/>
	<path style="fill:#E9CE43;" d="M264.828,176.552c-4.873,0-8.828-3.955-8.828-8.828v-17.655c0-4.873,3.955-8.828,8.828-8.828
		s8.828,3.955,8.828,8.828v17.655C273.655,172.597,269.7,176.552,264.828,176.552z"/>
	<path style="fill:#E9CE43;" d="M229.517,370.759c-4.873,0-8.828-3.955-8.828-8.828v-17.655c0-4.873,3.955-8.828,8.828-8.828
		s8.828,3.955,8.828,8.828v17.655C238.345,366.804,234.39,370.759,229.517,370.759z"/>
	<path style="fill:#E9CE43;" d="M300.138,370.759c-4.873,0-8.828-3.955-8.828-8.828v-17.655c0-4.873,3.955-8.828,8.828-8.828
		s8.828,3.955,8.828,8.828v17.655C308.966,366.804,305.011,370.759,300.138,370.759z"/>
	<path style="fill:#E9CE43;" d="M264.828,370.759c-4.873,0-8.828-3.955-8.828-8.828v-17.655c0-4.873,3.955-8.828,8.828-8.828
		s8.828,3.955,8.828,8.828v17.655C273.655,366.804,269.7,370.759,264.828,370.759z"/>
	<path style="fill:#E9CE43;" d="M229.517,441.379c-4.873,0-8.828-3.955-8.828-8.828v-17.655c0-4.873,3.955-8.828,8.828-8.828
		s8.828,3.955,8.828,8.828v17.655C238.345,437.425,234.39,441.379,229.517,441.379z"/>
	<path style="fill:#E9CE43;" d="M300.138,441.379c-4.873,0-8.828-3.955-8.828-8.828v-17.655c0-4.873,3.955-8.828,8.828-8.828
		s8.828,3.955,8.828,8.828v17.655C308.966,437.425,305.011,441.379,300.138,441.379z"/>
	<path style="fill:#E9CE43;" d="M264.828,441.379c-4.873,0-8.828-3.955-8.828-8.828v-17.655c0-4.873,3.955-8.828,8.828-8.828
		s8.828,3.955,8.828,8.828v17.655C273.655,437.425,269.7,441.379,264.828,441.379z"/>
	<path style="fill:#E9CE43;" d="M229.517,238.345c-4.873,0-8.828-3.955-8.828-8.828v-17.655c0-4.873,3.955-8.828,8.828-8.828
		s8.828,3.955,8.828,8.828v17.655C238.345,234.39,234.39,238.345,229.517,238.345z"/>
	<path style="fill:#E9CE43;" d="M300.138,238.345c-4.873,0-8.828-3.955-8.828-8.828v-17.655c0-4.873,3.955-8.828,8.828-8.828
		s8.828,3.955,8.828,8.828v17.655C308.966,234.39,305.011,238.345,300.138,238.345z"/>
	<path style="fill:#E9CE43;" d="M264.828,238.345c-4.873,0-8.828-3.955-8.828-8.828v-17.655c0-4.873,3.955-8.828,8.828-8.828
		s8.828,3.955,8.828,8.828v17.655C273.655,234.39,269.7,238.345,264.828,238.345z"/>
	<path style="fill:#E9CE43;" d="M229.517,308.966c-4.873,0-8.828-3.955-8.828-8.828v-17.655c0-4.873,3.955-8.828,8.828-8.828
		s8.828,3.955,8.828,8.828v17.655C238.345,305.011,234.39,308.966,229.517,308.966z"/>
	<path style="fill:#E9CE43;" d="M300.138,308.966c-4.873,0-8.828-3.955-8.828-8.828v-17.655c0-4.873,3.955-8.828,8.828-8.828
		s8.828,3.955,8.828,8.828v17.655C308.966,305.011,305.011,308.966,300.138,308.966z"/>
	<path style="fill:#E9CE43;" d="M264.828,308.966c-4.873,0-8.828-3.955-8.828-8.828v-17.655c0-4.873,3.955-8.828,8.828-8.828
		s8.828,3.955,8.828,8.828v17.655C273.655,305.011,269.7,308.966,264.828,308.966z"/>
	<rect x="370.759" y="105.931" style="fill:#E9CE43;" width="35.31" height="300.138"/>
</g>
<g>
	<rect x="211.862" y="97.103" style="fill:#373F4A;" width="105.931" height="52.966"/>
	<rect x="211.862" y="361.931" style="fill:#373F4A;" width="105.931" height="52.966"/>
	<rect x="211.862" y="229.517" style="fill:#373F4A;" width="105.931" height="52.966"/>
</g>
<g>
</g>
<g>
</g>
<g>
</g>
<g>
</g>
<g>
</g>
<g>
</g>
<g>
</g>
<g>
</g>
<g>
</g>
<g>
</g>
<g>
</g>
<g>
</g>
<g>
</g>
<g>
</g>
<g>
</g>
</svg>
