<svg height="512pt" viewBox="0 0 512.00441 512" width="512pt" xmlns="http://www.w3.org/2000/svg"><path d="m251.179688 83.730469c3.492187-5.578125 5.25-12.046875 4.5625-18.820313-1.714844-16.886718-19.042969-26.800781-31.066407-36.632812-8.933593-7.300782-17.855469-14.609375-26.789062-21.910156-12.261719-10.027344-30.164063-7.980469-39.988281 4.546874-7.9375 10.140626-8.035157 23.992188-1.335938 34.25-33.3125 6.972657-66.136719 21.203126-94.109375 49.851563-83.269531 85.253906-83.269531 223.972656 0 309.21875 31.152344 31.902344 70.339844 52.90625 113.328125 60.761719 1.6875.308594 3.371094.46875 5.03125.46875 13.523438 0 25.519531-9.898438 27.976562-23.984375 2.761719-15.8125-7.539062-30.925781-23.007812-33.75-31.460938-5.746094-60.183594-21.167969-83.058594-44.585938-61.128906-62.589843-61.128906-164.414062 0-226.996093 14.804688-15.15625 32.195313-24.519532 50.902344-30.285157-3.945312 10.417969-1.84375 22.6875 6.371094 31.082031 5.554687 5.683594 12.835937 8.519532 20.121094 8.519532 7.28125 0 14.5625-2.84375 20.117187-8.519532 15.660156-16.003906 31.867187-31.613281 47.03125-48.085937 1.476563-1.613281 2.78125-3.316406 3.914063-5.128906zm0 0" fill="#366db6"/><g fill="#1f436d"><path d="m61.597656 146.179688c-1.75 0-3.515625-.523438-5.058594-1.597657-3.992187-2.800781-4.960937-8.300781-2.164062-12.308593 25.601562-36.527344 63.125-60.175782 111.546875-70.292969 4.800781-1.007813 9.453125 2.066406 10.441406 6.832031 1 4.769531-2.066406 9.445312-6.832031 10.445312-43.882812 9.171876-77.761719 30.410157-100.695312 63.152344-1.722657 2.453125-4.457032 3.769532-7.238282 3.769532zm0 0"/><path d="m58.941406 365.199219c-2.90625 0-5.75-1.429688-7.445312-4.058594-37.074219-57.761719-43.589844-131.867187-16.984375-193.40625 1.933593-4.484375 7.144531-6.53125 11.609375-4.597656 4.476562 1.933593 6.535156 7.132812 4.601562 11.597656-24.304687 56.222656-18.308594 123.992187 15.632813 176.871094 2.628906 4.105469 1.445312 9.558593-2.65625 12.199219-1.476563.945312-3.125 1.394531-4.757813 1.394531zm0 0"/><path d="m180.820312 447.800781c-.519531 0-1.046874-.046875-1.578124-.144531-38.816407-7-75.441407-26.667969-103.132813-55.355469-3.382813-3.503906-3.285156-9.09375.21875-12.484375 3.507813-3.386718 9.101563-3.273437 12.484375.222656 25.132812 26.050782 58.359375 43.898438 93.554688 50.238282 4.792968.875 7.988281 5.453125 7.125 10.257812-.761719 4.273438-4.476563 7.265625-8.671876 7.265625zm0 0"/><path d="m260.816406 428.273438c-3.496094 5.578124-5.25 12.050781-4.5625 18.820312 1.710938 16.886719 19.039063 26.800781 31.0625 36.632812 8.933594 7.300782 17.859375 14.609376 26.792969 21.910157 12.261719 10.027343 30.171875 7.980469 40-4.546875 7.933594-10.140625 8.03125-23.992188 1.332031-34.25 33.316406-6.972656 66.136719-21.203125 94.109375-49.847656 83.269531-85.257813 83.269531-223.972657 0-309.222657-31.152343-31.902343-70.335937-52.902343-113.328125-60.761719-1.695312-.308593-3.371094-.464843-5.03125-.464843-13.523437 0-25.519531 9.894531-27.976562 23.984375-2.761719 15.808594 7.539062 30.921875 23.007812 33.746094 31.460938 5.746093 60.183594 21.167968 83.058594 44.589843 61.128906 62.585938 61.128906 164.414063 0 226.992188-14.804688 15.15625-32.195312 24.523437-50.902344 30.285156 3.945313-10.414063 1.847656-22.683594-6.371094-31.082031-5.554687-5.683594-12.835937-8.515625-20.121093-8.515625-7.28125 0-14.5625 2.839843-20.117188 8.515625-15.660156 16.007812-31.867187 31.613281-47.03125 48.085937-1.484375 1.613281-2.789062 3.320313-3.921875 5.128907zm0 0"/></g><path d="m344.265625 450.210938c-4.097656 0-7.761719-2.863282-8.632813-7.027344-1-4.769532 2.0625-9.445313 6.832032-10.445313 43.882812-9.171875 77.761718-30.410156 100.695312-63.152343 2.789063-3.980469 8.296875-4.960938 12.296875-2.160157 3.988281 2.796875 4.960938 8.296875 2.164063 12.304688-25.601563 36.527343-63.128906 60.175781-111.546875 70.292969-.609375.125-1.210938.1875-1.808594.1875zm0 0" fill="#153554"/><path d="m469.371094 349.601562c-1.175782 0-2.359375-.230468-3.496094-.722656-4.476562-1.933594-6.535156-7.132812-4.601562-11.601562 24.304687-56.222656 18.316406-123.992188-15.632813-176.867188-2.628906-4.105468-1.449219-9.5625 2.65625-12.203125 4.113281-2.636719 9.5625-1.4375 12.199219 2.667969 37.078125 57.757812 43.59375 131.867188 16.984375 193.402344-1.445313 3.328125-4.695313 5.324218-8.109375 5.324218zm0 0" fill="#153554"/><path d="m429.523438 134.667969c-2.316407 0-4.617188-.910157-6.359376-2.703125-25.128906-26.050782-58.359374-43.898438-93.554687-50.238282-4.792969-.871093-7.988281-5.453124-7.121094-10.257812.863281-4.792969 5.472657-7.988281 10.257813-7.121094 38.8125 7 75.4375 26.667969 103.132812 55.355469 3.378906 3.507813 3.28125 9.09375-.222656 12.484375-1.710938 1.660156-3.925781 2.480469-6.132812 2.480469zm0 0" fill="#153554"/></svg>