<?xml version="1.0" encoding="UTF-8" standalone="no"?>
<svg
   xmlns:dc="http://purl.org/dc/elements/1.1/"
   xmlns:cc="http://creativecommons.org/ns#"
   xmlns:rdf="http://www.w3.org/1999/02/22-rdf-syntax-ns#"
   xmlns:svg="http://www.w3.org/2000/svg"
   xmlns="http://www.w3.org/2000/svg"
   xmlns:sodipodi="http://sodipodi.sourceforge.net/DTD/sodipodi-0.dtd"
   xmlns:inkscape="http://www.inkscape.org/namespaces/inkscape"
   enable-background="new 0 0 58 58"
   height="512"
   viewBox="0 0 58 58"
   width="512"
   version="1.1"
   id="svg18"
   sodipodi:docname="save-file.svg"
   inkscape:version="0.92.4 (5da689c313, 2019-01-14)">
  <metadata
     id="metadata24">
    <rdf:RDF>
      <cc:Work
         rdf:about="">
        <dc:format>image/svg+xml</dc:format>
        <dc:type
           rdf:resource="http://purl.org/dc/dcmitype/StillImage" />
      </cc:Work>
    </rdf:RDF>
  </metadata>
  <defs
     id="defs22" />
  <sodipodi:namedview
     pagecolor="#ffffff"
     bordercolor="#666666"
     borderopacity="1"
     objecttolerance="10"
     gridtolerance="10"
     guidetolerance="10"
     inkscape:pageopacity="0"
     inkscape:pageshadow="2"
     inkscape:window-width="1920"
     inkscape:window-height="1017"
     id="namedview20"
     showgrid="false"
     inkscape:zoom="0.4609375"
     inkscape:cx="288.54237"
     inkscape:cy="256"
     inkscape:window-x="-8"
     inkscape:window-y="-8"
     inkscape:window-maximized="1"
     inkscape:current-layer="svg18" />
  <g
     id="g167"
     transform="scale(0.8559322)">
    <path
       id="path2"
       d="m 41.355,0 h -4.728 c 0.01,0.128 0.038,0.247 0.038,0.379 0,2.563 -2.303,5.194 -5,5 C 26.85,5.032 22.123,5.52 17.313,4.828 15.099,4.51 13.73,2.138 13.674,0 H 0 V 58 H 58 V 16.645 Z"
       inkscape:connector-curvature="0"
       style="fill:#4a627c" />
    <path
       id="path4"
       d="M 12,0 H 38 V 20 H 12 Z"
       inkscape:connector-curvature="0"
       style="fill:#e7eced" />
    <path
       id="path6"
       d="M 7,29 H 51 V 58 H 7 Z"
       inkscape:connector-curvature="0"
       style="fill:#f7e6a1" />
    <path
       id="path8"
       d="m 25,8 h 8 v 12 h -8 z"
       inkscape:connector-curvature="0"
       style="fill:#9fa4a5" />
    <g
       id="g16"
       style="fill:#be7c6d">
      <path
         id="path10"
         d="M 39,39 H 19 c -0.552,0 -1,-0.448 -1,-1 0,-0.552 0.448,-1 1,-1 h 20 c 0.552,0 1,0.448 1,1 0,0.552 -0.448,1 -1,1 z"
         inkscape:connector-curvature="0" />
      <path
         id="path12"
         d="M 39,44 H 19 c -0.552,0 -1,-0.448 -1,-1 0,-0.552 0.448,-1 1,-1 h 20 c 0.552,0 1,0.448 1,1 0,0.552 -0.448,1 -1,1 z"
         inkscape:connector-curvature="0" />
      <path
         id="path14"
         d="M 39,49 H 19 c -0.552,0 -1,-0.448 -1,-1 0,-0.552 0.448,-1 1,-1 h 20 c 0.552,0 1,0.448 1,1 0,0.552 -0.448,1 -1,1 z"
         inkscape:connector-curvature="0" />
    </g>
  </g>
  <g
     transform="matrix(0,0.06521864,-0.06521864,0,57.439004,24.687968)"
     id="g81">
    <path
       inkscape:connector-curvature="0"
       id="path2-8"
       d="M 504.986,87.324 426.402,9.517 c -9.346,-9.249 -24.496,-9.249 -33.842,0 L 347.014,54.604 309.533,91.705 68.708,330.109 0,509.424 v 0 0 l 74.751,-28.065 106.393,-39.946 240.823,-238.403 37.481,-37.101 45.546,-45.087 c 9.338,-9.249 9.338,-24.249 -0.008,-33.498 z"
       style="fill:#e7eced" />
    <polygon
       id="polygon4"
       points="68.708,330.109 309.532,91.706 421.967,203.01 181.143,441.405 0,509.424 "
       style="fill:#ebba16" />
    <path
       inkscape:connector-curvature="0"
       id="path6-5"
       d="M 459.448,165.909 347.013,54.604 392.56,9.517 c 9.346,-9.249 24.496,-9.249 33.842,0 l 78.593,77.798 c 9.346,9.249 9.346,24.248 0,33.506 z"
       style="fill:#cb465f" />
    <g
       id="g12">
      <path
         inkscape:connector-curvature="0"
         id="path8-8"
         d="m 231.116,326.576 c -2.279,0 -4.549,-0.875 -6.281,-2.624 -3.427,-3.463 -3.401,-9.055 0.062,-12.491 L 378.276,159.628 c 3.472,-3.427 9.063,-3.41 12.491,0.071 3.427,3.463 3.401,9.055 -0.062,12.491 L 237.326,324.023 c -1.723,1.696 -3.967,2.553 -6.21,2.553 z"
         style="fill:#ffdb76" />
      <path
         inkscape:connector-curvature="0"
         id="path10-0"
         d="m 143.662,413.146 c -2.279,0 -4.549,-0.875 -6.281,-2.624 -3.427,-3.472 -3.401,-9.055 0.062,-12.491 l 56.218,-55.652 c 3.472,-3.419 9.063,-3.419 12.491,0.071 3.427,3.472 3.401,9.055 -0.062,12.491 l -56.218,55.652 c -1.714,1.696 -3.957,2.553 -6.21,2.553 z"
         style="fill:#ffdb76" />
    </g>
    <polygon
       id="polygon14"
       points="179.067,442.191 67.922,332.167 0,509.424 "
       style="fill:#f7e6a1" />
    <polygon
       id="polygon16"
       points="0,509.424 63.399,485.617 24.045,446.661 "
       style="fill:#bf5a45" />
    <polygon
       id="polygon18"
       points="347.013,54.604 459.448,165.909 421.967,203.01 309.532,91.706 "
       style="fill:#e7eced" />
    <g
       id="g20" />
    <g
       id="g22" />
    <g
       id="g24" />
    <g
       id="g26" />
    <g
       id="g28" />
    <g
       id="g30" />
    <g
       id="g32" />
    <g
       id="g34" />
    <g
       id="g36" />
    <g
       id="g38" />
    <g
       id="g40" />
    <g
       id="g42" />
    <g
       id="g44" />
    <g
       id="g46" />
    <g
       id="g48" />
  </g>
</svg>
