<svg enable-background="new 0 0 58 58" height="512" viewBox="0 0 58 58" width="512" xmlns="http://www.w3.org/2000/svg"><path d="m45.5 46.5c-.256 0-.512-.098-.707-.293l-9.5-9.5c-.391-.391-.391-1.023 0-1.414s1.023-.391 1.414 0l9.5 9.5c.391.391.391 1.023 0 1.414-.195.195-.451.293-.707.293z" fill="#e7eced"/><path d="m56.807 56.807c-1.59 1.59-4.193 1.59-5.783 0l-8.674-8.674c-1.59-1.59-1.59-4.193 0-5.783 1.59-1.59 4.193-1.59 5.783 0l8.674 8.674c1.591 1.591 1.591 4.193 0 5.783z" fill="#7383bf"/><path d="m45.49 46.512h8.178v6.134h-8.178z" fill="#556080" transform="matrix(.707 -.707 .707 .707 -20.536 49.579)"/><path d="m35.189 30c-1.396 2.032-3.156 3.793-5.189 5.189 1.457.24 4.237 2.36 5.481 3.336.87.683 2.108.628 2.89-.154s.836-2.019.154-2.89c-.976-1.244-3.096-4.024-3.336-5.481z" fill="#7383bf"/><circle cx="20" cy="20" fill="#c6e2f7" r="20"/><path d="m20 37c-9.374 0-17-7.626-17-17 0-.552.448-1 1-1s1 .448 1 1c0 8.271 6.729 15 15 15s15-6.729 15-15-6.729-15-15-15c-.552 0-1-.448-1-1s.448-1 1-1c9.374 0 17 7.626 17 17s-7.626 17-17 17z" fill="#9ab9cc"/><path d="m12 12h16v16h-16z" fill="#fff"/><path d="m17 17h-1c-.552 0-1-.448-1-1s.448-1 1-1h1c.552 0 1 .448 1 1s-.448 1-1 1z" fill="#dd352e"/><path d="m24 17h-3c-.552 0-1-.448-1-1s.448-1 1-1h3c.552 0 1 .448 1 1s-.448 1-1 1z" fill="#ebba16"/><path d="m17 25h-1c-.552 0-1-.448-1-1s.448-1 1-1h1c.552 0 1 .448 1 1s-.448 1-1 1z" fill="#75348b"/><path d="m24 25h-3c-.552 0-1-.448-1-1s.448-1 1-1h3c.552 0 1 .448 1 1s-.448 1-1 1z" fill="#dc691d"/><path d="m24 21h-1c-.552 0-1-.448-1-1s.448-1 1-1h1c.552 0 1 .448 1 1s-.448 1-1 1z" fill="#366db6"/><path d="m19 21h-3c-.552 0-1-.448-1-1s.448-1 1-1h3c.552 0 1 .448 1 1s-.448 1-1 1z" fill="#57abc1"/></svg>