<?xml version="1.0" encoding="iso-8859-1"?>
<!-- Generator: Adobe Illustrator 19.0.0, SVG Export Plug-In . SVG Version: 6.00 Build 0)  -->
<svg version="1.1" id="Capa_1" xmlns="http://www.w3.org/2000/svg" xmlns:xlink="http://www.w3.org/1999/xlink" x="0px" y="0px"
	 viewBox="0 0 512 512" style="enable-background:new 0 0 512 512;" xml:space="preserve">
<path style="fill:#35495E;" d="M483.31,494.345H28.69c-15.846,0-28.69-12.844-28.69-28.69V364.138
	c0-15.846,12.844-28.69,28.69-28.69H483.31c15.846,0,28.69,12.844,28.69,28.69v101.517C512,481.501,499.156,494.345,483.31,494.345z
	"/>
<path style="fill:#4D6276;" d="M483.31,335.448H28.69c-15.846,0-28.69-12.844-28.69-28.69V205.241
	c0-15.846,12.844-28.69,28.69-28.69H483.31c15.846,0,28.69,12.844,28.69,28.69v101.517C512,322.604,499.156,335.448,483.31,335.448z
	"/>
<path style="fill:#35495E;" d="M483.31,176.552H28.69c-15.846,0-28.69-12.844-28.69-28.69V46.345c0-15.846,12.844-28.69,28.69-28.69
	H483.31c15.846,0,28.69,12.844,28.69,28.69v101.517C512,163.708,499.156,176.552,483.31,176.552z"/>
<path style="fill:#24AE5F;" d="M308.966,70.621H185.379c-4.873,0-8.828-3.946-8.828-8.828s3.955-8.828,8.828-8.828h123.586
	c4.873,0,8.828,3.946,8.828,8.828S313.838,70.621,308.966,70.621z"/>
<path style="fill:#4482C3;" d="M308.966,141.241H185.379c-4.873,0-8.828-3.946-8.828-8.828c0-4.882,3.955-8.828,8.828-8.828h123.586
	c4.873,0,8.828,3.946,8.828,8.828C317.793,137.295,313.838,141.241,308.966,141.241z"/>
<path style="fill:#F0C419;" d="M203.034,105.931h-17.655c-4.873,0-8.828-3.946-8.828-8.828s3.955-8.828,8.828-8.828h17.655
	c4.873,0,8.828,3.946,8.828,8.828S207.907,105.931,203.034,105.931z"/>
<path style="fill:#8697CB;" d="M308.966,105.931H291.31c-4.873,0-8.828-3.946-8.828-8.828s3.955-8.828,8.828-8.828h17.655
	c4.873,0,8.828,3.946,8.828,8.828S313.838,105.931,308.966,105.931z"/>
<g>
	<path style="fill:#E64C3C;" d="M256,105.931h-17.655c-4.873,0-8.828-3.946-8.828-8.828s3.955-8.828,8.828-8.828H256
		c4.873,0,8.828,3.946,8.828,8.828S260.873,105.931,256,105.931z"/>
	<path style="fill:#E64C3C;" d="M370.759,70.621h-17.655c-4.873,0-8.828-3.946-8.828-8.828s3.955-8.828,8.828-8.828h17.655
		c4.873,0,8.828,3.946,8.828,8.828S375.631,70.621,370.759,70.621z"/>
</g>
<path style="fill:#FAC176;" d="M476.69,70.621h-17.655c-4.873,0-8.828-3.946-8.828-8.828s3.955-8.828,8.828-8.828h17.655
	c4.873,0,8.828,3.946,8.828,8.828S481.562,70.621,476.69,70.621z"/>
<path style="fill:#B49ACA;" d="M423.724,70.621h-17.655c-4.873,0-8.828-3.946-8.828-8.828s3.955-8.828,8.828-8.828h17.655
	c4.873,0,8.828,3.946,8.828,8.828S428.597,70.621,423.724,70.621z"/>
<path style="fill:#24AE5F;" d="M370.759,105.931h-17.655c-4.873,0-8.828-3.946-8.828-8.828s3.955-8.828,8.828-8.828h17.655
	c4.873,0,8.828,3.946,8.828,8.828S375.631,105.931,370.759,105.931z"/>
<path style="fill:#E57E25;" d="M476.69,105.931h-17.655c-4.873,0-8.828-3.946-8.828-8.828s3.955-8.828,8.828-8.828h17.655
	c4.873,0,8.828,3.946,8.828,8.828S481.562,105.931,476.69,105.931z"/>
<path style="fill:#4482C3;" d="M423.724,105.931h-17.655c-4.873,0-8.828-3.946-8.828-8.828s3.955-8.828,8.828-8.828h17.655
	c4.873,0,8.828,3.946,8.828,8.828S428.597,105.931,423.724,105.931z"/>
<path style="fill:#F0C419;" d="M370.759,141.241h-17.655c-4.873,0-8.828-3.946-8.828-8.828c0-4.882,3.955-8.828,8.828-8.828h17.655
	c4.873,0,8.828,3.946,8.828,8.828C379.586,137.295,375.631,141.241,370.759,141.241z"/>
<path style="fill:#24AE5F;" d="M476.69,141.241h-17.655c-4.873,0-8.828-3.946-8.828-8.828c0-4.882,3.955-8.828,8.828-8.828h17.655
	c4.873,0,8.828,3.946,8.828,8.828C485.517,137.295,481.562,141.241,476.69,141.241z"/>
<path style="fill:#D25627;" d="M423.724,141.241h-17.655c-4.873,0-8.828-3.946-8.828-8.828c0-4.882,3.955-8.828,8.828-8.828h17.655
	c4.873,0,8.828,3.946,8.828,8.828C432.552,137.295,428.597,141.241,423.724,141.241z"/>
<path style="fill:#24AE5F;" d="M308.966,388.414H185.379c-4.873,0-8.828-3.946-8.828-8.828c0-4.882,3.955-8.828,8.828-8.828h123.586
	c4.873,0,8.828,3.946,8.828,8.828C317.793,384.468,313.838,388.414,308.966,388.414z"/>
<path style="fill:#4482C3;" d="M308.966,459.034H185.379c-4.873,0-8.828-3.946-8.828-8.828c0-4.882,3.955-8.828,8.828-8.828h123.586
	c4.873,0,8.828,3.946,8.828,8.828C317.793,455.089,313.838,459.034,308.966,459.034z"/>
<path style="fill:#F0C419;" d="M203.034,423.724h-17.655c-4.873,0-8.828-3.946-8.828-8.828c0-4.882,3.955-8.828,8.828-8.828h17.655
	c4.873,0,8.828,3.946,8.828,8.828C211.862,419.778,207.907,423.724,203.034,423.724z"/>
<path style="fill:#8697CB;" d="M308.966,423.724H291.31c-4.873,0-8.828-3.946-8.828-8.828c0-4.882,3.955-8.828,8.828-8.828h17.655
	c4.873,0,8.828,3.946,8.828,8.828C317.793,419.778,313.838,423.724,308.966,423.724z"/>
<g>
	<path style="fill:#E64C3C;" d="M256,423.724h-17.655c-4.873,0-8.828-3.946-8.828-8.828c0-4.882,3.955-8.828,8.828-8.828H256
		c4.873,0,8.828,3.946,8.828,8.828C264.828,419.778,260.873,423.724,256,423.724z"/>
	<path style="fill:#E64C3C;" d="M370.759,388.414h-17.655c-4.873,0-8.828-3.946-8.828-8.828c0-4.882,3.955-8.828,8.828-8.828h17.655
		c4.873,0,8.828,3.946,8.828,8.828C379.586,384.468,375.631,388.414,370.759,388.414z"/>
</g>
<path style="fill:#FAC176;" d="M476.69,388.414h-17.655c-4.873,0-8.828-3.946-8.828-8.828c0-4.882,3.955-8.828,8.828-8.828h17.655
	c4.873,0,8.828,3.946,8.828,8.828C485.517,384.468,481.562,388.414,476.69,388.414z"/>
<path style="fill:#B49ACA;" d="M423.724,388.414h-17.655c-4.873,0-8.828-3.946-8.828-8.828c0-4.882,3.955-8.828,8.828-8.828h17.655
	c4.873,0,8.828,3.946,8.828,8.828C432.552,384.468,428.597,388.414,423.724,388.414z"/>
<path style="fill:#24AE5F;" d="M370.759,423.724h-17.655c-4.873,0-8.828-3.946-8.828-8.828c0-4.882,3.955-8.828,8.828-8.828h17.655
	c4.873,0,8.828,3.946,8.828,8.828C379.586,419.778,375.631,423.724,370.759,423.724z"/>
<path style="fill:#E57E25;" d="M476.69,423.724h-17.655c-4.873,0-8.828-3.946-8.828-8.828c0-4.882,3.955-8.828,8.828-8.828h17.655
	c4.873,0,8.828,3.946,8.828,8.828C485.517,419.778,481.562,423.724,476.69,423.724z"/>
<path style="fill:#4482C3;" d="M423.724,423.724h-17.655c-4.873,0-8.828-3.946-8.828-8.828c0-4.882,3.955-8.828,8.828-8.828h17.655
	c4.873,0,8.828,3.946,8.828,8.828C432.552,419.778,428.597,423.724,423.724,423.724z"/>
<path style="fill:#F0C419;" d="M370.759,459.034h-17.655c-4.873,0-8.828-3.946-8.828-8.828c0-4.882,3.955-8.828,8.828-8.828h17.655
	c4.873,0,8.828,3.946,8.828,8.828C379.586,455.089,375.631,459.034,370.759,459.034z"/>
<path style="fill:#24AE5F;" d="M476.69,459.034h-17.655c-4.873,0-8.828-3.946-8.828-8.828c0-4.882,3.955-8.828,8.828-8.828h17.655
	c4.873,0,8.828,3.946,8.828,8.828C485.517,455.089,481.562,459.034,476.69,459.034z"/>
<path style="fill:#D25627;" d="M423.724,459.034h-17.655c-4.873,0-8.828-3.946-8.828-8.828c0-4.882,3.955-8.828,8.828-8.828h17.655
	c4.873,0,8.828,3.946,8.828,8.828C432.552,455.089,428.597,459.034,423.724,459.034z"/>
<path style="fill:#24AE5F;" d="M353.103,282.483H476.69c4.873,0,8.828,3.946,8.828,8.828s-3.955,8.828-8.828,8.828H353.103
	c-4.873,0-8.828-3.946-8.828-8.828S348.231,282.483,353.103,282.483z"/>
<path style="fill:#4482C3;" d="M353.103,211.862H476.69c4.873,0,8.828,3.946,8.828,8.828s-3.955,8.828-8.828,8.828H353.103
	c-4.873,0-8.828-3.946-8.828-8.828S348.231,211.862,353.103,211.862z"/>
<path style="fill:#F0C419;" d="M459.034,247.172h17.655c4.873,0,8.828,3.946,8.828,8.828s-3.955,8.828-8.828,8.828h-17.655
	c-4.873,0-8.828-3.946-8.828-8.828S454.162,247.172,459.034,247.172z"/>
<path style="fill:#8697CB;" d="M353.103,247.172h17.655c4.873,0,8.828,3.946,8.828,8.828s-3.955,8.828-8.828,8.828h-17.655
	c-4.873,0-8.828-3.946-8.828-8.828S348.231,247.172,353.103,247.172z"/>
<g>
	<path style="fill:#E64C3C;" d="M406.069,247.172h17.655c4.873,0,8.828,3.946,8.828,8.828s-3.955,8.828-8.828,8.828h-17.655
		c-4.873,0-8.828-3.946-8.828-8.828S401.196,247.172,406.069,247.172z"/>
	<path style="fill:#E64C3C;" d="M291.31,282.483h17.655c4.873,0,8.828,3.946,8.828,8.828s-3.955,8.828-8.828,8.828H291.31
		c-4.873,0-8.828-3.946-8.828-8.828S286.438,282.483,291.31,282.483z"/>
</g>
<path style="fill:#FAC176;" d="M185.379,282.483h17.655c4.873,0,8.828,3.946,8.828,8.828s-3.955,8.828-8.828,8.828h-17.655
	c-4.873,0-8.828-3.946-8.828-8.828S180.506,282.483,185.379,282.483z"/>
<path style="fill:#B49ACA;" d="M238.345,282.483H256c4.873,0,8.828,3.946,8.828,8.828s-3.955,8.828-8.828,8.828h-17.655
	c-4.873,0-8.828-3.946-8.828-8.828S233.472,282.483,238.345,282.483z"/>
<path style="fill:#24AE5F;" d="M291.31,247.172h17.655c4.873,0,8.828,3.946,8.828,8.828s-3.955,8.828-8.828,8.828H291.31
	c-4.873,0-8.828-3.946-8.828-8.828S286.438,247.172,291.31,247.172z"/>
<path style="fill:#E57E25;" d="M185.379,247.172h17.655c4.873,0,8.828,3.946,8.828,8.828s-3.955,8.828-8.828,8.828h-17.655
	c-4.873,0-8.828-3.946-8.828-8.828S180.506,247.172,185.379,247.172z"/>
<path style="fill:#4482C3;" d="M238.345,247.172H256c4.873,0,8.828,3.946,8.828,8.828s-3.955,8.828-8.828,8.828h-17.655
	c-4.873,0-8.828-3.946-8.828-8.828S233.472,247.172,238.345,247.172z"/>
<path style="fill:#F0C419;" d="M291.31,211.862h17.655c4.873,0,8.828,3.946,8.828,8.828s-3.955,8.828-8.828,8.828H291.31
	c-4.873,0-8.828-3.946-8.828-8.828S286.438,211.862,291.31,211.862z"/>
<path style="fill:#24AE5F;" d="M185.379,211.862h17.655c4.873,0,8.828,3.946,8.828,8.828s-3.955,8.828-8.828,8.828h-17.655
	c-4.873,0-8.828-3.946-8.828-8.828S180.506,211.862,185.379,211.862z"/>
<path style="fill:#D25627;" d="M238.345,211.862H256c4.873,0,8.828,3.946,8.828,8.828s-3.955,8.828-8.828,8.828h-17.655
	c-4.873,0-8.828-3.946-8.828-8.828S233.472,211.862,238.345,211.862z"/>
<path style="fill:#FFFFFF;" d="M141.241,141.241H35.31c-4.873,0-8.828-3.946-8.828-8.828V61.793c0-4.882,3.955-8.828,8.828-8.828
	h105.931c4.873,0,8.828,3.946,8.828,8.828v70.621C150.069,137.295,146.114,141.241,141.241,141.241z"/>
<path style="fill:#E57E25;" d="M105.931,105.931h-35.31c-4.873,0-8.828-3.946-8.828-8.828s3.955-8.828,8.828-8.828h35.31
	c4.873,0,8.828,3.946,8.828,8.828S110.804,105.931,105.931,105.931z"/>
<path style="fill:#FFFFFF;" d="M141.241,300.138H35.31c-4.873,0-8.828-3.946-8.828-8.828V220.69c0-4.882,3.955-8.828,8.828-8.828
	h105.931c4.873,0,8.828,3.946,8.828,8.828v70.621C150.069,296.192,146.114,300.138,141.241,300.138z"/>
<path style="fill:#E57E25;" d="M105.931,264.828h-35.31c-4.873,0-8.828-3.946-8.828-8.828s3.955-8.828,8.828-8.828h35.31
	c4.873,0,8.828,3.946,8.828,8.828S110.804,264.828,105.931,264.828z"/>
<path style="fill:#FFFFFF;" d="M141.241,459.034H35.31c-4.873,0-8.828-3.946-8.828-8.828v-70.621c0-4.882,3.955-8.828,8.828-8.828
	h105.931c4.873,0,8.828,3.946,8.828,8.828v70.621C150.069,455.089,146.114,459.034,141.241,459.034z"/>
<path style="fill:#D25627;" d="M105.931,423.724h-35.31c-4.873,0-8.828-3.946-8.828-8.828c0-4.882,3.955-8.828,8.828-8.828h35.31
	c4.873,0,8.828,3.946,8.828,8.828C114.759,419.778,110.804,423.724,105.931,423.724z"/>
<g>
</g>
<g>
</g>
<g>
</g>
<g>
</g>
<g>
</g>
<g>
</g>
<g>
</g>
<g>
</g>
<g>
</g>
<g>
</g>
<g>
</g>
<g>
</g>
<g>
</g>
<g>
</g>
<g>
</g>
</svg>
