<?xml version="1.0" encoding="iso-8859-1"?>
<!-- Generator: Adobe Illustrator 19.0.0, SVG Export Plug-In . SVG Version: 6.00 Build 0)  -->
<svg version="1.1" id="Capa_1" xmlns="http://www.w3.org/2000/svg" xmlns:xlink="http://www.w3.org/1999/xlink" x="0px" y="0px"
	 viewBox="0 0 512 512" style="enable-background:new 0 0 512 512;" xml:space="preserve">
<polygon style="fill:#BDC3C7;" points="459.034,194.207 441.379,141.241 467.862,88.276 423.724,44.138 361.931,70.621 
	308.966,52.966 282.483,0 256,0 229.517,0 203.034,52.966 150.069,70.621 88.276,44.138 44.138,88.276 70.621,141.241 
	52.966,194.207 0,220.69 0,256 0,291.31 52.966,317.793 70.621,370.759 44.138,423.724 88.276,467.862 150.069,441.379 
	203.034,459.034 229.517,512 256,512 282.483,512 308.966,459.034 361.931,441.379 423.724,467.862 467.862,423.724 
	441.379,370.759 459.034,317.793 512,291.31 512,256 512,220.69 "/>
<circle style="fill:#7F8C8D;" cx="256" cy="256" r="132.414"/>
<g>
	<path style="fill:#BDC3C7;" d="M256,344.276c-4.873,0-8.828-3.955-8.828-8.828s3.955-8.828,8.828-8.828
		c38.938,0,70.621-31.682,70.621-70.621S294.938,185.379,256,185.379S185.379,217.062,185.379,256c0,4.873-3.955,8.828-8.828,8.828
		c-4.873,0-8.828-3.955-8.828-8.828c0-48.675,39.601-88.276,88.276-88.276s88.276,39.601,88.276,88.276S304.675,344.276,256,344.276
		z"/>
	<circle style="fill:#BDC3C7;" cx="256" cy="256" r="26.483"/>
</g>
<g>
</g>
<g>
</g>
<g>
</g>
<g>
</g>
<g>
</g>
<g>
</g>
<g>
</g>
<g>
</g>
<g>
</g>
<g>
</g>
<g>
</g>
<g>
</g>
<g>
</g>
<g>
</g>
<g>
</g>
</svg>
