<?xml version="1.0" encoding="iso-8859-1"?>
<!-- Generator: Adobe Illustrator 19.0.0, SVG Export Plug-In . SVG Version: 6.00 Build 0)  -->
<svg version="1.1" id="Capa_1" xmlns="http://www.w3.org/2000/svg" xmlns:xlink="http://www.w3.org/1999/xlink" x="0px" y="0px"
	 viewBox="0 0 512.004 512.004" style="enable-background:new 0 0 512.004 512.004;" xml:space="preserve">
<g>
	<path style="fill:#6C797A;" d="M406.164,141.155c-6.347-6.347-13.003-12.156-19.88-17.567l37.447-37.455l37.455,37.455
		l-37.455,37.455C418.319,154.158,412.502,147.502,406.164,141.155z"/>
	<path style="fill:#6C797A;" d="M109.195,144.501c6.347-6.347,13.003-12.156,19.88-17.567L84.937,82.796l-37.455,37.455
		l44.138,44.138C97.031,157.504,102.848,150.839,109.195,144.501z"/>
	<path style="fill:#6C797A;" d="M256.007,86.645c8.969,0,17.796,0.6,26.483,1.633V26.485h-52.966v61.793
		C238.21,87.236,247.038,86.645,256.007,86.645z"/>
</g>
<circle style="fill:#AFB6BB;" cx="256.007" cy="291.313" r="220.69"/>
<circle style="fill:#FFFFFF;" cx="256.007" cy="291.313" r="185.379"/>
<g>
	<path style="fill:#E7ECED;" d="M319.459,35.313H192.554c-3.955,0-7.168-3.213-7.168-7.168V7.17c0-3.955,3.213-7.168,7.168-7.168
		h126.905c3.955,0,7.168,3.213,7.168,7.168v20.974C326.627,32.099,323.414,35.313,319.459,35.313z"/>
	<path style="fill:#E7ECED;" d="M105.231,80.051l-60.487,60.487c-2.798,2.798-7.336,2.798-10.143,0L2.099,108.034
		c-2.798-2.798-2.798-7.336,0-10.143l60.478-60.478c2.798-2.798,7.336-2.798,10.143,0l32.512,32.503
		C108.03,72.715,108.03,77.252,105.231,80.051z"/>
</g>
<g>
	<path style="fill:#556080;" d="M256.007,158.899c-4.873,0-8.828-3.955-8.828-8.828v-8.828c0-4.873,3.955-8.828,8.828-8.828
		s8.828,3.955,8.828,8.828v8.828C264.834,154.944,260.879,158.899,256.007,158.899z"/>
	<path style="fill:#556080;" d="M256.007,450.209c-4.873,0-8.828-3.955-8.828-8.828v-8.828c0-4.873,3.955-8.828,8.828-8.828
		s8.828,3.955,8.828,8.828v8.828C264.834,446.254,260.879,450.209,256.007,450.209z"/>
	<path style="fill:#556080;" d="M406.076,300.14h-8.828c-4.873,0-8.828-3.955-8.828-8.828c0-4.873,3.955-8.828,8.828-8.828h8.828
		c4.873,0,8.828,3.955,8.828,8.828C414.903,296.185,410.948,300.14,406.076,300.14z"/>
	<path style="fill:#556080;" d="M114.765,300.14h-8.828c-4.873,0-8.828-3.955-8.828-8.828c0-4.873,3.955-8.828,8.828-8.828h8.828
		c4.873,0,8.828,3.955,8.828,8.828C123.593,296.185,119.638,300.14,114.765,300.14z"/>
	<path style="fill:#556080;" d="M355.882,200.274c-2.26,0-4.52-0.865-6.241-2.578c-3.452-3.452-3.452-9.039,0-12.491l6.241-6.25
		c3.443-3.452,9.039-3.443,12.482,0c3.452,3.452,3.452,9.039,0,12.491l-6.241,6.25C360.402,199.409,358.142,200.274,355.882,200.274
		z"/>
	<path style="fill:#556080;" d="M149.89,406.257c-2.26,0-4.52-0.865-6.241-2.578c-3.452-3.452-3.452-9.039,0-12.491l6.241-6.25
		c3.443-3.443,9.039-3.452,12.482,0c3.452,3.452,3.452,9.039,0,12.491l-6.241,6.25C154.41,405.391,152.15,406.257,149.89,406.257z"
		/>
	<path style="fill:#556080;" d="M362.123,406.257c-2.26,0-4.52-0.865-6.241-2.586l-6.241-6.25c-3.443-3.452-3.443-9.039,0-12.491
		c3.443-3.443,9.039-3.443,12.482,0l6.241,6.25c3.443,3.452,3.443,9.039,0,12.491C366.634,405.391,364.383,406.257,362.123,406.257z
		"/>
	<path style="fill:#556080;" d="M156.131,200.274c-2.26,0-4.52-0.865-6.241-2.586l-6.241-6.25c-3.443-3.452-3.443-9.039,0-12.491
		c3.443-3.443,9.031-3.443,12.482,0l6.241,6.25c3.443,3.452,3.443,9.039,0,12.491C160.651,199.409,158.391,200.274,156.131,200.274z
		"/>
	<path style="fill:#556080;" d="M195.132,437.321c-1.192,0-2.41-0.247-3.575-0.759c-4.458-1.977-6.462-7.194-4.493-11.652
		l3.584-8.068c1.977-4.449,7.194-6.462,11.652-4.484c4.458,1.977,6.462,7.194,4.493,11.652l-3.584,8.068
		C201.752,435.352,198.521,437.321,195.132,437.321z"/>
	<path style="fill:#556080;" d="M313.289,171.037c-1.192,0-2.41-0.247-3.575-0.759c-4.458-1.977-6.462-7.194-4.493-11.652
		l3.584-8.068c1.977-4.449,7.186-6.462,11.652-4.484c4.458,1.977,6.462,7.194,4.493,11.652l-3.584,8.068
		C319.901,169.077,316.67,171.037,313.289,171.037z"/>
	<path style="fill:#556080;" d="M126.903,242.858c-1.201,0-2.41-0.247-3.575-0.759l-8.068-3.584
		c-4.458-1.977-6.462-7.194-4.484-11.652c1.977-4.449,7.203-6.453,11.652-4.484l8.068,3.584c4.458,1.977,6.462,7.194,4.484,11.652
		C133.515,240.907,130.284,242.858,126.903,242.858z"/>
	<path style="fill:#556080;" d="M393.17,361.015c-1.201,0-2.41-0.247-3.575-0.759l-8.068-3.584
		c-4.458-1.977-6.462-7.194-4.484-11.652c1.977-4.458,7.203-6.462,11.652-4.484l8.068,3.584c4.458,1.977,6.462,7.194,4.484,11.652
		C399.781,359.055,396.559,361.015,393.17,361.015z"/>
	<path style="fill:#556080;" d="M115.975,354.103c-3.54,0-6.886-2.154-8.236-5.658c-1.757-4.546,0.512-9.657,5.058-11.414
		l8.236-3.178c4.555-1.748,9.657,0.512,11.414,5.058c1.757,4.546-0.512,9.657-5.058,11.414l-8.236,3.178
		C118.102,353.909,117.034,354.103,115.975,354.103z"/>
	<path style="fill:#556080;" d="M387.802,249.364c-3.549,0-6.885-2.154-8.236-5.658c-1.757-4.546,0.512-9.657,5.058-11.414
		l8.236-3.178c4.555-1.748,9.657,0.512,11.414,5.058s-0.512,9.657-5.058,11.414l-8.236,3.178
		C389.939,249.17,388.862,249.364,387.802,249.364z"/>
	<path style="fill:#556080;" d="M205.23,168.344c-3.549,0-6.894-2.154-8.236-5.658l-3.169-8.236
		c-1.748-4.546,0.512-9.657,5.067-11.405c4.555-1.748,9.657,0.512,11.405,5.067l3.169,8.236c1.748,4.546-0.512,9.657-5.067,11.405
		C207.358,168.15,206.281,168.344,205.23,168.344z"/>
	<path style="fill:#556080;" d="M309.961,440.181c-3.549,0-6.894-2.154-8.236-5.658l-3.169-8.236
		c-1.748-4.546,0.512-9.657,5.067-11.405c4.555-1.757,9.657,0.512,11.405,5.067l3.169,8.236c1.748,4.546-0.512,9.657-5.067,11.405
		C312.088,439.987,311.02,440.181,309.961,440.181z"/>
</g>
<path style="fill:#366DB6;" d="M237.292,281.426c-2.26,0-4.52-0.865-6.241-2.586l-51.906-51.906c-3.452-3.452-3.452-9.031,0-12.482
	c3.443-3.452,9.031-3.452,12.482,0l51.906,51.906c3.452,3.452,3.452,9.031,0,12.482
	C241.812,280.561,239.543,281.426,237.292,281.426z"/>
<path style="fill:#E7ECED;" d="M406.782,80.051l60.478,60.478c2.798,2.798,7.336,2.798,10.143,0l32.503-32.503
	c2.798-2.798,2.798-7.336,0-10.143l-60.478-60.478c-2.798-2.798-7.336-2.798-10.143,0l-32.503,32.512
	C403.983,72.715,403.983,77.252,406.782,80.051z"/>
<circle style="fill:#DD352E;" cx="256.007" cy="291.313" r="26.483"/>
<g>
</g>
<g>
</g>
<g>
</g>
<g>
</g>
<g>
</g>
<g>
</g>
<g>
</g>
<g>
</g>
<g>
</g>
<g>
</g>
<g>
</g>
<g>
</g>
<g>
</g>
<g>
</g>
<g>
</g>
</svg>
