<svg enable-background="new 0 0 58 48.586" height="512" viewBox="0 0 58 48.586" width="512" xmlns="http://www.w3.org/2000/svg"><path d="m40 30v-15-14c0-.552-.448-1-1-1h-38c-.552 0-1 .448-1 1v28c0 .552.448 1 1 1h13 4z" fill="#5469e0"/><path d="m18 16v26c0 .552.448 1 1 1h13l5.293 5.293c.391.391 1.024.391 1.414 0l5.293-5.293h13c.552 0 1-.448 1-1v-26c0-.552-.448-1-1-1h-38c-.552 0-1 .448-1 1z" fill="#ebba16"/><g fill="#9eebf9"><path d="m13 16h-8c-.552 0-1-.448-1-1s.448-1 1-1h8c.552 0 1 .448 1 1s-.448 1-1 1z"/><path d="m13 21h-8c-.552 0-1-.448-1-1s.448-1 1-1h8c.552 0 1 .448 1 1s-.448 1-1 1z"/><path d="m13 26h-8c-.552 0-1-.448-1-1s.448-1 1-1h8c.552 0 1 .448 1 1s-.448 1-1 1z"/><path d="m5 4h30v6h-30z"/></g><path d="m47 37c-.552 0-1-.448-1-1v-2h-7c-.369 0-.708-.203-.882-.528s-.155-.72.05-1.026l8-12c.244-.367.7-.533 1.122-.402.421.126.71.516.71.956v11h1c.552 0 1 .448 1 1s-.448 1-1 1h-1v2c0 .552-.448 1-1 1zm-6.132-5h5.132v-7.697z" fill="#fff"/><path d="m36 37h-9c-.552 0-1-.448-1-1 0-1.265.954-2.754 2.916-4.553 1.319-1.208 2.868-2.645 4.356-4.133l.564-.564c1.051-1.051 1.173-2.687.28-3.724-.854-.992-2.073-1.025-2.124-1.026-2.406 0-4.144 2.532-4.161 2.557-.309.457-.929.58-1.387.272-.458-.307-.581-.925-.276-1.384.094-.14 2.337-3.445 5.832-3.445.088 0 2.165.02 3.631 1.72 1.573 1.827 1.406 4.657-.381 6.444l-.564.564c-1.515 1.515-3.084 2.97-4.418 4.193-.917.84-1.51 1.539-1.859 2.079h7.591c.552 0 1 .448 1 1s-.448 1-1 1z" fill="#fff"/></svg>