<?xml version="1.0" encoding="iso-8859-1"?>
<!-- Generator: Adobe Illustrator 19.0.0, SVG Export Plug-In . SVG Version: 6.00 Build 0)  -->
<svg version="1.1" id="Capa_1" xmlns="http://www.w3.org/2000/svg" xmlns:xlink="http://www.w3.org/1999/xlink" x="0px" y="0px"
	 viewBox="0 0 512 512" style="enable-background:new 0 0 512 512;" xml:space="preserve">
<path style="fill:#D0E8F9;" d="M401.067,384h-307.2C42.112,384,0,341.888,0,290.133c0-52.48,43.238-94.891,96.043-93.841
	c-1.442-5.547-2.176-11.255-2.176-17.092c0-37.641,30.626-68.267,68.267-68.267c7.381,0,14.601,1.186,21.564,3.533
	c21.402-43.887,65.647-71.799,114.97-71.799c68.745,0,125.005,54.485,127.889,122.522C476.476,176.87,512,221.141,512,273.067
	C512,334.234,462.234,384,401.067,384z"/>
<g>
	<path style="fill:#B4CFDF;" d="M503.467,281.6c-4.71,0-8.533-3.814-8.533-8.533c0-51.755-42.112-93.867-93.867-93.867
		S307.2,221.312,307.2,273.067c0,4.719-3.823,8.533-8.533,8.533s-8.533-3.814-8.533-8.533c0-61.167,49.766-110.933,110.933-110.933
		S512,211.9,512,273.067C512,277.786,508.177,281.6,503.467,281.6z"/>
	<path style="fill:#B4CFDF;" d="M187.042,221.858c-3.439,0-6.673-2.082-7.97-5.487c-5.581-14.583-8.405-29.961-8.405-45.705
		c0-70.579,57.421-128,128-128c4.71,0,8.533,3.814,8.533,8.533s-3.823,8.533-8.533,8.533c-61.167,0-110.933,49.766-110.933,110.933
		c0,13.653,2.449,26.982,7.279,39.612c1.681,4.403-0.521,9.335-4.924,11.017C189.09,221.679,188.058,221.858,187.042,221.858z"/>
</g>
<polygon style="fill:#4482C3;" points="221.867,401.067 221.867,281.6 170.667,281.6 170.667,401.067 136.533,401.067 
	196.267,469.333 256,401.067 "/>
<polygon style="fill:#24AE5F;" points="298.667,349.867 298.667,469.333 349.867,469.333 349.867,349.867 384,349.867 
	324.267,281.6 264.533,349.867 "/>
<g>
</g>
<g>
</g>
<g>
</g>
<g>
</g>
<g>
</g>
<g>
</g>
<g>
</g>
<g>
</g>
<g>
</g>
<g>
</g>
<g>
</g>
<g>
</g>
<g>
</g>
<g>
</g>
<g>
</g>
</svg>
