<svg height="512pt" viewBox="0 -4 512 511" width="512pt" xmlns="http://www.w3.org/2000/svg"><path d="m348.664062 503.964844h-185.328124c-29.746094 0-54.65625-22.542969-57.617188-52.144532l-37.453125-374.519531h375.46875l-37.453125 374.519531c-2.960938 29.601563-27.871094 52.144532-57.617188 52.144532zm0 0" fill="#e7eced"/><path d="m358.398438 85.832031h-204.796876c-4.710937 0-8.535156-3.820312-8.535156-8.53125 0-42.34375 34.449219-76.800781 76.800782-76.800781h68.265624c42.351563 0 76.800782 34.457031 76.800782 76.800781 0 4.710938-3.824219 8.53125-8.535156 8.53125zm-195.660157-17.066406h186.515625c-4.148437-28.910156-29.082031-51.199219-59.121094-51.199219h-68.265624c-30.039063 0-54.972657 22.289063-59.128907 51.199219zm0 0" fill="#6c797a"/><g fill="#afb6bb"><path d="m187.726562 435.699219c-4.355468 0-8.074218-3.320313-8.484374-7.738281l-25.597657-273.066407c-.445312-4.695312 3-8.851562 7.695313-9.292969 4.703125-.480468 8.847656 3.011719 9.292968 7.695313l25.601563 273.066406c.441406 4.695313-3.003906 8.851563-7.699219 9.292969-.273437.035156-.546875.042969-.808594.042969zm0 0"/><path d="m256 435.699219c-4.710938 0-8.535156-3.820313-8.535156-8.53125v-273.066407c0-4.710937 3.824218-8.535156 8.535156-8.535156s8.535156 3.824219 8.535156 8.535156v273.066407c0 4.710937-3.824218 8.53125-8.535156 8.53125zm0 0"/><path d="m324.273438 435.699219c-.261719 0-.535157-.007813-.800782-.035157-4.691406-.441406-8.140625-4.597656-7.695312-9.289062l25.597656-273.070312c.445312-4.691407 4.582031-8.15625 9.292969-7.695313 4.695312.445313 8.140625 4.597656 7.699219 9.292969l-25.601563 273.066406c-.417969 4.410156-4.136719 7.730469-8.492187 7.730469zm0 0"/><path d="m503.464844 85.832031h-494.929688c-4.710937 0-8.535156-3.820312-8.535156-8.53125 0-4.710937 3.824219-8.535156 8.535156-8.535156h494.929688c4.710937 0 8.535156 3.824219 8.535156 8.535156 0 4.710938-3.824219 8.53125-8.535156 8.53125zm0 0"/></g></svg>