<?xml version="1.0" encoding="iso-8859-1"?>
<!-- Generator: Adobe Illustrator 19.0.0, SVG Export Plug-In . SVG Version: 6.00 Build 0)  -->
<svg version="1.1" id="Capa_1" xmlns="http://www.w3.org/2000/svg" xmlns:xlink="http://www.w3.org/1999/xlink" x="0px" y="0px"
	 viewBox="0 0 512 512" style="enable-background:new 0 0 512 512;" xml:space="preserve">
<g>
	<path style="fill:#BDC3C7;" d="M344.276,70.621H167.724c-4.873,0-8.828-3.955-8.828-8.828V34.94c0-19.262,15.678-34.94,34.94-34.94
		h124.319c19.271,0,34.948,15.678,34.948,34.94v26.854C353.103,66.666,349.149,70.621,344.276,70.621z M176.552,52.966h158.897
		V34.94c0-9.534-7.751-17.284-17.284-17.284H193.836c-9.534,0-17.284,7.751-17.284,17.284V52.966z"/>
	<path style="fill:#BDC3C7;" d="M404.233,512H107.767c-15.642,0-28.319-12.924-28.319-28.866V116.136h353.103v366.998
		C432.552,499.076,419.875,512,404.233,512z"/>
</g>
<g>
	<path style="fill:#7F8C8D;" d="M450.207,123.586H61.793V93.793c0-22.546,18.282-40.828,40.828-40.828h306.759
		c22.546,0,40.828,18.282,40.828,40.828V123.586z"/>
	<path style="fill:#7F8C8D;" d="M150.069,459.034L150.069,459.034c-14.627,0-26.483-11.855-26.483-26.483V203.034
		c0-14.627,11.855-26.483,26.483-26.483l0,0c14.627,0,26.483,11.855,26.483,26.483v229.517
		C176.552,447.179,164.696,459.034,150.069,459.034z"/>
	<path style="fill:#7F8C8D;" d="M361.931,459.034L361.931,459.034c-14.627,0-26.483-11.855-26.483-26.483V203.034
		c0-14.627,11.855-26.483,26.483-26.483l0,0c14.627,0,26.483,11.855,26.483,26.483v229.517
		C388.414,447.179,376.558,459.034,361.931,459.034z"/>
	<path style="fill:#7F8C8D;" d="M256,459.034L256,459.034c-14.627,0-26.483-11.855-26.483-26.483V203.034
		c0-14.627,11.855-26.483,26.483-26.483l0,0c14.627,0,26.483,11.855,26.483,26.483v229.517
		C282.483,447.179,270.627,459.034,256,459.034z"/>
</g>
<rect x="79.448" y="123.586" style="fill:#687676;" width="353.103" height="17.655"/>
<g>
</g>
<g>
</g>
<g>
</g>
<g>
</g>
<g>
</g>
<g>
</g>
<g>
</g>
<g>
</g>
<g>
</g>
<g>
</g>
<g>
</g>
<g>
</g>
<g>
</g>
<g>
</g>
<g>
</g>
</svg>
