<?xml version="1.0" encoding="iso-8859-1"?>
<!-- Generator: Adobe Illustrator 19.0.0, SVG Export Plug-In . SVG Version: 6.00 Build 0)  -->
<svg version="1.1" id="Capa_1" xmlns="http://www.w3.org/2000/svg" xmlns:xlink="http://www.w3.org/1999/xlink" x="0px" y="0px"
	 viewBox="0 0 512 512" style="enable-background:new 0 0 512 512;" xml:space="preserve">
<path style="fill:#ECF0F1;" d="M132.414,4.414C59.401,4.414,0,63.815,0,136.828v79.448h35.31v-79.448
	c0-53.628,43.476-97.103,97.103-97.103s97.103,43.476,97.103,97.103v79.448h35.31v-79.448
	C264.828,63.815,205.427,4.414,132.414,4.414z"/>
<path style="fill:#35495E;" d="M485.508,494.345H150.078c-14.627,0-26.492-11.343-26.492-25.326V232.775
	c0-13.983,11.864-25.326,26.492-25.326H485.5c14.636,0,26.5,11.343,26.5,25.326V469.01C512,483.001,500.136,494.345,485.508,494.345
	z"/>
<path style="fill:#F0C419;" d="M485.508,507.586H150.078c-14.627,0-26.492-11.864-26.492-26.492v-44.129H512v44.129
	C512,495.722,500.136,507.586,485.508,507.586z"/>
<path style="fill:#1B2A39;" d="M353.103,295.724c0-22.254-20.595-39.707-43.767-34.331c-12.518,2.904-22.713,12.977-25.768,25.459
	c-4.078,16.675,3.734,31.815,16.569,39.283v40.21c0,9.754,7.901,17.655,17.655,17.655l0,0c9.754,0,17.655-7.901,17.655-17.655
	v-40.21C345.962,320.018,353.103,308.762,353.103,295.724z"/>
<g>
</g>
<g>
</g>
<g>
</g>
<g>
</g>
<g>
</g>
<g>
</g>
<g>
</g>
<g>
</g>
<g>
</g>
<g>
</g>
<g>
</g>
<g>
</g>
<g>
</g>
<g>
</g>
<g>
</g>
</svg>
