<?xml version="1.0" encoding="iso-8859-1"?>
<!-- Generator: Adobe Illustrator 22.0.0, SVG Export Plug-In . SVG Version: 6.00 Build 0)  -->
<svg xmlns="http://www.w3.org/2000/svg" xmlns:xlink="http://www.w3.org/1999/xlink" version="1.1" id="Layer_1" x="0px" y="0px" viewBox="0 0 58 26" style="enable-background:new 0 0 58 26;" xml:space="preserve" width="512" height="512">
<g id="_x34_4-Gaming_Console">
	<rect x="3" y="5" style="fill:#55687C;" width="52" height="2"/>
	<rect x="3" y="17" style="fill:#55687C;" width="52" height="2"/>
	<polygon style="fill:#55687C;" points="5,13 53,13 57,18 1,18  "/>
	<polygon style="fill:#28384C;" points="58,26 0,26 1,18 57,18  "/>
	<polygon style="fill:#55687C;" points="48,0 37,0 29,0 10,0 1,6 32.697,6 57,6  "/>
	<polygon style="fill:#28384C;" points="57,6 41.137,6 32.697,6 1,6 0,14 58,14  "/>
	<path style="fill:#E4C05C;" d="M53,11h-4c-0.552,0-1-0.447-1-1s0.448-1,1-1h4c0.552,0,1,0.447,1,1S53.552,11,53,11z"/>
	<path style="fill:#61B872;" d="M45,11h-4c-0.552,0-1-0.447-1-1s0.448-1,1-1h4c0.552,0,1,0.447,1,1S45.552,11,45,11z"/>
	<path style="fill:#E83132;" d="M37,11h-4c-0.552,0-1-0.447-1-1s0.448-1,1-1h4c0.552,0,1,0.447,1,1S37.552,11,37,11z"/>
	<path style="fill:#FFFFFF;" d="M11,11H7c-0.552,0-1-0.447-1-1s0.448-1,1-1h4c0.552,0,1,0.447,1,1S11.552,11,11,11z"/>
	<path style="fill:#FFFFFF;" d="M11,23H7c-0.552,0-1-0.447-1-1s0.448-1,1-1h4c0.552,0,1,0.447,1,1S11.552,23,11,23z"/>
	<rect x="16" y="6" style="fill:#1B2938;" width="2" height="8"/>
	<rect x="16" y="18" style="fill:#1B2938;" width="2" height="8"/>
</g>

</svg>
