<svg enable-background="new 0 0 57.909 32.037" height="512" viewBox="0 0 57.909 32.037" width="512" xmlns="http://www.w3.org/2000/svg"><path d="m57.877 15.941-6.772-6.771c-3.16-3.16-6.83-5.497-10.742-7.025-.285.905-1.279 1.611-2.337.989-2.692-1.585-6.302-.897-9.274-.753-3.243.157-6.313.016-9.474.917-.985.28-1.688-.324-1.922-1.081-3.841 1.528-7.443 3.843-10.553 6.953l-6.771 6.771c-.043.043-.043.112 0 .155l6.771 6.771c3.208 3.208 6.941 5.566 10.92 7.092.439-.626 1.259-1.009 2.131-.57 2.722 1.372 6.548.854 9.527.737 2.986-.118 6.06-.192 8.908-1.15.96-.323 1.649.242 1.888.986 3.982-1.525 7.718-3.885 10.927-7.094l6.771-6.771c.045-.044.045-.113.002-.156z" fill="#fbce9d"/><path d="m17.445 2.183c-3.965 3.302-6.491 8.273-6.491 13.836s2.526 10.534 6.491 13.836c7.38 2.911 15.638 2.911 23.018 0 3.965-3.302 6.491-8.273 6.491-13.836s-2.526-10.534-6.491-13.836c-7.379-2.911-15.638-2.911-23.018 0z" fill="#e7eced"/><circle cx="28.954" cy="16.019" fill="#366db6" r="8"/><ellipse cx="26.409" cy="12.043" fill="#fff" rx="2.5" ry="2"/></svg>