<?xml version="1.0" encoding="iso-8859-1"?>
<!-- Generator: Adobe Illustrator 19.0.0, SVG Export Plug-In . SVG Version: 6.00 Build 0)  -->
<svg version="1.1" id="Capa_1" xmlns="http://www.w3.org/2000/svg" xmlns:xlink="http://www.w3.org/1999/xlink" x="0px" y="0px"
	 viewBox="0 0 512 512" style="enable-background:new 0 0 512 512;" xml:space="preserve">
<path style="fill:#28384C;" d="M388.378,512H123.622c-14.645,0-26.518-11.873-26.518-26.518V26.518
	C97.103,11.873,108.977,0,123.622,0h264.766c14.636,0,26.509,11.873,26.509,26.518v458.973C414.897,500.127,403.023,512,388.378,512
	z"/>
<rect x="132.414" y="35.31" style="fill:#DC691D;" width="247.172" height="123.586"/>
<path style="fill:#839594;" d="M485.517,379.586c-4.873,0-8.828,3.946-8.828,8.828c0,34.066-27.719,61.793-61.793,61.793h-44.138
	c-4.873,0-8.828,3.946-8.828,8.828c0,4.882,3.955,8.828,8.828,8.828h44.138c43.811,0,79.448-35.637,79.448-79.448
	C494.345,383.532,490.39,379.586,485.517,379.586z"/>
<path style="fill:#596F87;" d="M370.759,485.517h-52.966c-4.873,0-8.828-3.946-8.828-8.828v-35.31c0-4.882,3.955-8.828,8.828-8.828
	h52.966c4.873,0,8.828,3.946,8.828,8.828v35.31C379.586,481.571,375.631,485.517,370.759,485.517z"/>
<path style="fill:#839594;" d="M141.241,450.207H97.103c-34.074,0-61.793-27.727-61.793-61.793c0-4.882-3.955-8.828-8.828-8.828
	s-8.828,3.946-8.828,8.828c0,43.811,35.637,79.448,79.448,79.448h44.138c4.873,0,8.828-3.946,8.828-8.828
	C150.069,454.153,146.114,450.207,141.241,450.207z"/>
<g>
	<path style="fill:#596F87;" d="M194.207,485.517h-52.966c-4.873,0-8.828-3.946-8.828-8.828v-35.31c0-4.882,3.955-8.828,8.828-8.828
		h52.966c4.873,0,8.828,3.946,8.828,8.828v35.31C203.034,481.571,199.08,485.517,194.207,485.517z"/>
	<circle style="fill:#596F87;" cx="256" cy="308.966" r="97.103"/>
</g>
<g>
	<path style="fill:#F9B38C;" d="M185.379,132.414c-4.873,0-8.828-3.946-8.828-8.828V70.621c0-4.882,3.955-8.828,8.828-8.828
		c4.873,0,8.828,3.946,8.828,8.828v52.966C194.207,128.468,190.252,132.414,185.379,132.414z"/>
	<path style="fill:#F9B38C;" d="M167.724,97.103c-2.26,0-4.52-0.865-6.241-2.586c-3.452-3.452-3.452-9.031,0-12.482l17.655-17.655
		c3.443-3.452,9.039-3.452,12.482,0c3.452,3.452,3.452,9.031,0,12.482l-17.655,17.655C172.244,96.238,169.984,97.103,167.724,97.103
		z"/>
	<path style="fill:#F9B38C;" d="M273.655,132.414h-35.31c-4.873,0-8.828-3.946-8.828-8.828V70.621c0-4.882,3.955-8.828,8.828-8.828
		h35.31c4.873,0,8.828,3.946,8.828,8.828v52.966C282.483,128.468,278.528,132.414,273.655,132.414z M247.172,114.759h17.655v-35.31
		h-17.655V114.759z"/>
	<path style="fill:#F9B38C;" d="M344.276,132.414h-35.31c-4.873,0-8.828-3.946-8.828-8.828s3.955-8.828,8.828-8.828h26.483v-8.828
		h-26.483c-4.873,0-8.828-3.946-8.828-8.828V70.621c0-4.882,3.955-8.828,8.828-8.828h35.31c4.873,0,8.828,3.946,8.828,8.828
		s-3.955,8.828-8.828,8.828h-26.483v8.828h26.483c4.873,0,8.828,3.946,8.828,8.828v26.483
		C353.103,128.468,349.149,132.414,344.276,132.414z"/>
	<path style="fill:#F9B38C;" d="M211.862,132.414c-4.873,0-8.828-3.946-8.828-8.828v-8.828c0-4.882,3.955-8.828,8.828-8.828
		c4.873,0,8.828,3.946,8.828,8.828v8.828C220.69,128.468,216.735,132.414,211.862,132.414z"/>
</g>
<polygon style="fill:#28384C;" points="273.655,370.759 238.345,370.759 238.345,273.655 256,247.172 273.655,273.655 "/>
<rect x="238.345" y="300.138" style="fill:#1F2C3A;" width="35.31" height="35.31"/>
<path d="M317.793,317.793h-8.828c-4.873,0-8.828-3.946-8.828-8.828c0-4.882,3.955-8.828,8.828-8.828h8.828
	c4.873,0,8.828,3.946,8.828,8.828C326.621,313.847,322.666,317.793,317.793,317.793z"/>
<path d="M203.034,317.793h-8.828c-4.873,0-8.828-3.946-8.828-8.828c0-4.882,3.955-8.828,8.828-8.828h8.828
	c4.873,0,8.828,3.946,8.828,8.828C211.862,313.847,207.907,317.793,203.034,317.793z"/>
<g>
	<path style="fill:#1F2C3A;" d="M317.793,317.793h-8.828c-4.873,0-8.828-3.946-8.828-8.828c0-4.882,3.955-8.828,8.828-8.828h8.828
		c4.873,0,8.828,3.946,8.828,8.828C326.621,313.847,322.666,317.793,317.793,317.793z"/>
	<path style="fill:#1F2C3A;" d="M203.034,317.793h-8.828c-4.873,0-8.828-3.946-8.828-8.828c0-4.882,3.955-8.828,8.828-8.828h8.828
		c4.873,0,8.828,3.946,8.828,8.828C211.862,313.847,207.907,317.793,203.034,317.793z"/>
	<path style="fill:#1F2C3A;" d="M150.069,229.517c-2.26,0-4.52-0.865-6.241-2.586l-17.655-17.655c-3.452-3.452-3.452-9.031,0-12.482
		c3.443-3.452,9.039-3.452,12.482,0l17.655,17.655c3.452,3.452,3.452,9.031,0,12.482
		C154.589,228.652,152.329,229.517,150.069,229.517z"/>
	<path style="fill:#1F2C3A;" d="M361.931,229.517c-2.26,0-4.52-0.865-6.241-2.586c-3.452-3.452-3.452-9.031,0-12.482l17.655-17.655
		c3.443-3.452,9.039-3.452,12.482,0c3.452,3.452,3.452,9.031,0,12.482l-17.655,17.655
		C366.451,228.652,364.191,229.517,361.931,229.517z"/>
	<path style="fill:#1F2C3A;" d="M379.586,414.897c-2.26,0-4.52-0.865-6.241-2.586l-17.655-17.655c-3.452-3.452-3.452-9.031,0-12.482
		c3.443-3.452,9.039-3.452,12.482,0l17.655,17.655c3.452,3.452,3.452,9.031,0,12.482
		C384.106,414.031,381.846,414.897,379.586,414.897z"/>
	<path style="fill:#1F2C3A;" d="M132.414,414.897c-2.26,0-4.52-0.865-6.241-2.586c-3.452-3.452-3.452-9.031,0-12.482l17.655-17.655
		c3.443-3.452,9.039-3.452,12.482,0c3.452,3.452,3.452,9.031,0,12.482l-17.655,17.655
		C136.934,414.031,134.674,414.897,132.414,414.897z"/>
</g>
<g>
	<path style="fill:#839594;" d="M485.517,132.414c-4.873,0-8.828-3.946-8.828-8.828V70.621c0-4.882,3.955-8.828,8.828-8.828
		s8.828,3.946,8.828,8.828v52.966C494.345,128.468,490.39,132.414,485.517,132.414z"/>
	<path style="fill:#839594;" d="M26.483,132.414c-4.873,0-8.828-3.946-8.828-8.828V70.621c0-4.882,3.955-8.828,8.828-8.828
		s8.828,3.946,8.828,8.828v52.966C35.31,128.468,31.356,132.414,26.483,132.414z"/>
</g>
<path style="fill:#DD352E;" d="M485.517,388.414L485.517,388.414c-9.878,0-18.008-7.768-18.458-17.638l-8.024-176.569H512
	l-8.024,176.569C503.526,380.646,495.395,388.414,485.517,388.414z"/>
<path style="fill:#E7ECED;" d="M503.172,194.207h-35.31v-52.966c0-9.754,7.901-17.655,17.655-17.655l0,0
	c9.754,0,17.655,7.901,17.655,17.655V194.207z"/>
<polygon style="fill:#EBBA16;" points="506.386,317.793 508.787,264.828 462.248,264.828 464.649,317.793 "/>
<path style="fill:#DD352E;" d="M26.483,388.414L26.483,388.414c9.878,0,18.008-7.768,18.458-17.638l8.024-176.569H0l8.024,176.569
	C8.474,380.646,16.605,388.414,26.483,388.414z"/>
<path style="fill:#E7ECED;" d="M8.828,194.207h35.31v-52.966c0-9.754-7.901-17.655-17.655-17.655l0,0
	c-9.754,0-17.655,7.901-17.655,17.655V194.207z"/>
<polygon style="fill:#EBBA16;" points="5.614,317.793 3.213,264.828 49.752,264.828 47.351,317.793 "/>
<g>
</g>
<g>
</g>
<g>
</g>
<g>
</g>
<g>
</g>
<g>
</g>
<g>
</g>
<g>
</g>
<g>
</g>
<g>
</g>
<g>
</g>
<g>
</g>
<g>
</g>
<g>
</g>
<g>
</g>
</svg>
