<?xml version="1.0" encoding="iso-8859-1"?>
<!-- Generator: Adobe Illustrator 19.0.0, SVG Export Plug-In . SVG Version: 6.00 Build 0)  -->
<svg version="1.1" id="Capa_1" xmlns="http://www.w3.org/2000/svg" xmlns:xlink="http://www.w3.org/1999/xlink" x="0px" y="0px"
	 viewBox="0 0 512.013 512.013" style="enable-background:new 0 0 512.013 512.013;" xml:space="preserve">
<g>
	<path style="fill:#AFB6BB;" d="M44.145,168.984C62.17,187.01,83.56,191.3,105.788,188.087c17.117-2.472,34.366,3.337,45.683,16.41
		l60.354,60.337l53.001-53.018l-60.328-60.345c-13.074-11.317-18.882-28.566-16.41-45.683c3.213-22.228-1.077-43.617-19.103-61.643
		L137.779,12.93c-17.24-17.24-45.18-17.24-62.42,0l62.42,62.42l-62.42,62.42L12.93,75.359c-17.24,17.24-17.231,45.18,0,62.42
		L44.145,168.984z"/>
	<path style="fill:#AFB6BB;" d="M467.869,343.029c-18.026-18.026-39.415-22.316-61.643-19.103
		c-17.117,2.463-32.971-1.88-44.288-14.954l-61.767-61.784l-53.001,52.974l61.802,61.775c13.074,11.317,17.417,27.171,14.945,44.288
		c-3.204,22.237,1.086,43.626,19.112,61.643l31.214,31.214c17.231,17.24,45.18,17.24,62.42,0l-62.42-62.42l62.42-62.42l62.42,62.42
		c17.24-17.24,17.24-45.18,0-62.42L467.869,343.029z"/>
</g>
<path style="fill:#E7ECED;" d="M150.076,308.972c-11.317,13.074-27.171,17.417-44.288,14.954
	c-22.228-3.213-43.617,1.077-61.643,19.103L12.93,374.243c-17.24,17.24-17.24,45.18,0,62.42l62.42-62.42l62.42,62.42l-62.42,62.42
	c17.24,17.24,45.18,17.24,62.42,0l31.214-31.214c18.026-18.026,22.316-39.415,19.103-61.643
	c-2.463-17.117,1.88-32.971,14.954-44.288l157.502-157.431c11.317-13.074,28.566-18.882,45.683-16.41
	c22.237,3.204,43.626-1.086,61.643-19.103l31.214-31.214c17.24-17.24,17.24-45.18,0-62.42l-62.42,62.42l-62.42-62.42l62.42-62.42
	c-17.24-17.24-45.18-17.24-62.42,0l-31.214,31.206c-18.026,18.026-22.316,39.415-19.103,61.643
	c2.472,17.117-3.337,34.366-16.41,45.683L150.076,308.972z"/>
<g>
	<path style="fill:#AFB6BB;" d="M273.662,247.179c-2.26,0-4.52-0.865-6.241-2.586c-3.452-3.452-3.452-9.031,0-12.482l61.793-61.793
		c3.452-3.452,9.031-3.452,12.482,0c3.452,3.452,3.452,9.031,0,12.482l-61.793,61.793
		C278.182,246.314,275.922,247.179,273.662,247.179z"/>
	<path style="fill:#AFB6BB;" d="M361.938,158.903c-2.26,0-4.52-0.865-6.241-2.586c-3.452-3.452-3.452-9.031,0-12.482l17.655-17.655
		c3.452-3.452,9.031-3.452,12.482,0c3.452,3.452,3.452,9.031,0,12.482l-17.655,17.655
		C366.457,158.038,364.198,158.903,361.938,158.903z"/>
	<path style="fill:#AFB6BB;" d="M132.42,388.42c-2.26,0-4.52-0.865-6.241-2.586c-3.452-3.452-3.452-9.031,0-12.482l61.793-61.793
		c3.443-3.452,9.039-3.452,12.482,0c3.452,3.452,3.452,9.031,0,12.482l-61.793,61.793C136.94,387.555,134.68,388.42,132.42,388.42z"
		/>
	<path style="fill:#AFB6BB;" d="M220.696,300.145c-2.26,0-4.52-0.865-6.241-2.586c-3.452-3.452-3.452-9.031,0-12.482l26.483-26.483
		c3.443-3.452,9.039-3.452,12.482,0c3.452,3.452,3.452,9.031,0,12.482l-26.483,26.483
		C225.216,299.279,222.956,300.145,220.696,300.145z"/>
</g>
<g>
	<path style="fill:#839594;" d="M379.593,388.42c-2.26,0-4.52-0.865-6.241-2.586l-61.793-61.793c-3.452-3.452-3.452-9.031,0-12.482
		c3.452-3.452,9.031-3.452,12.482,0l61.793,61.793c3.452,3.452,3.452,9.031,0,12.482C384.113,387.555,381.853,388.42,379.593,388.42
		z"/>
	<path style="fill:#839594;" d="M194.214,203.041c-2.26,0-4.52-0.865-6.241-2.586l-61.793-61.793c-3.452-3.452-3.452-9.031,0-12.482
		c3.443-3.452,9.039-3.452,12.482,0l61.793,61.793c3.452,3.452,3.452,9.031,0,12.482
		C198.733,202.176,196.473,203.041,194.214,203.041z"/>
</g>
<g>
</g>
<g>
</g>
<g>
</g>
<g>
</g>
<g>
</g>
<g>
</g>
<g>
</g>
<g>
</g>
<g>
</g>
<g>
</g>
<g>
</g>
<g>
</g>
<g>
</g>
<g>
</g>
<g>
</g>
</svg>
