<?xml version="1.0" encoding="iso-8859-1"?>
<!-- Generator: Adobe Illustrator 19.0.0, SVG Export Plug-In . SVG Version: 6.00 Build 0)  -->
<svg version="1.1" id="Capa_1" xmlns="http://www.w3.org/2000/svg" xmlns:xlink="http://www.w3.org/1999/xlink" x="0px" y="0px"
	 viewBox="0 0 512 512" style="enable-background:new 0 0 512 512;" xml:space="preserve">
<g>
	<rect x="35.31" y="370.759" style="fill:#45576B;" width="70.621" height="44.138"/>
	<rect x="406.069" y="370.759" style="fill:#45576B;" width="70.621" height="44.138"/>
	<rect x="300.138" y="97.103" style="fill:#45576B;" width="70.621" height="44.138"/>
	<rect x="406.069" y="97.103" style="fill:#45576B;" width="70.621" height="44.138"/>
</g>
<path style="fill:#28384C;" d="M483.31,379.586H28.69c-15.846,0-28.69-12.844-28.69-28.69V161.103
	c0-15.846,12.844-28.69,28.69-28.69H483.31c15.846,0,28.69,12.844,28.69,28.69v189.793C512,366.742,499.156,379.586,483.31,379.586z
	"/>
<rect x="35.31" y="167.724" style="fill:#ED8A19;" width="441.379" height="176.552"/>
<g>
	<path style="fill:#EDCCAE;" d="M256,291.31c-4.873,0-8.828-3.955-8.828-8.828v-8.828c0-4.873,3.955-8.828,8.828-8.828
		s8.828,3.955,8.828,8.828v8.828C264.828,287.356,260.873,291.31,256,291.31z"/>
	<path style="fill:#EDCCAE;" d="M256,247.172c-4.873,0-8.828-3.955-8.828-8.828v-8.828c0-4.873,3.955-8.828,8.828-8.828
		s8.828,3.955,8.828,8.828v8.828C264.828,243.218,260.873,247.172,256,247.172z"/>
	<path style="fill:#EDCCAE;" d="M344.276,308.966H291.31c-4.873,0-8.828-3.955-8.828-8.828v-88.276c0-4.873,3.955-8.828,8.828-8.828
		h52.966c4.873,0,8.828,3.955,8.828,8.828v88.276C353.103,305.011,349.149,308.966,344.276,308.966z M300.138,291.31h35.31V220.69
		h-35.31V291.31z"/>
	<path style="fill:#EDCCAE;" d="M220.69,308.966h-52.966c-4.873,0-8.828-3.955-8.828-8.828s3.955-8.828,8.828-8.828h44.138v-26.483
		h-44.138c-4.873,0-8.828-3.955-8.828-8.828v-44.138c0-4.873,3.955-8.828,8.828-8.828h52.966c4.873,0,8.828,3.955,8.828,8.828
		c0,4.873-3.955,8.828-8.828,8.828h-44.138v26.483h44.138c4.873,0,8.828,3.955,8.828,8.828v44.138
		C229.517,305.011,225.562,308.966,220.69,308.966z"/>
	<path style="fill:#EDCCAE;" d="M79.439,256c-1.836,0-3.699-0.574-5.288-1.766c-3.902-2.922-4.687-8.457-1.766-12.359l26.483-35.31
		c2.922-3.884,8.448-4.687,12.359-1.766c3.902,2.922,4.687,8.457,1.766,12.359l-26.483,35.31C84.78,254.782,82.123,256,79.439,256z"
		/>
	<path style="fill:#EDCCAE;" d="M105.931,308.966c-4.873,0-8.828-3.955-8.828-8.828v-88.276c0-4.873,3.955-8.828,8.828-8.828
		c4.873,0,8.828,3.955,8.828,8.828v88.276C114.759,305.011,110.804,308.966,105.931,308.966z"/>
	<path style="fill:#EDCCAE;" d="M132.414,308.966H79.448c-4.873,0-8.828-3.955-8.828-8.828s3.955-8.828,8.828-8.828h52.966
		c4.873,0,8.828,3.955,8.828,8.828S137.287,308.966,132.414,308.966z"/>
	<path style="fill:#EDCCAE;" d="M432.552,264.828h-52.966c-4.873,0-8.828-3.955-8.828-8.828s3.955-8.828,8.828-8.828h44.138V220.69
		h-44.138c-4.873,0-8.828-3.955-8.828-8.828c0-4.873,3.955-8.828,8.828-8.828h52.966c4.873,0,8.828,3.955,8.828,8.828V256
		C441.379,260.873,437.425,264.828,432.552,264.828z"/>
	<path style="fill:#EDCCAE;" d="M432.552,308.966h-52.966c-4.873,0-8.828-3.955-8.828-8.828s3.955-8.828,8.828-8.828h44.138v-26.483
		h-44.138c-4.873,0-8.828-3.955-8.828-8.828s3.955-8.828,8.828-8.828h52.966c4.873,0,8.828,3.955,8.828,8.828v44.138
		C441.379,305.011,437.425,308.966,432.552,308.966z"/>
</g>
<g>
</g>
<g>
</g>
<g>
</g>
<g>
</g>
<g>
</g>
<g>
</g>
<g>
</g>
<g>
</g>
<g>
</g>
<g>
</g>
<g>
</g>
<g>
</g>
<g>
</g>
<g>
</g>
<g>
</g>
</svg>
