<?xml version="1.0" encoding="UTF-8" standalone="no"?>
<!-- Generator: Adobe Illustrator 19.0.0, SVG Export Plug-In . SVG Version: 6.00 Build 0)  -->

<svg
   xmlns:dc="http://purl.org/dc/elements/1.1/"
   xmlns:cc="http://creativecommons.org/ns#"
   xmlns:rdf="http://www.w3.org/1999/02/22-rdf-syntax-ns#"
   xmlns:svg="http://www.w3.org/2000/svg"
   xmlns="http://www.w3.org/2000/svg"
   xmlns:sodipodi="http://sodipodi.sourceforge.net/DTD/sodipodi-0.dtd"
   xmlns:inkscape="http://www.inkscape.org/namespaces/inkscape"
   version="1.1"
   id="Capa_1"
   x="0px"
   y="0px"
   viewBox="0 0 512 512"
   style="enable-background:new 0 0 512 512;"
   xml:space="preserve"
   sodipodi:docname="logo.svg"
   inkscape:version="0.92.4 (5da689c313, 2019-01-14)"><metadata
   id="metadata97"><rdf:RDF><cc:Work
       rdf:about=""><dc:format>image/svg+xml</dc:format><dc:type
         rdf:resource="http://purl.org/dc/dcmitype/StillImage" /></cc:Work></rdf:RDF></metadata><defs
   id="defs95" /><sodipodi:namedview
   pagecolor="#ffffff"
   bordercolor="#666666"
   borderopacity="1"
   objecttolerance="10"
   gridtolerance="10"
   guidetolerance="10"
   inkscape:pageopacity="0"
   inkscape:pageshadow="2"
   inkscape:window-width="1920"
   inkscape:window-height="1017"
   id="namedview93"
   showgrid="false"
   inkscape:zoom="0.4609375"
   inkscape:cx="-11.932203"
   inkscape:cy="256"
   inkscape:window-x="1912"
   inkscape:window-y="-8"
   inkscape:window-maximized="1"
   inkscape:current-layer="Capa_1" />































<g
   id="g144"
   transform="rotate(50.579893,217.2528,256.18464)"><g
     id="g6">
	<path
   id="path2"
   d="m 503.467,174.818 h -204.8 c -4.71,0 -8.533,-3.814 -8.533,-8.533 0,-4.719 3.823,-8.533 8.533,-8.533 h 204.8 c 4.71,0 8.533,3.814 8.533,8.533 0,4.719 -3.823,8.533 -8.533,8.533 z"
   style="fill:#afb6bb"
   inkscape:connector-curvature="0" />
	<path
   id="path4"
   d="M 213.333,174.818 H 8.533 c -4.71,0 -8.533,-3.814 -8.533,-8.533 0,-4.719 3.823,-8.533 8.533,-8.533 h 204.8 c 4.71,0 8.533,3.814 8.533,8.533 0,4.719 -3.822,8.533 -8.533,8.533 z"
   style="fill:#afb6bb"
   inkscape:connector-curvature="0" />
</g><path
     id="path8"
     d="m 256,274.24 c 15.565,0 30.106,4.233 42.667,11.511 V 46.818 H 213.334 V 285.751 C 225.894,278.473 240.435,274.24 256,274.24 Z"
     style="fill:#e7eced"
     inkscape:connector-curvature="0" /><rect
     id="rect10"
     height="51.200001"
     width="51.200001"
     style="fill:#c69714"
     y="166.285"
     x="435.20001" /><rect
     id="rect12"
     height="51.200001"
     width="51.200001"
     style="fill:#ebba16"
     y="166.285"
     x="384" /><g
     id="g18">
	<rect
   id="rect14"
   height="51.200001"
   width="51.200001"
   style="fill:#f7d063"
   y="166.285"
   x="332.79999" />
	<rect
   id="rect16"
   height="51.200001"
   width="51.200001"
   style="fill:#f7d063"
   y="115.085"
   x="435.20001" />
</g><rect
     id="rect20"
     height="51.200001"
     width="51.200001"
     style="fill:#c69714"
     y="115.085"
     x="384" /><rect
     id="rect22"
     height="51.200001"
     width="51.200001"
     style="fill:#ebba16"
     y="115.085"
     x="332.79999" /><path
     id="path24"
     d="m 341.333,345.485 c 0,-47.13 -38.204,-85.333 -85.333,-85.333 -47.129,0 -85.333,38.204 -85.333,85.333 z"
     style="fill:#afb6bb"
     inkscape:connector-curvature="0" /><path
     id="path26"
     d="m 221.867,345.485 c 0,18.85 15.283,34.133 34.133,34.133 18.85,0 34.133,-15.283 34.133,-34.133 z"
     style="fill:#e7eced"
     inkscape:connector-curvature="0" /><g
     id="g36">
	<path
   id="path28"
   d="m 264.533,98.018 h -17.067 c -4.71,0 -8.533,-3.814 -8.533,-8.533 0,-4.719 3.823,-8.533 8.533,-8.533 h 17.067 c 4.71,0 8.533,3.814 8.533,8.533 0.001,4.719 -3.822,8.533 -8.533,8.533 z"
   style="fill:#afb6bb"
   inkscape:connector-curvature="0" />
	<path
   id="path30"
   d="m 264.533,140.685 h -17.067 c -4.71,0 -8.533,-3.814 -8.533,-8.533 0,-4.719 3.823,-8.533 8.533,-8.533 h 17.067 c 4.71,0 8.533,3.814 8.533,8.533 0.001,4.718 -3.822,8.533 -8.533,8.533 z"
   style="fill:#afb6bb"
   inkscape:connector-curvature="0" />
	<path
   id="path32"
   d="m 264.533,183.351 h -17.067 c -4.71,0 -8.533,-3.814 -8.533,-8.533 0,-4.719 3.823,-8.533 8.533,-8.533 h 17.067 c 4.71,0 8.533,3.814 8.533,8.533 0.001,4.719 -3.822,8.533 -8.533,8.533 z"
   style="fill:#afb6bb"
   inkscape:connector-curvature="0" />
	<path
   id="path34"
   d="m 264.533,226.018 h -17.067 c -4.71,0 -8.533,-3.814 -8.533,-8.533 0,-4.719 3.823,-8.533 8.533,-8.533 h 17.067 c 4.71,0 8.533,3.814 8.533,8.533 0.001,4.719 -3.822,8.533 -8.533,8.533 z"
   style="fill:#afb6bb"
   inkscape:connector-curvature="0" />
</g><g
     id="g44">
	<path
   id="path38"
   d="m 254.95,507.849 c -33.101,0 -65.852,-12.288 -90.325,-36.881 -3.328,-3.337 -3.311,-8.738 0.026,-12.066 3.345,-3.328 8.747,-3.302 12.066,0.034 41.702,41.89 114.398,41.805 158.754,-0.179 3.422,-3.234 8.823,-3.081 12.066,0.333 3.234,3.422 3.089,8.823 -0.333,12.066 -25.864,24.464 -59.238,36.693 -92.254,36.693 z"
   style="fill:#366db6"
   inkscape:connector-curvature="0" />
	<path
   id="path40"
   d="m 256.23,465.079 c -26.795,0 -53.666,-9.31 -74.223,-27.93 -3.49,-3.166 -3.755,-8.559 -0.597,-12.058 3.166,-3.49 8.559,-3.746 12.058,-0.589 34.167,30.967 91.418,30.976 125.022,0.051 3.465,-3.2 8.875,-2.97 12.058,0.495 3.2,3.465 2.97,8.866 -0.495,12.058 -20.259,18.647 -47.011,27.973 -73.823,27.973 z"
   style="fill:#366db6"
   inkscape:connector-curvature="0" />
	<path
   id="path42"
   d="m 254.78,422.302 c -20.591,0 -40.755,-6.391 -55.561,-19.157 -3.567,-3.072 -3.968,-8.465 -0.887,-12.032 3.081,-3.575 8.474,-3.968 12.041,-0.887 23.262,20.062 65.229,19.934 91.631,-0.316 3.738,-2.859 9.088,-2.159 11.964,1.587 2.876,3.746 2.159,9.096 -1.579,11.964 -16.385,12.569 -37.198,18.841 -57.609,18.841 z"
   style="fill:#366db6"
   inkscape:connector-curvature="0" />
</g><rect
     id="rect46"
     height="42.667"
     width="51.200001"
     style="fill:#afb6bb"
     y="4.151"
     x="230.39999" /><rect
     id="rect48"
     height="51.200001"
     width="51.200001"
     style="fill:#c69714"
     y="166.285"
     x="128" /><rect
     id="rect50"
     height="51.200001"
     width="51.200001"
     style="fill:#ebba16"
     y="166.285"
     x="76.800003" /><g
     id="g56">
	<rect
   id="rect52"
   height="51.200001"
   width="51.200001"
   style="fill:#f7d063"
   y="166.285"
   x="25.6" />
	<rect
   id="rect54"
   height="51.200001"
   width="51.200001"
   style="fill:#f7d063"
   y="115.085"
   x="128" />
</g><rect
     id="rect58"
     height="51.200001"
     width="51.200001"
     style="fill:#c69714"
     y="115.085"
     x="76.800003" /><rect
     id="rect60"
     height="51.200001"
     width="51.200001"
     style="fill:#ebba16"
     y="115.085"
     x="25.6" /><g
     id="g62">
</g><g
     id="g64">
</g><g
     id="g66">
</g><g
     id="g68">
</g><g
     id="g70">
</g><g
     id="g72">
</g><g
     id="g74">
</g><g
     id="g76">
</g><g
     id="g78">
</g><g
     id="g80">
</g><g
     id="g82">
</g><g
     id="g84">
</g><g
     id="g86">
</g><g
     id="g88">
</g><g
     id="g90">
</g></g>
</svg>